Droid Devanagari-RegularItalic.ufo
<glyph name="parenright" format="1">
  <advance width="709"/>
  <unicode hex="0029"/>
  <outline>
    <contour>
      <point x="379" y="812"/>
      <point x="371" y="974"/>
      <point x="328" y="1115" type="curve" smooth="yes"/>
      <point x="284" y="1256"/>
      <point x="206" y="1379"/>
      <point x="66" y="1464" type="curve"/>
      <point x="66" y="1556" type="line"/>
      <point x="254" y="1481"/>
      <point x="386" y="1378"/>
      <point x="470" y="1231" type="curve" smooth="yes"/>
      <point x="554" y="1084"/>
      <point x="592" y="896"/>
      <point x="592" y="649" type="curve" smooth="yes"/>
      <point x="592" y="402"/>
      <point x="554" y="212"/>
      <point x="470" y="65" type="curve" smooth="yes"/>
      <point x="386" y="-83"/>
      <point x="254" y="-187"/>
      <point x="66" y="-262" type="curve"/>
      <point x="66" y="-168" type="line"/>
      <point x="206" y="-83"/>
      <point x="284" y="41"/>
      <point x="328" y="183" type="curve" smooth="yes"/>
      <point x="371" y="325"/>
      <point x="379" y="486"/>
      <point x="379" y="649" type="curve" smooth="yes"/>
    </contour>
  </outline>
</glyph>
<glyph name="seven" format="1">
  <advance width="1145"/>
  <unicode hex="0037"/>
  <outline>
    <contour>
      <point x="1047" y="1460" type="line"/>
      <point x="1047" y="1401" type="line"/>
      <point x="543" y="0" type="line"/>
      <point x="389" y="0" type="line"/>
      <point x="872" y="1296" type="line"/>
      <point x="334" y="1296" type="line" smooth="yes"/>
      <point x="261" y="1296"/>
      <point x="221" y="1261"/>
      <point x="215" y="1192" type="curve" smooth="yes"/>
      <point x="207" y="1090" type="line"/>
      <point x="121" y="1090" type="line"/>
      <point x="131" y="1460" type="line"/>
    </contour>
  </outline>
</glyph>
<glyph name="candrabinduinverteddeva" format="1">
  <advance width="0"/>
  <unicode hex="0900"/>
  <outline>
    <contour>
      <point x="211" y="1567"/>
      <point x="223" y="1582"/>
      <point x="229" y="1612" type="curve" smooth="yes"/>
      <point x="259" y="1755"/>
      <point x="158" y="1954"/>
      <point x="-53" y="1954" type="curve" smooth="yes"/>
      <point x="-211" y="1954"/>
      <point x="-354" y="1837"/>
      <point x="-385" y="1689" type="curve" smooth="yes"/>
      <point x="-399" y="1622"/>
      <point x="-370" y="1577"/>
      <point x="-312" y="1550" type="curve"/>
      <point x="-257" y="1735"/>
      <point x="-140" y="1821"/>
      <point x="-17" y="1821" type="curve" smooth="yes"/>
      <point x="87" y="1821"/>
      <point x="159" y="1756"/>
      <point x="185" y="1560" type="curve"/>
    </contour>
    <contour>
      <point x="-113" y="1681"/>
      <point x="-158" y="1643"/>
      <point x="-169" y="1594" type="curve" smooth="yes"/>
      <point x="-181" y="1536"/>
      <point x="-141" y="1486"/>
      <point x="-82" y="1486" type="curve" smooth="yes"/>
      <point x="-34" y="1486"/>
      <point x="11" y="1524"/>
      <point x="22" y="1572" type="curve" smooth="yes"/>
      <point x="34" y="1631"/>
      <point x="-6" y="1681"/>
      <point x="-66" y="1681" type="curve" smooth="yes"/>
    </contour>
    <contour>
      <point x="-95" y="666" type="move" name="_class0"/>
    </contour>
  </outline>
</glyph>
<glyph name="candrabindudeva" format="1">
  <advance width="0"/>
  <unicode hex="0901"/>
  <outline>
    <contour>
      <point x="-3" y="1759"/>
      <point x="57" y="1812"/>
      <point x="57" y="1873" type="curve" smooth="yes"/>
      <point x="57" y="1918"/>
      <point x="25" y="1954"/>
      <point x="-22" y="1954" type="curve" smooth="yes"/>
      <point x="-82" y="1954"/>
      <point x="-142" y="1901"/>
      <point x="-142" y="1840" type="curve" smooth="yes"/>
      <point x="-142" y="1795"/>
      <point x="-110" y="1759"/>
      <point x="-63" y="1759" type="curve" smooth="yes"/>
    </contour>
    <contour>
      <point x="-345" y="1862"/>
      <point x="-360" y="1844"/>
      <point x="-360" y="1773" type="curve" smooth="yes"/>
      <point x="-360" y="1650"/>
      <point x="-269" y="1486"/>
      <point x="-88" y="1486" type="curve" smooth="yes"/>
      <point x="109" y="1486"/>
      <point x="280" y="1661"/>
      <point x="280" y="1781" type="curve" smooth="yes"/>
      <point x="280" y="1819"/>
      <point x="259" y="1843"/>
      <point x="209" y="1866" type="curve"/>
      <point x="131" y="1696"/>
      <point x="16" y="1619"/>
      <point x="-96" y="1619" type="curve" smooth="yes"/>
      <point x="-202" y="1619"/>
      <point x="-279" y="1689"/>
      <point x="-299" y="1884" type="curve"/>
    </contour>
    <contour>
      <point x="-91" y="666" type="move" name="_class0"/>
    </contour>
  </outline>
</glyph>
<glyph name="anusvaradeva" format="1">
  <advance width="0"/>
  <unicode hex="0902"/>
  <outline>
    <contour>
      <point x="-122" y="1650"/>
      <point x="-166" y="1613"/>
      <point x="-176" y="1566" type="curve" smooth="yes"/>
      <point x="-188" y="1508"/>
      <point x="-148" y="1459"/>
      <point x="-89" y="1459" type="curve" smooth="yes"/>
      <point x="-43" y="1459"/>
      <point x="1" y="1496"/>
      <point x="11" y="1544" type="curve" smooth="yes"/>
      <point x="23" y="1601"/>
      <point x="-17" y="1650"/>
      <point x="-75" y="1650" type="curve" smooth="yes"/>
    </contour>
    <contour>
      <point x="-108" y="666" type="move" name="_class0"/>
    </contour>
  </outline>
</glyph>
<glyph name="visargadeva" format="1">
  <advance width="575.157"/>
  <unicode hex="0903"/>
  <outline>
    <contour>
      <point x="323" y="1017"/>
      <point x="256" y="958"/>
      <point x="256" y="890" type="curve" smooth="yes"/>
      <point x="256" y="839"/>
      <point x="292" y="799"/>
      <point x="344" y="799" type="curve" smooth="yes"/>
      <point x="412" y="799"/>
      <point x="480" y="858"/>
      <point x="480" y="926" type="curve" smooth="yes"/>
      <point x="480" y="977"/>
      <point x="443" y="1017"/>
      <point x="390" y="1017" type="curve" smooth="yes"/>
    </contour>
    <contour>
      <point x="182" y="347"/>
      <point x="115" y="288"/>
      <point x="115" y="220" type="curve" smooth="yes"/>
      <point x="115" y="169"/>
      <point x="152" y="129"/>
      <point x="204" y="129" type="curve" smooth="yes"/>
      <point x="271" y="129"/>
      <point x="339" y="188"/>
      <point x="339" y="256" type="curve" smooth="yes"/>
      <point x="339" y="307"/>
      <point x="302" y="347"/>
      <point x="250" y="347" type="curve" smooth="yes"/>
    </contour>
  </outline>
</glyph>
<glyph name="ashortdeva" format="1">
  <advance width="1550"/>
  <unicode hex="0904"/>
  <outline>
    <contour>
      <point x="1740" y="1197" type="line"/>
      <point x="1744" y="1206" type="line"/>
      <point x="1713" y="1330" type="line"/>
      <point x="1497" y="1325" type="line"/>
      <point x="1504" y="1598"/>
      <point x="1359" y="1701"/>
      <point x="1045" y="1730" type="curve" smooth="yes"/>
      <point x="781" y="1759"/>
      <point x="705" y="1813"/>
      <point x="649" y="1956" type="curve"/>
      <point x="637" y="1939"/>
      <point x="628" y="1918"/>
      <point x="623" y="1891" type="curve" smooth="yes"/>
      <point x="590" y="1735"/>
      <point x="720" y="1602"/>
      <point x="1141" y="1558" type="curve" smooth="yes"/>
      <point x="1361" y="1536"/>
      <point x="1416" y="1517"/>
      <point x="1396" y="1424" type="curve" smooth="yes"/>
      <point x="1391" y="1398"/>
      <point x="1376" y="1367"/>
      <point x="1358" y="1335" type="curve"/>
      <point x="1131" y="1330" type="line"/>
      <point x="1126" y="1321" type="line"/>
      <point x="1158" y="1197" type="line"/>
      <point x="1319" y="1197" type="line"/>
      <point x="1259" y="913" type="line" smooth="yes"/>
      <point x="1230" y="776"/>
      <point x="1108" y="696"/>
      <point x="975" y="696" type="curve" smooth="yes"/>
      <point x="929" y="696"/>
      <point x="874" y="707"/>
      <point x="823" y="733" type="curve"/>
      <point x="836" y="743" type="line"/>
      <point x="916" y="799"/>
      <point x="960" y="873"/>
      <point x="979" y="962" type="curve" smooth="yes"/>
      <point x="1024" y="1175"/>
      <point x="883" y="1335"/>
      <point x="634" y="1335" type="curve" smooth="yes"/>
      <point x="444" y="1335"/>
      <point x="323" y="1240"/>
      <point x="303" y="1148" type="curve" smooth="yes"/>
      <point x="287" y="1071"/>
      <point x="339" y="1017"/>
      <point x="426" y="1011" type="curve"/>
      <point x="445" y="1129"/>
      <point x="556" y="1224"/>
      <point x="702" y="1224" type="curve" smooth="yes"/>
      <point x="814" y="1224"/>
      <point x="876" y="1167"/>
      <point x="852" y="1050" type="curve" smooth="yes"/>
      <point x="821" y="904"/>
      <point x="686" y="812"/>
      <point x="434" y="799" type="curve"/>
      <point x="436" y="789" type="line"/>
      <point x="489" y="631" type="line"/>
      <point x="574" y="641"/>
      <point x="649" y="657"/>
      <point x="719" y="683" type="curve"/>
      <point x="794" y="645"/>
      <point x="829" y="560"/>
      <point x="807" y="454" type="curve" smooth="yes"/>
      <point x="780" y="325"/>
      <point x="655" y="224"/>
      <point x="497" y="224" type="curve" smooth="yes"/>
      <point x="304" y="224"/>
      <point x="180" y="380"/>
      <point x="188" y="750" type="curve"/>
      <point x="149" y="752"/>
      <point x="130" y="740"/>
      <point x="117" y="677" type="curve" smooth="yes"/>
      <point x="79" y="495"/>
      <point x="152" y="62"/>
      <point x="537" y="62" type="curve" smooth="yes"/>
      <point x="734" y="62"/>
      <point x="887" y="192"/>
      <point x="925" y="372" type="curve" smooth="yes"/>
      <point x="942" y="454"/>
      <point x="932" y="526"/>
      <point x="908" y="588" type="curve"/>
      <point x="929" y="602" type="line"/>
      <point x="968" y="584"/>
      <point x="1014" y="573"/>
      <point x="1065" y="573" type="curve" smooth="yes"/>
      <point x="1102" y="573"/>
      <point x="1146" y="580"/>
      <point x="1190" y="599" type="curve"/>
      <point x="1195" y="595" type="line"/>
      <point x="1070" y="19" type="line"/>
      <point x="1215" y="-19" type="line"/>
      <point x="1226" y="-12" type="line"/>
      <point x="1479" y="1197" type="line"/>
    </contour>
  </outline>
</glyph>
<glyph name="ideva" format="1">
  <advance width="1006"/>
  <unicode hex="0907"/>
  <outline>
    <contour>
      <point x="1196" y="1197" type="line"/>
      <point x="1200" y="1206" type="line"/>
      <point x="1169" y="1330" type="line"/>
      <point x="112" y="1330" type="line"/>
      <point x="107" y="1321" type="line"/>
      <point x="139" y="1197" type="line"/>
      <point x="785" y="1197" type="line"/>
      <point x="751" y="1040" type="line" smooth="yes"/>
      <point x="750" y="1035"/>
      <point x="739" y="1026"/>
      <point x="734" y="1026" type="curve" smooth="yes"/>
      <point x="401" y="1026" type="line" smooth="yes"/>
      <point x="269" y="1026"/>
      <point x="202" y="967"/>
      <point x="185" y="888" type="curve" smooth="yes"/>
      <point x="156" y="746"/>
      <point x="277" y="532"/>
      <point x="466" y="532" type="curve" smooth="yes"/>
      <point x="519" y="532"/>
      <point x="675" y="554"/>
      <point x="727" y="554" type="curve" smooth="yes"/>
      <point x="773" y="554"/>
      <point x="791" y="531"/>
      <point x="783" y="492" type="curve" smooth="yes"/>
      <point x="762" y="392"/>
      <point x="597" y="310"/>
      <point x="360" y="306" type="curve"/>
      <point x="345" y="391"/>
      <point x="306" y="447"/>
      <point x="232" y="447" type="curve" smooth="yes"/>
      <point x="186" y="447"/>
      <point x="128" y="422"/>
      <point x="113" y="352" type="curve" smooth="yes"/>
      <point x="92" y="250"/>
      <point x="178" y="155"/>
      <point x="351" y="154" type="curve"/>
      <point x="369" y="-56"/>
      <point x="462" y="-143"/>
      <point x="568" y="-143" type="curve" smooth="yes"/>
      <point x="630" y="-143"/>
      <point x="685" y="-111"/>
      <point x="697" y="-53" type="curve" smooth="yes"/>
      <point x="703" y="-26"/>
      <point x="698" y="0"/>
      <point x="682" y="29" type="curve"/>
      <point x="654" y="24"/>
      <point x="627" y="17"/>
      <point x="579" y="17" type="curve" smooth="yes"/>
      <point x="490" y="17"/>
      <point x="438" y="43"/>
      <point x="411" y="144" type="curve"/>
      <point x="654" y="159"/>
      <point x="827" y="270"/>
      <point x="857" y="410" type="curve" smooth="yes"/>
      <point x="882" y="532"/>
      <point x="813" y="721"/>
      <point x="653" y="721" type="curve" smooth="yes"/>
      <point x="595" y="721"/>
      <point x="453" y="690"/>
      <point x="385" y="690" type="curve" smooth="yes"/>
      <point x="322" y="690"/>
      <point x="293" y="723"/>
      <point x="304" y="779" type="curve" smooth="yes"/>
      <point x="317" y="839"/>
      <point x="369" y="885"/>
      <point x="467" y="885" type="curve" smooth="yes"/>
      <point x="867" y="885" type="line"/>
      <point x="876" y="893" type="line"/>
      <point x="939" y="1197" type="line"/>
    </contour>
  </outline>
</glyph>
<glyph name="iideva" format="1">
  <advance width="1005.130"/>
  <unicode hex="0908"/>
  <outline>
    <contour>
      <point x="864" y="885" type="line"/>
      <point x="874" y="893" type="line"/>
      <point x="938" y="1197" type="line"/>
      <point x="1192" y="1197" type="line"/>
      <point x="1199" y="1206" type="line"/>
      <point x="1169" y="1330" type="line"/>
      <point x="905" y="1330" type="line"/>
      <point x="858" y="1376"/>
      <point x="830" y="1436"/>
      <point x="830" y="1501" type="curve" smooth="yes"/>
      <point x="830" y="1621"/>
      <point x="916" y="1715"/>
      <point x="1046" y="1715" type="curve" smooth="yes"/>
      <point x="1100" y="1715"/>
      <point x="1160" y="1697"/>
      <point x="1207" y="1648" type="curve"/>
      <point x="1212" y="1658"/>
      <point x="1220" y="1668"/>
      <point x="1220" y="1700" type="curve" smooth="yes"/>
      <point x="1220" y="1781"/>
      <point x="1146" y="1854"/>
      <point x="1026" y="1854" type="curve" smooth="yes"/>
      <point x="843" y="1854"/>
      <point x="702" y="1705"/>
      <point x="702" y="1543" type="curve" smooth="yes"/>
      <point x="702" y="1467"/>
      <point x="731" y="1387"/>
      <point x="779" y="1330" type="curve"/>
      <point x="113" y="1330" type="line"/>
      <point x="106" y="1321" type="line"/>
      <point x="136" y="1197" type="line"/>
      <point x="784" y="1197" type="line"/>
      <point x="749" y="1034" type="line" smooth="yes"/>
      <point x="748" y="1029"/>
      <point x="745" y="1026"/>
      <point x="740" y="1026" type="curve" smooth="yes"/>
      <point x="407" y="1026" type="line" smooth="yes"/>
      <point x="254" y="1026"/>
      <point x="178" y="945"/>
      <point x="178" y="841" type="curve" smooth="yes"/>
      <point x="178" y="710"/>
      <point x="289" y="532"/>
      <point x="452" y="532" type="curve" smooth="yes"/>
      <point x="511" y="532"/>
      <point x="673" y="554"/>
      <point x="710" y="554" type="curve" smooth="yes"/>
      <point x="748" y="554"/>
      <point x="765" y="528"/>
      <point x="765" y="497" type="curve" smooth="yes"/>
      <point x="765" y="395"/>
      <point x="602" y="310"/>
      <point x="370" y="311" type="curve"/>
      <point x="348" y="396"/>
      <point x="312" y="447"/>
      <point x="244" y="447" type="curve" smooth="yes"/>
      <point x="184" y="447"/>
      <point x="108" y="409"/>
      <point x="108" y="317" type="curve" smooth="yes"/>
      <point x="108" y="235"/>
      <point x="180" y="162"/>
      <point x="319" y="150" type="curve"/>
      <point x="347" y="-61"/>
      <point x="447" y="-143"/>
      <point x="552" y="-143" type="curve" smooth="yes"/>
      <point x="634" y="-143"/>
      <point x="702" y="-97"/>
      <point x="702" y="-22" type="curve" smooth="yes"/>
      <point x="702" y="-6"/>
      <point x="699" y="15"/>
      <point x="693" y="33" type="curve"/>
      <point x="661" y="23"/>
      <point x="634" y="17"/>
      <point x="592" y="17" type="curve" smooth="yes"/>
      <point x="499" y="17"/>
      <point x="445" y="47"/>
      <point x="411" y="142" type="curve"/>
      <point x="417" y="149" type="line"/>
      <point x="677" y="165"/>
      <point x="866" y="292"/>
      <point x="866" y="474" type="curve" smooth="yes"/>
      <point x="866" y="588"/>
      <point x="798" y="721"/>
      <point x="667" y="721" type="curve" smooth="yes"/>
      <point x="601" y="721"/>
      <point x="459" y="690"/>
      <point x="397" y="690" type="curve" smooth="yes"/>
      <point x="338" y="690"/>
      <point x="304" y="721"/>
      <point x="304" y="770" type="curve" smooth="yes"/>
      <point x="304" y="832"/>
      <point x="342" y="885"/>
      <point x="459" y="885" type="curve" smooth="yes"/>
    </contour>
  </outline>
</glyph>
<glyph name="udeva" format="1">
  <advance width="1118.130"/>
  <unicode hex="0909"/>
  <outline>
    <contour>
      <point x="1304" y="1197" type="line"/>
      <point x="1312" y="1206" type="line"/>
      <point x="1282" y="1330" type="line"/>
      <point x="114" y="1330" type="line"/>
      <point x="106" y="1321" type="line"/>
      <point x="136" y="1197" type="line"/>
      <point x="750" y="1197" type="line" smooth="yes"/>
      <point x="853" y="1197"/>
      <point x="896" y="1128"/>
      <point x="896" y="1060" type="curve" smooth="yes"/>
      <point x="896" y="921"/>
      <point x="739" y="830"/>
      <point x="474" y="828" type="curve"/>
      <point x="466" y="819" type="line"/>
      <point x="499" y="655" type="line"/>
      <point x="586" y="655"/>
      <point x="665" y="666"/>
      <point x="732" y="687" type="curve"/>
      <point x="807" y="656"/>
      <point x="856" y="592"/>
      <point x="856" y="504" type="curve" smooth="yes"/>
      <point x="856" y="344"/>
      <point x="715" y="232"/>
      <point x="544" y="232" type="curve" smooth="yes"/>
      <point x="329" y="232"/>
      <point x="190" y="421"/>
      <point x="210" y="806" type="curve"/>
      <point x="121" y="798"/>
      <point x="104" y="738"/>
      <point x="104" y="633" type="curve" smooth="yes"/>
      <point x="104" y="435"/>
      <point x="213" y="70"/>
      <point x="553" y="70" type="curve" smooth="yes"/>
      <point x="806" y="70"/>
      <point x="983" y="247"/>
      <point x="983" y="458" type="curve" smooth="yes"/>
      <point x="983" y="566"/>
      <point x="936" y="670"/>
      <point x="859" y="736" type="curve"/>
      <point x="861" y="744" type="line"/>
      <point x="968" y="813"/>
      <point x="1021" y="900"/>
      <point x="1021" y="1002" type="curve" smooth="yes"/>
      <point x="1021" y="1061"/>
      <point x="1003" y="1129"/>
      <point x="966" y="1187" type="curve"/>
      <point x="972" y="1197" type="line"/>
    </contour>
  </outline>
</glyph>
<glyph name="uudeva" format="1">
  <advance width="1481"/>
  <unicode hex="090A"/>
  <outline>
    <contour>
      <point x="935" y="1197" type="line"/>
      <point x="1671" y="1197" type="line"/>
      <point x="1675" y="1206" type="line"/>
      <point x="1644" y="1330" type="line"/>
      <point x="112" y="1330" type="line"/>
      <point x="107" y="1321" type="line"/>
      <point x="139" y="1197" type="line"/>
      <point x="718" y="1197" type="line" smooth="yes"/>
      <point x="839" y="1197"/>
      <point x="870" y="1116"/>
      <point x="855" y="1042" type="curve" smooth="yes"/>
      <point x="828" y="914"/>
      <point x="668" y="830"/>
      <point x="427" y="828" type="curve"/>
      <point x="429" y="819" type="line"/>
      <point x="468" y="655" type="line"/>
      <point x="553" y="655"/>
      <point x="630" y="664"/>
      <point x="705" y="687" type="curve"/>
      <point x="788" y="652"/>
      <point x="836" y="580"/>
      <point x="813" y="474" type="curve" smooth="yes"/>
      <point x="783" y="329"/>
      <point x="646" y="232"/>
      <point x="490" y="232" type="curve" smooth="yes"/>
      <point x="281" y="232"/>
      <point x="158" y="416"/>
      <point x="161" y="801" type="curve"/>
      <point x="114" y="801"/>
      <point x="97" y="776"/>
      <point x="85" y="721" type="curve" smooth="yes"/>
      <point x="46" y="533"/>
      <point x="126" y="62"/>
      <point x="525" y="62" type="curve" smooth="yes"/>
      <point x="737" y="62"/>
      <point x="893" y="200"/>
      <point x="932" y="382" type="curve" smooth="yes"/>
      <point x="944" y="440"/>
      <point x="942" y="491"/>
      <point x="935" y="533" type="curve"/>
      <point x="1041" y="645"/>
      <point x="1128" y="703"/>
      <point x="1207" y="703" type="curve" smooth="yes"/>
      <point x="1287" y="703"/>
      <point x="1317" y="635"/>
      <point x="1295" y="531" type="curve" smooth="yes"/>
      <point x="1266" y="392"/>
      <point x="1155" y="271"/>
      <point x="1026" y="220" type="curve"/>
      <point x="1050" y="160"/>
      <point x="1100" y="116"/>
      <point x="1170" y="116" type="curve" smooth="yes"/>
      <point x="1278" y="116"/>
      <point x="1377" y="250"/>
      <point x="1408" y="397" type="curve" smooth="yes"/>
      <point x="1457" y="629"/>
      <point x="1333" y="829"/>
      <point x="1145" y="829" type="curve" smooth="yes"/>
      <point x="1061" y="829"/>
      <point x="983" y="786"/>
      <point x="862" y="682" type="curve"/>
      <point x="849" y="699"/>
      <point x="830" y="719"/>
      <point x="813" y="734" type="curve"/>
      <point x="908" y="792"/>
      <point x="956" y="863"/>
      <point x="973" y="942" type="curve" smooth="yes"/>
      <point x="990" y="1024"/>
      <point x="972" y="1105"/>
      <point x="922" y="1183" type="curve"/>
    </contour>
  </outline>
</glyph>
<glyph name="rvocalicdeva" format="1">
  <advance width="1711.130"/>
  <unicode hex="090B"/>
  <outline>
    <contour>
      <point x="1897" y="1197" type="line"/>
      <point x="1905" y="1206" type="line"/>
      <point x="1875" y="1330" type="line"/>
      <point x="114" y="1330" type="line"/>
      <point x="106" y="1321" type="line"/>
      <point x="136" y="1197" type="line"/>
      <point x="930" y="1197" type="line"/>
      <point x="841" y="773" type="line"/>
      <point x="830" y="769" type="line"/>
      <point x="603" y="972"/>
      <point x="527" y="1019"/>
      <point x="420" y="1019" type="curve" smooth="yes"/>
      <point x="262" y="1019"/>
      <point x="157" y="919"/>
      <point x="157" y="843" type="curve" smooth="yes"/>
      <point x="157" y="801"/>
      <point x="183" y="759"/>
      <point x="231" y="725" type="curve"/>
      <point x="308" y="823"/>
      <point x="387" y="879"/>
      <point x="461" y="879" type="curve" smooth="yes"/>
      <point x="533" y="879"/>
      <point x="611" y="824"/>
      <point x="764" y="691" type="curve"/>
      <point x="762" y="682" type="line"/>
      <point x="545" y="559"/>
      <point x="349" y="426"/>
      <point x="166" y="288" type="curve"/>
      <point x="164" y="276" type="line"/>
      <point x="261" y="158" type="line"/>
      <point x="422" y="282"/>
      <point x="594" y="403"/>
      <point x="777" y="517" type="curve"/>
      <point x="786" y="512" type="line"/>
      <point x="683" y="19" type="line"/>
      <point x="826" y="-19" type="line"/>
      <point x="836" y="-12" type="line"/>
      <point x="958" y="567" type="line"/>
      <point x="1103" y="573"/>
      <point x="1245" y="617"/>
      <point x="1354" y="678" type="curve"/>
      <point x="1417" y="556"/>
      <point x="1435" y="489"/>
      <point x="1435" y="448" type="curve" smooth="yes"/>
      <point x="1435" y="330"/>
      <point x="1304" y="270"/>
      <point x="1182" y="270" type="curve"/>
      <point x="1174" y="188"/>
      <point x="1219" y="136"/>
      <point x="1299" y="136" type="curve" smooth="yes"/>
      <point x="1419" y="136"/>
      <point x="1554" y="243"/>
      <point x="1554" y="408" type="curve" smooth="yes"/>
      <point x="1554" y="498"/>
      <point x="1515" y="606"/>
      <point x="1439" y="735" type="curve"/>
      <point x="1509" y="792"/>
      <point x="1551" y="851"/>
      <point x="1551" y="912" type="curve" smooth="yes"/>
      <point x="1551" y="982"/>
      <point x="1501" y="1045"/>
      <point x="1420" y="1045" type="curve" smooth="yes"/>
      <point x="1332" y="1045"/>
      <point x="1270" y="979"/>
      <point x="1270" y="904" type="curve" smooth="yes"/>
      <point x="1270" y="877"/>
      <point x="1277" y="842"/>
      <point x="1290" y="808" type="curve"/>
      <point x="1199" y="753"/>
      <point x="1101" y="722"/>
      <point x="988" y="713" type="curve"/>
      <point x="1090" y="1197" type="line"/>
    </contour>
  </outline>
</glyph>
<glyph name="lvocalicdeva" format="1">
  <advance width="1411.130"/>
  <unicode hex="090C"/>
  <outline>
    <contour>
      <point x="1597" y="1197" type="line"/>
      <point x="1605" y="1206" type="line"/>
      <point x="1575" y="1330" type="line"/>
      <point x="114" y="1330" type="line"/>
      <point x="106" y="1321" type="line"/>
      <point x="136" y="1197" type="line"/>
      <point x="1060" y="1197" type="line"/>
      <point x="998" y="901" type="line"/>
      <point x="919" y="883"/>
      <point x="831" y="836"/>
      <point x="746" y="757" type="curve"/>
      <point x="656" y="880"/>
      <point x="567" y="924"/>
      <point x="462" y="924" type="curve" smooth="yes"/>
      <point x="255" y="924"/>
      <point x="108" y="761"/>
      <point x="108" y="544" type="curve" smooth="yes"/>
      <point x="108" y="265"/>
      <point x="333" y="-8"/>
      <point x="436" y="-8" type="curve" smooth="yes"/>
      <point x="462" y="-8"/>
      <point x="489" y="9"/>
      <point x="503" y="34" type="curve"/>
      <point x="335" y="172"/>
      <point x="256" y="367"/>
      <point x="256" y="512" type="curve" smooth="yes"/>
      <point x="256" y="670"/>
      <point x="363" y="788"/>
      <point x="495" y="788" type="curve" smooth="yes"/>
      <point x="561" y="788"/>
      <point x="622" y="756"/>
      <point x="677" y="686" type="curve"/>
      <point x="637" y="640"/>
      <point x="599" y="585"/>
      <point x="562" y="522" type="curve"/>
      <point x="678" y="438" type="line"/>
      <point x="688" y="441" type="line"/>
      <point x="841" y="684"/>
      <point x="996" y="770"/>
      <point x="1101" y="771" type="curve" smooth="yes"/>
      <point x="1171" y="772"/>
      <point x="1219" y="732"/>
      <point x="1219" y="658" type="curve" smooth="yes"/>
      <point x="1219" y="554"/>
      <point x="1144" y="472"/>
      <point x="993" y="333" type="curve" smooth="yes"/>
      <point x="908" y="254"/>
      <point x="770" y="137"/>
      <point x="770" y="31" type="curve" smooth="yes"/>
      <point x="770" y="-75"/>
      <point x="878" y="-190"/>
      <point x="1026" y="-190" type="curve" smooth="yes"/>
      <point x="1165" y="-190"/>
      <point x="1297" y="-97"/>
      <point x="1297" y="-10" type="curve" smooth="yes"/>
      <point x="1297" y="36"/>
      <point x="1265" y="75"/>
      <point x="1234" y="87" type="curve"/>
      <point x="1158" y="-16"/>
      <point x="1032" y="-64"/>
      <point x="957" y="-64" type="curve" smooth="yes"/>
      <point x="915" y="-64"/>
      <point x="888" y="-48"/>
      <point x="888" y="-15" type="curve" smooth="yes"/>
      <point x="888" y="59"/>
      <point x="1011" y="144"/>
      <point x="1141" y="271" type="curve" smooth="yes"/>
      <point x="1260" y="388"/>
      <point x="1327" y="452"/>
      <point x="1327" y="611" type="curve" smooth="yes"/>
      <point x="1327" y="751"/>
      <point x="1255" y="862"/>
      <point x="1147" y="897" type="curve"/>
      <point x="1210" y="1197" type="line"/>
    </contour>
  </outline>
</glyph>
<glyph name="ecandradeva" format="1">
  <advance width="1126"/>
  <unicode hex="090D"/>
  <outline>
    <contour>
      <point x="493" y="1873"/>
      <point x="481" y="1858"/>
      <point x="475" y="1828" type="curve" smooth="yes"/>
      <point x="444" y="1685"/>
      <point x="545" y="1486"/>
      <point x="756" y="1486" type="curve" smooth="yes"/>
      <point x="914" y="1486"/>
      <point x="1057" y="1603"/>
      <point x="1088" y="1751" type="curve" smooth="yes"/>
      <point x="1102" y="1818"/>
      <point x="1074" y="1863"/>
      <point x="1016" y="1890" type="curve"/>
      <point x="961" y="1705"/>
      <point x="843" y="1619"/>
      <point x="720" y="1619" type="curve" smooth="yes"/>
      <point x="616" y="1619"/>
      <point x="544" y="1684"/>
      <point x="518" y="1880" type="curve"/>
    </contour>
    <contour>
      <point x="1316" y="1197" type="line"/>
      <point x="1320" y="1206" type="line"/>
      <point x="1289" y="1330" type="line"/>
      <point x="112" y="1330" type="line"/>
      <point x="107" y="1321" type="line"/>
      <point x="139" y="1197" type="line"/>
      <point x="260" y="1197" type="line"/>
      <point x="174" y="793" type="line" smooth="yes"/>
      <point x="119" y="532"/>
      <point x="262" y="456"/>
      <point x="639" y="270" type="curve" smooth="yes"/>
      <point x="817" y="178"/>
      <point x="826" y="155"/>
      <point x="816" y="106" type="curve" smooth="yes"/>
      <point x="803" y="45"/>
      <point x="744" y="-12"/>
      <point x="650" y="-52" type="curve"/>
      <point x="675" y="-101"/>
      <point x="719" y="-134"/>
      <point x="784" y="-134" type="curve" smooth="yes"/>
      <point x="864" y="-134"/>
      <point x="934" y="-79"/>
      <point x="956" y="28" type="curve" smooth="yes"/>
      <point x="980" y="140"/>
      <point x="920" y="241"/>
      <point x="598" y="397" type="curve" smooth="yes"/>
      <point x="371" y="521"/>
      <point x="281" y="540"/>
      <point x="307" y="665" type="curve" smooth="yes"/>
      <point x="421" y="1197" type="line"/>
      <point x="885" y="1197" type="line"/>
      <point x="798" y="787" type="line" smooth="yes"/>
      <point x="783" y="717"/>
      <point x="727" y="651"/>
      <point x="655" y="627" type="curve"/>
      <point x="694" y="580"/>
      <point x="737" y="544"/>
      <point x="797" y="544" type="curve" smooth="yes"/>
      <point x="866" y="544"/>
      <point x="919" y="601"/>
      <point x="940" y="701" type="curve" smooth="yes"/>
      <point x="1045" y="1197" type="line"/>
    </contour>
  </outline>
</glyph>
<glyph name="eshortdeva" format="1">
  <advance width="1126"/>
  <unicode hex="090E"/>
  <outline>
    <contour>
      <point x="694" y="580"/>
      <point x="737" y="544"/>
      <point x="797" y="544" type="curve" smooth="yes"/>
      <point x="866" y="544"/>
      <point x="919" y="601"/>
      <point x="940" y="701" type="curve" smooth="yes"/>
      <point x="1045" y="1197" type="line"/>
      <point x="1316" y="1197" type="line"/>
      <point x="1320" y="1206" type="line"/>
      <point x="1289" y="1330" type="line"/>
      <point x="1057" y="1325" type="line"/>
      <point x="1064" y="1598"/>
      <point x="919" y="1701"/>
      <point x="605" y="1730" type="curve" smooth="yes"/>
      <point x="353" y="1759"/>
      <point x="281" y="1813"/>
      <point x="229" y="1956" type="curve"/>
      <point x="217" y="1939"/>
      <point x="208" y="1918"/>
      <point x="203" y="1891" type="curve" smooth="yes"/>
      <point x="170" y="1735"/>
      <point x="294" y="1602"/>
      <point x="701" y="1558" type="curve" smooth="yes"/>
      <point x="921" y="1536"/>
      <point x="976" y="1517"/>
      <point x="956" y="1424" type="curve" smooth="yes"/>
      <point x="951" y="1398"/>
      <point x="936" y="1367"/>
      <point x="918" y="1335" type="curve"/>
      <point x="112" y="1330" type="line"/>
      <point x="107" y="1321" type="line"/>
      <point x="139" y="1197" type="line"/>
      <point x="260" y="1197" type="line"/>
      <point x="174" y="793" type="line" smooth="yes"/>
      <point x="119" y="532"/>
      <point x="262" y="456"/>
      <point x="639" y="270" type="curve" smooth="yes"/>
      <point x="817" y="178"/>
      <point x="826" y="155"/>
      <point x="816" y="106" type="curve" smooth="yes"/>
      <point x="803" y="45"/>
      <point x="744" y="-12"/>
      <point x="650" y="-52" type="curve"/>
      <point x="675" y="-101"/>
      <point x="719" y="-134"/>
      <point x="784" y="-134" type="curve" smooth="yes"/>
      <point x="864" y="-134"/>
      <point x="934" y="-79"/>
      <point x="956" y="28" type="curve" smooth="yes"/>
      <point x="980" y="140"/>
      <point x="920" y="241"/>
      <point x="598" y="397" type="curve" smooth="yes"/>
      <point x="371" y="521"/>
      <point x="281" y="540"/>
      <point x="307" y="665" type="curve" smooth="yes"/>
      <point x="421" y="1197" type="line"/>
      <point x="885" y="1197" type="line"/>
      <point x="798" y="787" type="line" smooth="yes"/>
      <point x="783" y="717"/>
      <point x="727" y="651"/>
      <point x="655" y="627" type="curve"/>
    </contour>
  </outline>
</glyph>
<glyph name="aideva" format="1">
  <advance width="1126"/>
  <unicode hex="0910"/>
  <outline>
    <contour>
      <point x="694" y="580"/>
      <point x="737" y="544"/>
      <point x="797" y="544" type="curve" smooth="yes"/>
      <point x="866" y="544"/>
      <point x="919" y="601"/>
      <point x="940" y="701" type="curve" smooth="yes"/>
      <point x="1045" y="1197" type="line"/>
      <point x="1316" y="1197" type="line"/>
      <point x="1320" y="1206" type="line"/>
      <point x="1289" y="1330" type="line"/>
      <point x="1039" y="1326" type="line"/>
      <point x="747" y="1857"/>
      <point x="604" y="1932"/>
      <point x="471" y="1932" type="curve" smooth="yes"/>
      <point x="350" y="1932"/>
      <point x="288" y="1867"/>
      <point x="274" y="1804" type="curve" smooth="yes"/>
      <point x="261" y="1741"/>
      <point x="297" y="1682"/>
      <point x="371" y="1654" type="curve"/>
      <point x="405" y="1707"/>
      <point x="468" y="1751"/>
      <point x="549" y="1751" type="curve" smooth="yes"/>
      <point x="646" y="1751"/>
      <point x="721" y="1693"/>
      <point x="931" y="1334" type="curve"/>
      <point x="112" y="1330" type="line"/>
      <point x="107" y="1321" type="line"/>
      <point x="139" y="1197" type="line"/>
      <point x="260" y="1197" type="line"/>
      <point x="174" y="793" type="line" smooth="yes"/>
      <point x="119" y="532"/>
      <point x="262" y="456"/>
      <point x="639" y="270" type="curve" smooth="yes"/>
      <point x="817" y="178"/>
      <point x="826" y="155"/>
      <point x="816" y="106" type="curve" smooth="yes"/>
      <point x="803" y="45"/>
      <point x="744" y="-12"/>
      <point x="650" y="-52" type="curve"/>
      <point x="675" y="-101"/>
      <point x="719" y="-134"/>
      <point x="784" y="-134" type="curve" smooth="yes"/>
      <point x="864" y="-134"/>
      <point x="934" y="-79"/>
      <point x="956" y="28" type="curve" smooth="yes"/>
      <point x="980" y="140"/>
      <point x="920" y="241"/>
      <point x="598" y="397" type="curve" smooth="yes"/>
      <point x="371" y="521"/>
      <point x="281" y="540"/>
      <point x="307" y="665" type="curve" smooth="yes"/>
      <point x="421" y="1197" type="line"/>
      <point x="885" y="1197" type="line"/>
      <point x="798" y="787" type="line" smooth="yes"/>
      <point x="783" y="717"/>
      <point x="727" y="651"/>
      <point x="655" y="627" type="curve"/>
    </contour>
  </outline>
</glyph>
<glyph name="ocandradeva" format="1">
  <advance width="2033"/>
  <unicode hex="0911"/>
  <outline>
    <contour>
      <point x="1466" y="1873"/>
      <point x="1454" y="1858"/>
      <point x="1448" y="1828" type="curve" smooth="yes"/>
      <point x="1417" y="1685"/>
      <point x="1518" y="1486"/>
      <point x="1729" y="1486" type="curve" smooth="yes"/>
      <point x="1887" y="1486"/>
      <point x="2030" y="1603"/>
      <point x="2061" y="1751" type="curve" smooth="yes"/>
      <point x="2075" y="1818"/>
      <point x="2047" y="1863"/>
      <point x="1989" y="1890" type="curve"/>
      <point x="1934" y="1705"/>
      <point x="1816" y="1619"/>
      <point x="1693" y="1619" type="curve" smooth="yes"/>
      <point x="1589" y="1619"/>
      <point x="1517" y="1684"/>
      <point x="1491" y="1880" type="curve"/>
    </contour>
    <contour>
      <point x="2223" y="1197" type="line"/>
      <point x="2227" y="1206" type="line"/>
      <point x="2196" y="1330" type="line"/>
      <point x="1131" y="1330" type="line"/>
      <point x="1126" y="1321" type="line"/>
      <point x="1158" y="1197" type="line"/>
      <point x="1319" y="1197" type="line"/>
      <point x="1259" y="913" type="line" smooth="yes"/>
      <point x="1230" y="776"/>
      <point x="1108" y="696"/>
      <point x="975" y="696" type="curve" smooth="yes"/>
      <point x="929" y="696"/>
      <point x="874" y="707"/>
      <point x="823" y="733" type="curve"/>
      <point x="836" y="743" type="line"/>
      <point x="916" y="799"/>
      <point x="960" y="873"/>
      <point x="979" y="962" type="curve" smooth="yes"/>
      <point x="1024" y="1175"/>
      <point x="883" y="1335"/>
      <point x="634" y="1335" type="curve" smooth="yes"/>
      <point x="444" y="1335"/>
      <point x="323" y="1240"/>
      <point x="303" y="1148" type="curve" smooth="yes"/>
      <point x="287" y="1071"/>
      <point x="339" y="1017"/>
      <point x="426" y="1011" type="curve"/>
      <point x="445" y="1129"/>
      <point x="556" y="1224"/>
      <point x="702" y="1224" type="curve" smooth="yes"/>
      <point x="814" y="1224"/>
      <point x="876" y="1167"/>
      <point x="852" y="1050" type="curve" smooth="yes"/>
      <point x="821" y="904"/>
      <point x="686" y="812"/>
      <point x="434" y="799" type="curve"/>
      <point x="436" y="789" type="line"/>
      <point x="489" y="631" type="line"/>
      <point x="574" y="641"/>
      <point x="649" y="657"/>
      <point x="719" y="683" type="curve"/>
      <point x="794" y="645"/>
      <point x="829" y="560"/>
      <point x="807" y="454" type="curve" smooth="yes"/>
      <point x="780" y="325"/>
      <point x="655" y="224"/>
      <point x="497" y="224" type="curve" smooth="yes"/>
      <point x="304" y="224"/>
      <point x="180" y="380"/>
      <point x="188" y="750" type="curve"/>
      <point x="149" y="752"/>
      <point x="130" y="740"/>
      <point x="117" y="677" type="curve" smooth="yes"/>
      <point x="79" y="495"/>
      <point x="152" y="62"/>
      <point x="537" y="62" type="curve" smooth="yes"/>
      <point x="734" y="62"/>
      <point x="887" y="192"/>
      <point x="925" y="372" type="curve" smooth="yes"/>
      <point x="942" y="454"/>
      <point x="932" y="526"/>
      <point x="908" y="588" type="curve"/>
      <point x="929" y="602" type="line"/>
      <point x="968" y="584"/>
      <point x="1014" y="573"/>
      <point x="1065" y="573" type="curve" smooth="yes"/>
      <point x="1102" y="573"/>
      <point x="1146" y="580"/>
      <point x="1190" y="599" type="curve"/>
      <point x="1195" y="595" type="line"/>
      <point x="1070" y="19" type="line"/>
      <point x="1215" y="-19" type="line"/>
      <point x="1226" y="-12" type="line"/>
      <point x="1479" y="1197" type="line"/>
      <point x="1802" y="1197" type="line"/>
      <point x="1553" y="19" type="line"/>
      <point x="1698" y="-19" type="line"/>
      <point x="1709" y="-12" type="line"/>
      <point x="1962" y="1197" type="line"/>
    </contour>
  </outline>
</glyph>
<glyph name="audeva" format="1">
  <advance width="2033"/>
  <unicode hex="0914"/>
  <outline>
    <contour>
      <point x="2223" y="1197" type="line"/>
      <point x="2227" y="1206" type="line"/>
      <point x="2196" y="1330" type="line"/>
      <point x="1972" y="1325" type="line"/>
      <point x="1923" y="1932"/>
      <point x="1793" y="2032"/>
      <point x="1664" y="2032" type="curve" smooth="yes"/>
      <point x="1573" y="2032"/>
      <point x="1519" y="1979"/>
      <point x="1508" y="1924" type="curve" smooth="yes"/>
      <point x="1495" y="1865"/>
      <point x="1534" y="1824"/>
      <point x="1583" y="1798" type="curve"/>
      <point x="1609" y="1832"/>
      <point x="1658" y="1864"/>
      <point x="1708" y="1864" type="curve" smooth="yes"/>
      <point x="1773" y="1864"/>
      <point x="1818" y="1826"/>
      <point x="1862" y="1439" type="curve"/>
      <point x="1690" y="1607"/>
      <point x="1483" y="1742"/>
      <point x="1339" y="1742" type="curve" smooth="yes"/>
      <point x="1262" y="1742"/>
      <point x="1186" y="1699"/>
      <point x="1172" y="1630" type="curve" smooth="yes"/>
      <point x="1159" y="1570"/>
      <point x="1192" y="1513"/>
      <point x="1266" y="1484" type="curve"/>
      <point x="1298" y="1543"/>
      <point x="1360" y="1587"/>
      <point x="1436" y="1587" type="curve" smooth="yes"/>
      <point x="1527" y="1587"/>
      <point x="1694" y="1496"/>
      <point x="1838" y="1334" type="curve"/>
      <point x="1131" y="1330" type="line"/>
      <point x="1126" y="1321" type="line"/>
      <point x="1158" y="1197" type="line"/>
      <point x="1319" y="1197" type="line"/>
      <point x="1259" y="913" type="line" smooth="yes"/>
      <point x="1230" y="776"/>
      <point x="1108" y="696"/>
      <point x="975" y="696" type="curve" smooth="yes"/>
      <point x="929" y="696"/>
      <point x="874" y="707"/>
      <point x="823" y="733" type="curve"/>
      <point x="836" y="743" type="line"/>
      <point x="916" y="799"/>
      <point x="960" y="873"/>
      <point x="979" y="962" type="curve" smooth="yes"/>
      <point x="1024" y="1175"/>
      <point x="883" y="1335"/>
      <point x="634" y="1335" type="curve" smooth="yes"/>
      <point x="444" y="1335"/>
      <point x="323" y="1240"/>
      <point x="303" y="1148" type="curve" smooth="yes"/>
      <point x="287" y="1071"/>
      <point x="339" y="1017"/>
      <point x="426" y="1011" type="curve"/>
      <point x="445" y="1129"/>
      <point x="556" y="1224"/>
      <point x="702" y="1224" type="curve" smooth="yes"/>
      <point x="814" y="1224"/>
      <point x="876" y="1167"/>
      <point x="852" y="1050" type="curve" smooth="yes"/>
      <point x="821" y="904"/>
      <point x="686" y="812"/>
      <point x="434" y="799" type="curve"/>
      <point x="436" y="789" type="line"/>
      <point x="489" y="631" type="line"/>
      <point x="574" y="641"/>
      <point x="649" y="657"/>
      <point x="719" y="683" type="curve"/>
      <point x="794" y="645"/>
      <point x="829" y="560"/>
      <point x="807" y="454" type="curve" smooth="yes"/>
      <point x="780" y="325"/>
      <point x="655" y="224"/>
      <point x="497" y="224" type="curve" smooth="yes"/>
      <point x="304" y="224"/>
      <point x="180" y="380"/>
      <point x="188" y="750" type="curve"/>
      <point x="149" y="752"/>
      <point x="130" y="740"/>
      <point x="117" y="677" type="curve" smooth="yes"/>
      <point x="79" y="495"/>
      <point x="152" y="62"/>
      <point x="537" y="62" type="curve" smooth="yes"/>
      <point x="734" y="62"/>
      <point x="887" y="192"/>
      <point x="925" y="372" type="curve" smooth="yes"/>
      <point x="942" y="454"/>
      <point x="932" y="526"/>
      <point x="908" y="588" type="curve"/>
      <point x="929" y="602" type="line"/>
      <point x="968" y="584"/>
      <point x="1014" y="573"/>
      <point x="1065" y="573" type="curve" smooth="yes"/>
      <point x="1102" y="573"/>
      <point x="1146" y="580"/>
      <point x="1190" y="599" type="curve"/>
      <point x="1195" y="595" type="line"/>
      <point x="1070" y="19" type="line"/>
      <point x="1215" y="-19" type="line"/>
      <point x="1226" y="-12" type="line"/>
      <point x="1479" y="1197" type="line"/>
      <point x="1802" y="1197" type="line"/>
      <point x="1553" y="19" type="line"/>
      <point x="1698" y="-19" type="line"/>
      <point x="1709" y="-12" type="line"/>
      <point x="1962" y="1197" type="line"/>
    </contour>
  </outline>
</glyph>
<glyph name="khadeva" format="1">
  <advance width="1566.130"/>
  <unicode hex="0916"/>
  <outline>
    <contour>
      <point x="1752" y="1197" type="line"/>
      <point x="1760" y="1206" type="line"/>
      <point x="1730" y="1330" type="line"/>
      <point x="114" y="1330" type="line"/>
      <point x="106" y="1321" type="line"/>
      <point x="136" y="1197" type="line"/>
      <point x="459" y="1197" type="line"/>
      <point x="470" y="1148"/>
      <point x="474" y="1074"/>
      <point x="474" y="1028" type="curve" smooth="yes"/>
      <point x="474" y="844"/>
      <point x="422" y="791"/>
      <point x="383" y="751" type="curve"/>
      <point x="342" y="769"/>
      <point x="299" y="779"/>
      <point x="259" y="779" type="curve" smooth="yes"/>
      <point x="158" y="779"/>
      <point x="96" y="719"/>
      <point x="96" y="614" type="curve" smooth="yes"/>
      <point x="96" y="368"/>
      <point x="447" y="-4"/>
      <point x="715" y="-4" type="curve" smooth="yes"/>
      <point x="788" y="-4"/>
      <point x="836" y="23"/>
      <point x="866" y="86" type="curve"/>
      <point x="566" y="131"/>
      <point x="362" y="269"/>
      <point x="249" y="483" type="curve"/>
      <point x="253" y="491" type="line"/>
      <point x="520" y="566"/>
      <point x="590" y="761"/>
      <point x="590" y="941" type="curve" smooth="yes"/>
      <point x="590" y="1019"/>
      <point x="578" y="1115"/>
      <point x="561" y="1188" type="curve"/>
      <point x="568" y="1197" type="line"/>
      <point x="1334" y="1197" type="line"/>
      <point x="1263" y="859" type="line"/>
      <point x="1253" y="855" type="line"/>
      <point x="1198" y="941"/>
      <point x="1110" y="986"/>
      <point x="1006" y="986" type="curve" smooth="yes"/>
      <point x="819" y="986"/>
      <point x="667" y="845"/>
      <point x="667" y="662" type="curve" smooth="yes"/>
      <point x="667" y="473"/>
      <point x="828" y="316"/>
      <point x="998" y="316" type="curve" smooth="yes"/>
      <point x="1048" y="316"/>
      <point x="1097" y="329"/>
      <point x="1148" y="357" type="curve"/>
      <point x="1157" y="352" type="line"/>
      <point x="1087" y="19" type="line"/>
      <point x="1230" y="-19" type="line"/>
      <point x="1241" y="-12" type="line"/>
      <point x="1494" y="1197" type="line"/>
    </contour>
    <contour>
      <point x="1174" y="850"/>
      <point x="1240" y="748"/>
      <point x="1220" y="651" type="curve" smooth="yes"/>
      <point x="1212" y="615" type="line" smooth="yes"/>
      <point x="1192" y="520"/>
      <point x="1081" y="438"/>
      <point x="967" y="438" type="curve" smooth="yes"/>
      <point x="871" y="438"/>
      <point x="793" y="500"/>
      <point x="793" y="606" type="curve" smooth="yes"/>
      <point x="793" y="735"/>
      <point x="899" y="850"/>
      <point x="1043" y="850" type="curve" smooth="yes"/>
    </contour>
  </outline>
</glyph>
<glyph name="gadeva" format="1">
  <advance width="1241.130"/>
  <unicode hex="0917"/>
  <outline>
    <contour>
      <point x="1427" y="1197" type="line"/>
      <point x="1435" y="1206" type="line"/>
      <point x="1405" y="1330" type="line"/>
      <point x="114" y="1330" type="line"/>
      <point x="106" y="1321" type="line"/>
      <point x="136" y="1197" type="line"/>
      <point x="420" y="1197" type="line"/>
      <point x="309" y="666" type="line"/>
      <point x="194" y="666" type="line" smooth="yes"/>
      <point x="130" y="666"/>
      <point x="102" y="633"/>
      <point x="102" y="598" type="curve" smooth="yes"/>
      <point x="102" y="520"/>
      <point x="213" y="363"/>
      <point x="311" y="363" type="curve" smooth="yes"/>
      <point x="370" y="363"/>
      <point x="411" y="416"/>
      <point x="434" y="524" type="curve" smooth="yes"/>
      <point x="575" y="1197" type="line"/>
      <point x="1010" y="1197" type="line"/>
      <point x="763" y="19" type="line"/>
      <point x="906" y="-19" type="line"/>
      <point x="917" y="-12" type="line"/>
      <point x="1170" y="1197" type="line"/>
    </contour>
  </outline>
</glyph>
<glyph name="ghadeva" format="1">
  <advance width="1261"/>
  <unicode hex="0918"/>
  <outline>
    <contour>
      <point x="1451" y="1197" type="line"/>
      <point x="1455" y="1206" type="line"/>
      <point x="1424" y="1330" type="line"/>
      <point x="112" y="1330" type="line"/>
      <point x="107" y="1321" type="line"/>
      <point x="139" y="1197" type="line"/>
      <point x="266" y="1197" type="line"/>
      <point x="266" y="1192" type="line"/>
      <point x="231" y="1154"/>
      <point x="214" y="1110"/>
      <point x="205" y="1065" type="curve" smooth="yes"/>
      <point x="176" y="930"/>
      <point x="243" y="836"/>
      <point x="367" y="758" type="curve"/>
      <point x="309" y="701"/>
      <point x="278" y="641"/>
      <point x="266" y="584" type="curve" smooth="yes"/>
      <point x="228" y="402"/>
      <point x="371" y="221"/>
      <point x="601" y="221" type="curve" smooth="yes"/>
      <point x="678" y="221"/>
      <point x="761" y="242"/>
      <point x="834" y="281" type="curve"/>
      <point x="838" y="279" type="line"/>
      <point x="782" y="19" type="line"/>
      <point x="927" y="-19" type="line"/>
      <point x="938" y="-12" type="line"/>
      <point x="1191" y="1197" type="line"/>
    </contour>
    <contour>
      <point x="1031" y="1197" type="line"/>
      <point x="908" y="616" type="line" smooth="yes"/>
      <point x="870" y="444"/>
      <point x="658" y="351"/>
      <point x="521" y="351" type="curve" smooth="yes"/>
      <point x="412" y="351"/>
      <point x="362" y="411"/>
      <point x="380" y="496" type="curve" smooth="yes"/>
      <point x="404" y="611"/>
      <point x="540" y="724"/>
      <point x="748" y="776" type="curve"/>
      <point x="744" y="788" type="line"/>
      <point x="655" y="919" type="line"/>
      <point x="569" y="900"/>
      <point x="488" y="863"/>
      <point x="415" y="808" type="curve"/>
      <point x="341" y="858"/>
      <point x="328" y="910"/>
      <point x="341" y="971" type="curve" smooth="yes"/>
      <point x="366" y="1089"/>
      <point x="483" y="1197"/>
      <point x="608" y="1197" type="curve" smooth="yes"/>
    </contour>
  </outline>
</glyph>
<glyph name="ngadeva" format="1">
  <advance width="1191.130"/>
  <unicode hex="0919"/>
  <outline>
    <contour>
      <point x="1378" y="1197" type="line"/>
      <point x="1385" y="1206" type="line"/>
      <point x="1355" y="1330" type="line"/>
      <point x="113" y="1330" type="line"/>
      <point x="106" y="1321" type="line"/>
      <point x="136" y="1197" type="line"/>
      <point x="824" y="1197" type="line"/>
      <point x="789" y="1034" type="line" smooth="yes"/>
      <point x="788" y="1029"/>
      <point x="785" y="1026"/>
      <point x="780" y="1026" type="curve" smooth="yes"/>
      <point x="477" y="1026" type="line" smooth="yes"/>
      <point x="318" y="1026"/>
      <point x="244" y="945"/>
      <point x="244" y="820" type="curve" smooth="yes"/>
      <point x="244" y="669"/>
      <point x="370" y="522"/>
      <point x="518" y="522" type="curve" smooth="yes"/>
      <point x="570" y="522"/>
      <point x="693" y="539"/>
      <point x="733" y="539" type="curve" smooth="yes"/>
      <point x="791" y="539"/>
      <point x="822" y="501"/>
      <point x="822" y="451" type="curve" smooth="yes"/>
      <point x="822" y="339"/>
      <point x="679" y="255"/>
      <point x="533" y="255" type="curve" smooth="yes"/>
      <point x="364" y="255"/>
      <point x="217" y="372"/>
      <point x="147" y="616" type="curve"/>
      <point x="109" y="599"/>
      <point x="87" y="565"/>
      <point x="87" y="520" type="curve" smooth="yes"/>
      <point x="87" y="389"/>
      <point x="240" y="99"/>
      <point x="554" y="99" type="curve" smooth="yes"/>
      <point x="774" y="99"/>
      <point x="919" y="228"/>
      <point x="919" y="429" type="curve" smooth="yes"/>
      <point x="919" y="582"/>
      <point x="822" y="701"/>
      <point x="698" y="701" type="curve" smooth="yes"/>
      <point x="644" y="701"/>
      <point x="530" y="680"/>
      <point x="471" y="680" type="curve" smooth="yes"/>
      <point x="399" y="680"/>
      <point x="363" y="715"/>
      <point x="363" y="766" type="curve" smooth="yes"/>
      <point x="363" y="831"/>
      <point x="400" y="885"/>
      <point x="529" y="885" type="curve" smooth="yes"/>
      <point x="904" y="885" type="line"/>
      <point x="914" y="893" type="line"/>
      <point x="978" y="1197" type="line"/>
    </contour>
    <contour>
      <point x="1012" y="861"/>
      <point x="954" y="809"/>
      <point x="954" y="750" type="curve" smooth="yes"/>
      <point x="954" y="705"/>
      <point x="986" y="670"/>
      <point x="1032" y="670" type="curve" smooth="yes"/>
      <point x="1091" y="670"/>
      <point x="1149" y="722"/>
      <point x="1149" y="782" type="curve" smooth="yes"/>
      <point x="1149" y="826"/>
      <point x="1117" y="861"/>
      <point x="1072" y="861" type="curve" smooth="yes"/>
    </contour>
  </outline>
</glyph>
<glyph name="cadeva" format="1">
  <advance width="1321"/>
  <unicode hex="091A"/>
  <outline>
    <contour>
      <point x="1511" y="1197" type="line"/>
      <point x="1515" y="1206" type="line"/>
      <point x="1484" y="1330" type="line"/>
      <point x="112" y="1330" type="line"/>
      <point x="107" y="1321" type="line"/>
      <point x="139" y="1197" type="line"/>
      <point x="1091" y="1197" type="line"/>
      <point x="979" y="666" type="line" smooth="yes"/>
      <point x="947" y="514"/>
      <point x="761" y="373"/>
      <point x="582" y="373" type="curve" smooth="yes"/>
      <point x="453" y="373"/>
      <point x="390" y="450"/>
      <point x="412" y="554" type="curve" smooth="yes"/>
      <point x="441" y="693"/>
      <point x="606" y="830"/>
      <point x="807" y="830" type="curve" smooth="yes"/>
      <point x="858" y="830" type="line"/>
      <point x="863" y="839" type="line"/>
      <point x="831" y="963" type="line"/>
      <point x="152" y="963" type="line"/>
      <point x="147" y="954" type="line"/>
      <point x="179" y="830" type="line"/>
      <point x="406" y="830" type="line"/>
      <point x="404" y="824" type="line"/>
      <point x="347" y="769"/>
      <point x="311" y="703"/>
      <point x="298" y="638" type="curve" smooth="yes"/>
      <point x="258" y="447"/>
      <point x="407" y="251"/>
      <point x="648" y="251" type="curve" smooth="yes"/>
      <point x="729" y="251"/>
      <point x="820" y="274"/>
      <point x="901" y="323" type="curve"/>
      <point x="907" y="321" type="line"/>
      <point x="842" y="19" type="line"/>
      <point x="987" y="-19" type="line"/>
      <point x="998" y="-12" type="line"/>
      <point x="1251" y="1197" type="line"/>
    </contour>
  </outline>
</glyph>
<glyph name="chadeva" format="1">
  <advance width="1371.130"/>
  <unicode hex="091B"/>
  <outline>
    <contour>
      <point x="1198" y="1197" type="line"/>
      <point x="1557" y="1197" type="line"/>
      <point x="1565" y="1206" type="line"/>
      <point x="1535" y="1330" type="line"/>
      <point x="114" y="1330" type="line"/>
      <point x="106" y="1321" type="line"/>
      <point x="136" y="1197" type="line"/>
      <point x="1058" y="1197" type="line"/>
      <point x="1028" y="1055" type="line"/>
      <point x="911" y="1026"/>
      <point x="832" y="930"/>
      <point x="832" y="802" type="curve" smooth="yes"/>
      <point x="832" y="699"/>
      <point x="884" y="574"/>
      <point x="1008" y="458" type="curve"/>
      <point x="881" y="309"/>
      <point x="702" y="197"/>
      <point x="538" y="197" type="curve" smooth="yes"/>
      <point x="432" y="197"/>
      <point x="358" y="248"/>
      <point x="358" y="332" type="curve" smooth="yes"/>
      <point x="358" y="443"/>
      <point x="473" y="553"/>
      <point x="701" y="589" type="curve"/>
      <point x="708" y="599" type="line"/>
      <point x="624" y="728" type="line"/>
      <point x="544" y="720"/>
      <point x="470" y="693"/>
      <point x="410" y="654" type="curve"/>
      <point x="343" y="686"/>
      <point x="311" y="727"/>
      <point x="311" y="776" type="curve" smooth="yes"/>
      <point x="311" y="873"/>
      <point x="399" y="947"/>
      <point x="640" y="947" type="curve"/>
      <point x="617" y="1045"/>
      <point x="572" y="1088"/>
      <point x="479" y="1088" type="curve" smooth="yes"/>
      <point x="322" y="1088"/>
      <point x="176" y="973"/>
      <point x="176" y="818" type="curve" smooth="yes"/>
      <point x="176" y="731"/>
      <point x="223" y="641"/>
      <point x="322" y="587" type="curve"/>
      <point x="322" y="579" type="line"/>
      <point x="270" y="518"/>
      <point x="237" y="454"/>
      <point x="237" y="379" type="curve" smooth="yes"/>
      <point x="237" y="218"/>
      <point x="373" y="61"/>
      <point x="589" y="61" type="curve" smooth="yes"/>
      <point x="944" y="61"/>
      <point x="1297" y="439"/>
      <point x="1297" y="785" type="curve" smooth="yes"/>
      <point x="1297" y="905"/>
      <point x="1253" y="1006"/>
      <point x="1166" y="1042" type="curve"/>
    </contour>
    <contour>
      <point x="1187" y="752"/>
      <point x="1146" y="653"/>
      <point x="1077" y="549" type="curve"/>
      <point x="1068" y="546" type="line"/>
      <point x="996" y="618"/>
      <point x="962" y="694"/>
      <point x="962" y="760" type="curve" smooth="yes"/>
      <point x="962" y="851"/>
      <point x="1035" y="932"/>
      <point x="1116" y="932" type="curve" smooth="yes"/>
      <point x="1162" y="932"/>
      <point x="1187" y="898"/>
      <point x="1187" y="835" type="curve" smooth="yes"/>
    </contour>
  </outline>
</glyph>
<glyph name="jadeva" format="1">
  <advance width="1421.130"/>
  <unicode hex="091C"/>
  <outline>
    <contour>
      <point x="1607" y="1197" type="line"/>
      <point x="1615" y="1206" type="line"/>
      <point x="1585" y="1330" type="line"/>
      <point x="114" y="1330" type="line"/>
      <point x="106" y="1321" type="line"/>
      <point x="136" y="1197" type="line"/>
      <point x="1190" y="1197" type="line"/>
      <point x="1133" y="923" type="line"/>
      <point x="523" y="923" type="line"/>
      <point x="515" y="914" type="line"/>
      <point x="545" y="790" type="line"/>
      <point x="661" y="790"/>
      <point x="715" y="710"/>
      <point x="715" y="619" type="curve" smooth="yes"/>
      <point x="715" y="473"/>
      <point x="597" y="389"/>
      <point x="477" y="389" type="curve" smooth="yes"/>
      <point x="316" y="389"/>
      <point x="221" y="551"/>
      <point x="250" y="923" type="curve"/>
      <point x="187" y="917"/>
      <point x="139" y="891"/>
      <point x="139" y="737" type="curve" smooth="yes"/>
      <point x="139" y="552"/>
      <point x="217" y="227"/>
      <point x="487" y="227" type="curve" smooth="yes"/>
      <point x="678" y="227"/>
      <point x="841" y="364"/>
      <point x="841" y="566" type="curve" smooth="yes"/>
      <point x="841" y="638"/>
      <point x="819" y="721"/>
      <point x="775" y="780" type="curve"/>
      <point x="782" y="790" type="line"/>
      <point x="1105" y="790" type="line"/>
      <point x="943" y="19" type="line"/>
      <point x="1086" y="-19" type="line"/>
      <point x="1096" y="-12" type="line"/>
      <point x="1350" y="1197" type="line"/>
    </contour>
  </outline>
</glyph>
<glyph name="jhadeva" format="1">
  <advance width="1500.130"/>
  <unicode hex="091D"/>
  <outline>
    <contour>
      <point x="1686" y="1197" type="line"/>
      <point x="1694" y="1206" type="line"/>
      <point x="1664" y="1330" type="line"/>
      <point x="114" y="1330" type="line"/>
      <point x="106" y="1321" type="line"/>
      <point x="136" y="1197" type="line"/>
      <point x="754" y="1197" type="line"/>
      <point x="720" y="1034" type="line" smooth="yes"/>
      <point x="719" y="1029"/>
      <point x="715" y="1026"/>
      <point x="710" y="1026" type="curve" smooth="yes"/>
      <point x="407" y="1026" type="line" smooth="yes"/>
      <point x="255" y="1026"/>
      <point x="179" y="945"/>
      <point x="179" y="842" type="curve" smooth="yes"/>
      <point x="179" y="711"/>
      <point x="291" y="540"/>
      <point x="455" y="540" type="curve" smooth="yes"/>
      <point x="511" y="540"/>
      <point x="675" y="559"/>
      <point x="710" y="559" type="curve" smooth="yes"/>
      <point x="750" y="559"/>
      <point x="766" y="532"/>
      <point x="766" y="500" type="curve" smooth="yes"/>
      <point x="766" y="389"/>
      <point x="595" y="310"/>
      <point x="370" y="311" type="curve"/>
      <point x="348" y="396"/>
      <point x="313" y="447"/>
      <point x="245" y="447" type="curve" smooth="yes"/>
      <point x="185" y="447"/>
      <point x="108" y="409"/>
      <point x="108" y="317" type="curve" smooth="yes"/>
      <point x="108" y="235"/>
      <point x="181" y="162"/>
      <point x="319" y="150" type="curve"/>
      <point x="347" y="-61"/>
      <point x="448" y="-143"/>
      <point x="553" y="-143" type="curve" smooth="yes"/>
      <point x="634" y="-143"/>
      <point x="703" y="-97"/>
      <point x="703" y="-22" type="curve" smooth="yes"/>
      <point x="703" y="-6"/>
      <point x="700" y="15"/>
      <point x="694" y="33" type="curve"/>
      <point x="662" y="23"/>
      <point x="634" y="17"/>
      <point x="592" y="17" type="curve" smooth="yes"/>
      <point x="499" y="17"/>
      <point x="446" y="47"/>
      <point x="412" y="142" type="curve"/>
      <point x="417" y="149" type="line"/>
      <point x="678" y="165"/>
      <point x="867" y="292"/>
      <point x="867" y="475" type="curve" smooth="yes"/>
      <point x="867" y="494"/>
      <point x="865" y="523"/>
      <point x="861" y="541" type="curve"/>
      <point x="867" y="546" type="line"/>
      <point x="907" y="532"/>
      <point x="951" y="523"/>
      <point x="993" y="523" type="curve" smooth="yes"/>
      <point x="1035" y="523"/>
      <point x="1080" y="532"/>
      <point x="1126" y="552" type="curve"/>
      <point x="1132" y="548" type="line"/>
      <point x="1021" y="19" type="line"/>
      <point x="1164" y="-19" type="line"/>
      <point x="1174" y="-12" type="line"/>
      <point x="1428" y="1197" type="line"/>
    </contour>
    <contour>
      <point x="908" y="1197" type="line"/>
      <point x="1268" y="1197" type="line"/>
      <point x="1197" y="857" type="line" smooth="yes"/>
      <point x="1168" y="721"/>
      <point x="1058" y="646"/>
      <point x="922" y="646" type="curve" smooth="yes"/>
      <point x="878" y="646"/>
      <point x="830" y="654"/>
      <point x="782" y="682" type="curve"/>
      <point x="749" y="699"/>
      <point x="710" y="713"/>
      <point x="663" y="713" type="curve" smooth="yes"/>
      <point x="602" y="713"/>
      <point x="456" y="690"/>
      <point x="400" y="690" type="curve" smooth="yes"/>
      <point x="338" y="690"/>
      <point x="304" y="721"/>
      <point x="304" y="770" type="curve" smooth="yes"/>
      <point x="304" y="832"/>
      <point x="342" y="885"/>
      <point x="460" y="885" type="curve" smooth="yes"/>
      <point x="835" y="885" type="line"/>
      <point x="844" y="893" type="line"/>
    </contour>
  </outline>
</glyph>
<glyph name="nyadeva" format="1">
  <advance width="1531"/>
  <unicode hex="091E"/>
  <outline>
    <contour>
      <point x="1721" y="1197" type="line"/>
      <point x="1725" y="1206" type="line"/>
      <point x="1694" y="1330" type="line"/>
      <point x="112" y="1330" type="line"/>
      <point x="107" y="1321" type="line"/>
      <point x="139" y="1197" type="line"/>
      <point x="1301" y="1197" type="line"/>
      <point x="1215" y="793" type="line" smooth="yes"/>
      <point x="1192" y="683"/>
      <point x="1116" y="646"/>
      <point x="1051" y="646" type="curve" smooth="yes"/>
      <point x="1013" y="646"/>
      <point x="977" y="659"/>
      <point x="937" y="705" type="curve"/>
      <point x="914" y="869"/>
      <point x="788" y="994"/>
      <point x="631" y="994" type="curve" smooth="yes"/>
      <point x="514" y="994"/>
      <point x="429" y="921"/>
      <point x="415" y="851" type="curve" smooth="yes"/>
      <point x="403" y="795"/>
      <point x="430" y="741"/>
      <point x="497" y="719" type="curve"/>
      <point x="560" y="808"/>
      <point x="633" y="842"/>
      <point x="710" y="842" type="curve" smooth="yes"/>
      <point x="817" y="842"/>
      <point x="862" y="774"/>
      <point x="836" y="648" type="curve" smooth="yes"/>
      <point x="803" y="491"/>
      <point x="678" y="357"/>
      <point x="496" y="357" type="curve" smooth="yes"/>
      <point x="313" y="357"/>
      <point x="223" y="498"/>
      <point x="223" y="824" type="curve"/>
      <point x="175" y="829"/>
      <point x="161" y="804"/>
      <point x="151" y="757" type="curve" smooth="yes"/>
      <point x="115" y="588"/>
      <point x="196" y="195"/>
      <point x="536" y="195" type="curve" smooth="yes"/>
      <point x="746" y="195"/>
      <point x="893" y="341"/>
      <point x="943" y="555" type="curve"/>
      <point x="963" y="569" type="line"/>
      <point x="999" y="518"/>
      <point x="1048" y="483"/>
      <point x="1111" y="483" type="curve" smooth="yes"/>
      <point x="1122" y="483"/>
      <point x="1139" y="484"/>
      <point x="1157" y="489" type="curve"/>
      <point x="1052" y="19" type="line"/>
      <point x="1197" y="-19" type="line"/>
      <point x="1208" y="-12" type="line"/>
      <point x="1461" y="1197" type="line"/>
    </contour>
  </outline>
</glyph>
<glyph name="tthadeva" format="1">
  <advance width="1138.130"/>
  <unicode hex="0920"/>
  <outline>
    <contour>
      <point x="1324" y="1197" type="line"/>
      <point x="1332" y="1206" type="line"/>
      <point x="1302" y="1330" type="line"/>
      <point x="114" y="1330" type="line"/>
      <point x="106" y="1321" type="line"/>
      <point x="136" y="1197" type="line"/>
      <point x="774" y="1197" type="line"/>
      <point x="727" y="974" type="line" smooth="yes"/>
      <point x="726" y="969"/>
      <point x="722" y="966"/>
      <point x="717" y="966" type="curve" smooth="yes"/>
      <point x="600" y="966" type="line" smooth="yes"/>
      <point x="298" y="966"/>
      <point x="86" y="755"/>
      <point x="86" y="518" type="curve" smooth="yes"/>
      <point x="86" y="294"/>
      <point x="263" y="81"/>
      <point x="524" y="81" type="curve" smooth="yes"/>
      <point x="795" y="81"/>
      <point x="1037" y="285"/>
      <point x="1037" y="540" type="curve" smooth="yes"/>
      <point x="1037" y="679"/>
      <point x="966" y="808"/>
      <point x="862" y="885" type="curve"/>
      <point x="928" y="1197" type="line"/>
    </contour>
    <contour>
      <point x="835" y="819"/>
      <point x="909" y="714"/>
      <point x="909" y="595" type="curve" smooth="yes"/>
      <point x="909" y="376"/>
      <point x="689" y="212"/>
      <point x="476" y="212" type="curve" smooth="yes"/>
      <point x="310" y="212"/>
      <point x="215" y="325"/>
      <point x="215" y="464" type="curve" smooth="yes"/>
      <point x="215" y="653"/>
      <point x="384" y="819"/>
      <point x="643" y="819" type="curve" smooth="yes"/>
    </contour>
  </outline>
</glyph>
<glyph name="ddhadeva" format="1">
  <advance width="1008.130"/>
  <unicode hex="0922"/>
  <outline>
    <contour>
      <point x="1194" y="1197" type="line"/>
      <point x="1202" y="1206" type="line"/>
      <point x="1172" y="1330" type="line"/>
      <point x="114" y="1330" type="line"/>
      <point x="106" y="1321" type="line"/>
      <point x="136" y="1197" type="line"/>
      <point x="774" y="1197" type="line"/>
      <point x="729" y="984" type="line" smooth="yes"/>
      <point x="728" y="979"/>
      <point x="724" y="976"/>
      <point x="719" y="976" type="curve" smooth="yes"/>
      <point x="601" y="976" type="line" smooth="yes"/>
      <point x="269" y="976"/>
      <point x="56" y="768"/>
      <point x="56" y="517" type="curve" smooth="yes"/>
      <point x="56" y="284"/>
      <point x="235" y="61"/>
      <point x="489" y="61" type="curve" smooth="yes"/>
      <point x="717" y="61"/>
      <point x="921" y="220"/>
      <point x="921" y="423" type="curve" smooth="yes"/>
      <point x="921" y="550"/>
      <point x="839" y="655"/>
      <point x="712" y="655" type="curve" smooth="yes"/>
      <point x="584" y="655"/>
      <point x="475" y="564"/>
      <point x="475" y="420" type="curve" smooth="yes"/>
      <point x="475" y="356"/>
      <point x="499" y="282"/>
      <point x="555" y="211" type="curve"/>
      <point x="551" y="203" type="line"/>
      <point x="519" y="195"/>
      <point x="488" y="192"/>
      <point x="457" y="192" type="curve" smooth="yes"/>
      <point x="274" y="192"/>
      <point x="185" y="320"/>
      <point x="185" y="461" type="curve" smooth="yes"/>
      <point x="185" y="665"/>
      <point x="360" y="829"/>
      <point x="621" y="829" type="curve" smooth="yes"/>
      <point x="842" y="829" type="line"/>
      <point x="852" y="837" type="line"/>
      <point x="928" y="1197" type="line"/>
    </contour>
    <contour>
      <point x="796" y="531"/>
      <point x="828" y="498"/>
      <point x="828" y="447" type="curve" smooth="yes"/>
      <point x="828" y="367"/>
      <point x="752" y="284"/>
      <point x="644" y="234" type="curve"/>
      <point x="615" y="283"/>
      <point x="602" y="333"/>
      <point x="602" y="372" type="curve" smooth="yes"/>
      <point x="602" y="464"/>
      <point x="676" y="531"/>
      <point x="749" y="531" type="curve" smooth="yes"/>
    </contour>
  </outline>
</glyph>
<glyph name="nnadeva" format="1">
  <advance width="1421.130"/>
  <unicode hex="0923"/>
  <outline>
    <contour>
      <point x="1607" y="1197" type="line"/>
      <point x="1615" y="1206" type="line"/>
      <point x="1585" y="1330" type="line"/>
      <point x="114" y="1330" type="line"/>
      <point x="106" y="1321" type="line"/>
      <point x="136" y="1197" type="line"/>
      <point x="265" y="1197" type="line"/>
      <point x="172" y="755" type="line" smooth="yes"/>
      <point x="126" y="534"/>
      <point x="285" y="351"/>
      <point x="487" y="351" type="curve" smooth="yes"/>
      <point x="648" y="351"/>
      <point x="792" y="468"/>
      <point x="826" y="631" type="curve" smooth="yes"/>
      <point x="945" y="1197" type="line"/>
      <point x="1190" y="1197" type="line"/>
      <point x="943" y="19" type="line"/>
      <point x="1086" y="-19" type="line"/>
      <point x="1096" y="-12" type="line"/>
      <point x="1350" y="1197" type="line"/>
    </contour>
    <contour>
      <point x="425" y="1197" type="line"/>
      <point x="790" y="1197" type="line"/>
      <point x="686" y="700" type="line" smooth="yes"/>
      <point x="655" y="555"/>
      <point x="553" y="473"/>
      <point x="446" y="473" type="curve" smooth="yes"/>
      <point x="350" y="473"/>
      <point x="287" y="539"/>
      <point x="314" y="670" type="curve" smooth="yes"/>
    </contour>
  </outline>
</glyph>
<glyph name="tadeva" format="1">
  <advance width="1191.130"/>
  <unicode hex="0924"/>
  <outline>
    <contour>
      <point x="1377" y="1197" type="line"/>
      <point x="1385" y="1206" type="line"/>
      <point x="1355" y="1330" type="line"/>
      <point x="114" y="1330" type="line"/>
      <point x="106" y="1321" type="line"/>
      <point x="136" y="1197" type="line"/>
      <point x="960" y="1197" type="line"/>
      <point x="902" y="923" type="line"/>
      <point x="444" y="923" type="line" smooth="yes"/>
      <point x="216" y="923"/>
      <point x="90" y="763"/>
      <point x="90" y="531" type="curve" smooth="yes"/>
      <point x="90" y="256"/>
      <point x="267" y="-18"/>
      <point x="361" y="-18" type="curve" smooth="yes"/>
      <point x="382" y="-18"/>
      <point x="406" y="-5"/>
      <point x="422" y="20" type="curve"/>
      <point x="297" y="151"/>
      <point x="228" y="336"/>
      <point x="228" y="487" type="curve" smooth="yes"/>
      <point x="228" y="638"/>
      <point x="296" y="778"/>
      <point x="486" y="778" type="curve" smooth="yes"/>
      <point x="872" y="778" type="line"/>
      <point x="713" y="19" type="line"/>
      <point x="856" y="-19" type="line"/>
      <point x="866" y="-12" type="line"/>
      <point x="1120" y="1197" type="line"/>
    </contour>
  </outline>
</glyph>
<glyph name="thadeva" format="1">
  <advance width="1341"/>
  <unicode hex="0925"/>
  <outline>
    <contour>
      <point x="341" y="1387"/>
      <point x="207" y="1294"/>
      <point x="207" y="1148" type="curve" smooth="yes"/>
      <point x="207" y="1026"/>
      <point x="303" y="922"/>
      <point x="408" y="922" type="curve" smooth="yes"/>
      <point x="448" y="922"/>
      <point x="471" y="936"/>
      <point x="483" y="951" type="curve"/>
      <point x="386" y="993"/>
      <point x="348" y="1052"/>
      <point x="348" y="1111" type="curve" smooth="yes"/>
      <point x="348" y="1204"/>
      <point x="428" y="1260"/>
      <point x="519" y="1260" type="curve" smooth="yes"/>
      <point x="602" y="1260"/>
      <point x="659" y="1205"/>
      <point x="659" y="1109" type="curve" smooth="yes"/>
      <point x="659" y="931"/>
      <point x="513" y="797"/>
      <point x="184" y="710" type="curve"/>
      <point x="176" y="700" type="line"/>
      <point x="291" y="374"/>
      <point x="480" y="241"/>
      <point x="681" y="241" type="curve" smooth="yes"/>
      <point x="770" y="241"/>
      <point x="848" y="267"/>
      <point x="914" y="311" type="curve"/>
      <point x="923" y="306" type="line"/>
      <point x="863" y="19" type="line"/>
      <point x="1006" y="-19" type="line"/>
      <point x="1016" y="-12" type="line"/>
      <point x="1270" y="1197" type="line"/>
      <point x="1527" y="1197" type="line"/>
      <point x="1535" y="1206" type="line"/>
      <point x="1505" y="1330" type="line"/>
      <point x="894" y="1330" type="line"/>
      <point x="886" y="1321" type="line"/>
      <point x="916" y="1197" type="line"/>
      <point x="1110" y="1197" type="line"/>
      <point x="1001" y="680" type="line" smooth="yes"/>
      <point x="966" y="512"/>
      <point x="805" y="401"/>
      <point x="646" y="401" type="curve" smooth="yes"/>
      <point x="540" y="401"/>
      <point x="413" y="451"/>
      <point x="344" y="583" type="curve"/>
      <point x="349" y="591" type="line"/>
      <point x="638" y="689"/>
      <point x="785" y="846"/>
      <point x="785" y="1051" type="curve" smooth="yes"/>
      <point x="785" y="1239"/>
      <point x="649" y="1387"/>
      <point x="483" y="1387" type="curve" smooth="yes"/>
    </contour>
  </outline>
</glyph>
<glyph name="dadeva" format="1">
  <advance width="1008"/>
  <unicode hex="0926"/>
  <outline>
    <contour>
      <point x="1198" y="1197" type="line"/>
      <point x="1202" y="1206" type="line"/>
      <point x="1171" y="1330" type="line"/>
      <point x="112" y="1330" type="line"/>
      <point x="107" y="1321" type="line"/>
      <point x="139" y="1197" type="line"/>
      <point x="775" y="1197" type="line"/>
      <point x="729" y="980" type="line" smooth="yes"/>
      <point x="728" y="975"/>
      <point x="716" y="966"/>
      <point x="711" y="966" type="curve" smooth="yes"/>
      <point x="593" y="966" type="line" smooth="yes"/>
      <point x="274" y="966"/>
      <point x="108" y="791"/>
      <point x="69" y="605" type="curve" smooth="yes"/>
      <point x="15" y="352"/>
      <point x="195" y="91"/>
      <point x="486" y="91" type="curve" smooth="yes"/>
      <point x="561" y="91"/>
      <point x="638" y="109"/>
      <point x="709" y="146" type="curve"/>
      <point x="745" y="86"/>
      <point x="750" y="56"/>
      <point x="744" y="25" type="curve" smooth="yes"/>
      <point x="728" y="-48"/>
      <point x="658" y="-98"/>
      <point x="596" y="-93" type="curve"/>
      <point x="604" y="-157"/>
      <point x="650" y="-202"/>
      <point x="718" y="-202" type="curve" smooth="yes"/>
      <point x="785" y="-202"/>
      <point x="830" y="-151"/>
      <point x="845" y="-84" type="curve" smooth="yes"/>
      <point x="858" y="-19"/>
      <point x="842" y="57"/>
      <point x="766" y="180" type="curve"/>
      <point x="824" y="225"/>
      <point x="858" y="278"/>
      <point x="868" y="328" type="curve" smooth="yes"/>
      <point x="887" y="414"/>
      <point x="838" y="499"/>
      <point x="739" y="499" type="curve" smooth="yes"/>
      <point x="664" y="499"/>
      <point x="607" y="444"/>
      <point x="592" y="375" type="curve" smooth="yes"/>
      <point x="583" y="330"/>
      <point x="595" y="294"/>
      <point x="611" y="264" type="curve"/>
      <point x="552" y="235"/>
      <point x="490" y="219"/>
      <point x="424" y="219" type="curve" smooth="yes"/>
      <point x="229" y="219"/>
      <point x="159" y="359"/>
      <point x="190" y="507" type="curve" smooth="yes"/>
      <point x="227" y="684"/>
      <point x="398" y="819"/>
      <point x="627" y="819" type="curve" smooth="yes"/>
      <point x="843" y="819" type="line"/>
      <point x="853" y="827" type="line"/>
      <point x="929" y="1197" type="line"/>
    </contour>
  </outline>
</glyph>
<glyph name="dhadeva" format="1">
  <advance width="1315"/>
  <unicode hex="0927"/>
  <outline>
    <contour>
      <point x="364" y="1387"/>
      <point x="255" y="1286"/>
      <point x="229" y="1162" type="curve" smooth="yes"/>
      <point x="201" y="1027"/>
      <point x="276" y="898"/>
      <point x="428" y="799" type="curve"/>
      <point x="357" y="735"/>
      <point x="316" y="660"/>
      <point x="302" y="592" type="curve" smooth="yes"/>
      <point x="263" y="405"/>
      <point x="414" y="221"/>
      <point x="657" y="221" type="curve" smooth="yes"/>
      <point x="736" y="221"/>
      <point x="817" y="241"/>
      <point x="887" y="280" type="curve"/>
      <point x="892" y="278" type="line"/>
      <point x="836" y="19" type="line"/>
      <point x="981" y="-19" type="line"/>
      <point x="992" y="-12" type="line"/>
      <point x="1245" y="1197" type="line"/>
      <point x="1505" y="1197" type="line"/>
      <point x="1509" y="1206" type="line"/>
      <point x="1478" y="1330" type="line"/>
      <point x="866" y="1330" type="line"/>
      <point x="861" y="1321" type="line"/>
      <point x="893" y="1197" type="line"/>
      <point x="1085" y="1197" type="line"/>
      <point x="962" y="616" type="line" smooth="yes"/>
      <point x="925" y="439"/>
      <point x="718" y="351"/>
      <point x="577" y="351" type="curve" smooth="yes"/>
      <point x="454" y="351"/>
      <point x="398" y="420"/>
      <point x="417" y="509" type="curve" smooth="yes"/>
      <point x="441" y="625"/>
      <point x="581" y="744"/>
      <point x="802" y="777" type="curve"/>
      <point x="798" y="789" type="line"/>
      <point x="709" y="919" type="line"/>
      <point x="632" y="911"/>
      <point x="560" y="887"/>
      <point x="491" y="846" type="curve"/>
      <point x="384" y="920"/>
      <point x="352" y="1003"/>
      <point x="369" y="1083" type="curve" smooth="yes"/>
      <point x="388" y="1176"/>
      <point x="471" y="1249"/>
      <point x="559" y="1249" type="curve" smooth="yes"/>
      <point x="621" y="1249"/>
      <point x="660" y="1208"/>
      <point x="680" y="1095" type="curve"/>
      <point x="687" y="1090"/>
      <point x="705" y="1097"/>
      <point x="716" y="1147" type="curve" smooth="yes"/>
      <point x="742" y="1272"/>
      <point x="652" y="1387"/>
      <point x="501" y="1387" type="curve" smooth="yes"/>
    </contour>
  </outline>
</glyph>
<glyph name="nadeva" format="1">
  <advance width="1121.130"/>
  <unicode hex="0928"/>
  <outline>
    <contour>
      <point x="1307" y="1197" type="line"/>
      <point x="1315" y="1206" type="line"/>
      <point x="1285" y="1330" type="line"/>
      <point x="114" y="1330" type="line"/>
      <point x="106" y="1321" type="line"/>
      <point x="136" y="1197" type="line"/>
      <point x="890" y="1197" type="line"/>
      <point x="818" y="853" type="line"/>
      <point x="300" y="853" type="line" smooth="yes"/>
      <point x="188" y="853"/>
      <point x="98" y="834"/>
      <point x="98" y="742" type="curve" smooth="yes"/>
      <point x="98" y="635"/>
      <point x="220" y="484"/>
      <point x="290" y="484" type="curve" smooth="yes"/>
      <point x="318" y="484"/>
      <point x="350" y="507"/>
      <point x="361" y="563" type="curve" smooth="yes"/>
      <point x="392" y="708" type="line"/>
      <point x="788" y="708" type="line"/>
      <point x="643" y="19" type="line"/>
      <point x="786" y="-19" type="line"/>
      <point x="797" y="-12" type="line"/>
      <point x="1050" y="1197" type="line"/>
    </contour>
  </outline>
</glyph>
<glyph name="nnnadeva" format="1">
  <advance width="1121"/>
  <unicode hex="0929"/>
  <outline>
    <contour>
      <point x="1311" y="1197" type="line"/>
      <point x="1315" y="1206" type="line"/>
      <point x="1284" y="1330" type="line"/>
      <point x="112" y="1330" type="line"/>
      <point x="107" y="1321" type="line"/>
      <point x="139" y="1197" type="line"/>
      <point x="891" y="1197" type="line"/>
      <point x="818" y="853" type="line"/>
      <point x="293" y="853" type="line" smooth="yes"/>
      <point x="192" y="853"/>
      <point x="117" y="843"/>
      <point x="102" y="774" type="curve" smooth="yes"/>
      <point x="78" y="660"/>
      <point x="220" y="484"/>
      <point x="302" y="484" type="curve" smooth="yes"/>
      <point x="324" y="484"/>
      <point x="348" y="501"/>
      <point x="360" y="557" type="curve" smooth="yes"/>
      <point x="392" y="708" type="line"/>
      <point x="788" y="708" type="line"/>
      <point x="642" y="19" type="line"/>
      <point x="787" y="-19" type="line"/>
      <point x="798" y="-12" type="line"/>
      <point x="1051" y="1197" type="line"/>
    </contour>
    <contour>
      <point x="263" y="172"/>
      <point x="219" y="135"/>
      <point x="209" y="88" type="curve" smooth="yes"/>
      <point x="197" y="30"/>
      <point x="236" y="-19"/>
      <point x="295" y="-19" type="curve" smooth="yes"/>
      <point x="341" y="-19"/>
      <point x="385" y="18"/>
      <point x="395" y="66" type="curve" smooth="yes"/>
      <point x="407" y="123"/>
      <point x="368" y="172"/>
      <point x="310" y="172" type="curve" smooth="yes"/>
    </contour>
  </outline>
</glyph>
<glyph name="padeva" format="1">
  <advance width="1112"/>
  <unicode hex="092A"/>
  <outline>
    <contour>
      <point x="1302" y="1197" type="line"/>
      <point x="1306" y="1206" type="line"/>
      <point x="1275" y="1330" type="line"/>
      <point x="112" y="1330" type="line"/>
      <point x="107" y="1321" type="line"/>
      <point x="139" y="1197" type="line"/>
      <point x="266" y="1197" type="line"/>
      <point x="174" y="761" type="line" smooth="yes"/>
      <point x="128" y="542"/>
      <point x="285" y="351"/>
      <point x="493" y="351" type="curve" smooth="yes"/>
      <point x="559" y="351"/>
      <point x="639" y="371"/>
      <point x="711" y="413" type="curve"/>
      <point x="716" y="411" type="line"/>
      <point x="632" y="19" type="line"/>
      <point x="777" y="-19" type="line"/>
      <point x="788" y="-12" type="line"/>
      <point x="1041" y="1197" type="line"/>
    </contour>
    <contour>
      <point x="426" y="1197" type="line"/>
      <point x="881" y="1197" type="line"/>
      <point x="788" y="756" type="line" smooth="yes"/>
      <point x="755" y="600"/>
      <point x="582" y="473"/>
      <point x="433" y="473" type="curve" smooth="yes"/>
      <point x="332" y="473"/>
      <point x="286" y="535"/>
      <point x="313" y="664" type="curve" smooth="yes"/>
    </contour>
  </outline>
</glyph>
<glyph name="phadeva" format="1">
  <advance width="1480"/>
  <unicode hex="092B"/>
  <outline>
    <contour>
      <point x="1670" y="1197" type="line"/>
      <point x="1674" y="1206" type="line"/>
      <point x="1643" y="1330" type="line"/>
      <point x="112" y="1330" type="line"/>
      <point x="107" y="1321" type="line"/>
      <point x="139" y="1197" type="line"/>
      <point x="266" y="1197" type="line"/>
      <point x="172" y="751" type="line" smooth="yes"/>
      <point x="128" y="542"/>
      <point x="272" y="361"/>
      <point x="465" y="361" type="curve" smooth="yes"/>
      <point x="519" y="361"/>
      <point x="589" y="376"/>
      <point x="651" y="410" type="curve"/>
      <point x="656" y="407" type="line"/>
      <point x="572" y="19" type="line"/>
      <point x="717" y="-19" type="line"/>
      <point x="728" y="-12" type="line"/>
      <point x="836" y="512" type="line" smooth="yes"/>
      <point x="873" y="688"/>
      <point x="1062" y="815"/>
      <point x="1206" y="815" type="curve" smooth="yes"/>
      <point x="1283" y="815"/>
      <point x="1319" y="778"/>
      <point x="1298" y="677" type="curve" smooth="yes"/>
      <point x="1268" y="536"/>
      <point x="1142" y="370"/>
      <point x="1004" y="300" type="curve"/>
      <point x="1039" y="246"/>
      <point x="1093" y="220"/>
      <point x="1139" y="220" type="curve" smooth="yes"/>
      <point x="1234" y="220"/>
      <point x="1355" y="354"/>
      <point x="1396" y="548" type="curve" smooth="yes"/>
      <point x="1450" y="806"/>
      <point x="1311" y="942"/>
      <point x="1135" y="942" type="curve" smooth="yes"/>
      <point x="1059" y="942"/>
      <point x="979" y="915"/>
      <point x="914" y="859" type="curve"/>
      <point x="909" y="859" type="line"/>
      <point x="981" y="1197" type="line"/>
    </contour>
    <contour>
      <point x="426" y="1197" type="line"/>
      <point x="821" y="1197" type="line"/>
      <point x="721" y="726" type="line" smooth="yes"/>
      <point x="693" y="594"/>
      <point x="537" y="483"/>
      <point x="408" y="483" type="curve" smooth="yes"/>
      <point x="321" y="483"/>
      <point x="286" y="537"/>
      <point x="311" y="654" type="curve" smooth="yes"/>
    </contour>
  </outline>
</glyph>
<glyph name="badeva" format="1">
  <advance width="1160"/>
  <unicode hex="092C"/>
  <outline>
    <contour>
      <point x="1350" y="1197" type="line"/>
      <point x="1354" y="1206" type="line"/>
      <point x="1323" y="1330" type="line"/>
      <point x="112" y="1330" type="line"/>
      <point x="107" y="1321" type="line"/>
      <point x="139" y="1197" type="line"/>
      <point x="930" y="1197" type="line"/>
      <point x="861" y="875" type="line"/>
      <point x="844" y="867" type="line"/>
      <point x="771" y="963"/>
      <point x="649" y="1007"/>
      <point x="532" y="1007" type="curve" smooth="yes"/>
      <point x="326" y="1007"/>
      <point x="146" y="866"/>
      <point x="106" y="677" type="curve" smooth="yes"/>
      <point x="53" y="427"/>
      <point x="267" y="219"/>
      <point x="493" y="219" type="curve" smooth="yes"/>
      <point x="558" y="219"/>
      <point x="650" y="237"/>
      <point x="733" y="288" type="curve"/>
      <point x="738" y="287" type="line"/>
      <point x="681" y="19" type="line"/>
      <point x="826" y="-19" type="line"/>
      <point x="837" y="-12" type="line"/>
      <point x="1090" y="1197" type="line"/>
    </contour>
    <contour>
      <point x="747" y="863"/>
      <point x="841" y="775"/>
      <point x="814" y="648" type="curve" smooth="yes"/>
      <point x="809" y="624" type="line" smooth="yes"/>
      <point x="794" y="554"/>
      <point x="744" y="492"/>
      <point x="686" y="448" type="curve"/>
      <point x="453" y="836" type="line"/>
      <point x="497" y="852"/>
      <point x="544" y="863"/>
      <point x="598" y="863" type="curve" smooth="yes"/>
    </contour>
    <contour>
      <point x="283" y="358"/>
      <point x="207" y="451"/>
      <point x="236" y="586" type="curve" smooth="yes"/>
      <point x="251" y="660"/>
      <point x="295" y="724"/>
      <point x="348" y="770" type="curve"/>
      <point x="582" y="388" type="line"/>
      <point x="533" y="370"/>
      <point x="482" y="358"/>
      <point x="428" y="358" type="curve" smooth="yes"/>
    </contour>
  </outline>
</glyph>
<glyph name="bhadeva" format="1">
  <advance width="1433"/>
  <unicode hex="092D"/>
  <outline>
    <contour>
      <point x="366" y="1387"/>
      <point x="279" y="1311"/>
      <point x="257" y="1210" type="curve" smooth="yes"/>
      <point x="228" y="1073"/>
      <point x="332" y="956"/>
      <point x="445" y="956" type="curve" smooth="yes"/>
      <point x="468" y="956"/>
      <point x="488" y="961"/>
      <point x="497" y="967" type="curve"/>
      <point x="401" y="1027"/>
      <point x="379" y="1078"/>
      <point x="392" y="1137" type="curve" smooth="yes"/>
      <point x="408" y="1211"/>
      <point x="470" y="1260"/>
      <point x="544" y="1260" type="curve" smooth="yes"/>
      <point x="613" y="1260"/>
      <point x="637" y="1213"/>
      <point x="608" y="1075" type="curve" smooth="yes"/>
      <point x="514" y="662" type="line"/>
      <point x="437" y="659"/>
      <point x="373" y="647"/>
      <point x="359" y="584" type="curve" smooth="yes"/>
      <point x="335" y="470"/>
      <point x="477" y="294"/>
      <point x="559" y="294" type="curve" smooth="yes"/>
      <point x="581" y="294"/>
      <point x="605" y="311"/>
      <point x="617" y="367" type="curve" smooth="yes"/>
      <point x="648" y="518" type="line"/>
      <point x="1059" y="518" type="line"/>
      <point x="954" y="19" type="line"/>
      <point x="1099" y="-19" type="line"/>
      <point x="1110" y="-12" type="line"/>
      <point x="1363" y="1197" type="line"/>
      <point x="1623" y="1197" type="line"/>
      <point x="1627" y="1206" type="line"/>
      <point x="1596" y="1330" type="line"/>
      <point x="896" y="1330" type="line"/>
      <point x="891" y="1321" type="line"/>
      <point x="923" y="1197" type="line"/>
      <point x="1203" y="1197" type="line"/>
      <point x="1090" y="663" type="line"/>
      <point x="679" y="663" type="line"/>
      <point x="743" y="967" type="line" smooth="yes"/>
      <point x="792" y="1200"/>
      <point x="665" y="1387"/>
      <point x="480" y="1387" type="curve" smooth="yes"/>
    </contour>
  </outline>
</glyph>
<glyph name="madeva" format="1">
  <advance width="1196.130"/>
  <unicode hex="092E"/>
  <outline>
    <contour>
      <point x="1382" y="1197" type="line"/>
      <point x="1390" y="1206" type="line"/>
      <point x="1360" y="1330" type="line"/>
      <point x="114" y="1330" type="line"/>
      <point x="106" y="1321" type="line"/>
      <point x="136" y="1197" type="line"/>
      <point x="346" y="1197" type="line"/>
      <point x="232" y="652" type="line"/>
      <point x="102" y="648"/>
      <point x="66" y="598"/>
      <point x="66" y="542" type="curve" smooth="yes"/>
      <point x="66" y="436"/>
      <point x="187" y="284"/>
      <point x="258" y="284" type="curve" smooth="yes"/>
      <point x="286" y="284"/>
      <point x="318" y="307"/>
      <point x="329" y="363" type="curve" smooth="yes"/>
      <point x="360" y="508" type="line"/>
      <point x="821" y="508" type="line"/>
      <point x="718" y="19" type="line"/>
      <point x="861" y="-19" type="line"/>
      <point x="872" y="-12" type="line"/>
      <point x="1125" y="1197" type="line"/>
    </contour>
    <contour>
      <point x="390" y="653" type="line"/>
      <point x="504" y="1197" type="line"/>
      <point x="965" y="1197" type="line"/>
      <point x="851" y="653" type="line"/>
    </contour>
  </outline>
</glyph>
<glyph name="yadeva" format="1">
  <advance width="1288"/>
  <unicode hex="092F"/>
  <outline>
    <contour>
      <point x="1478" y="1197" type="line"/>
      <point x="1482" y="1206" type="line"/>
      <point x="1451" y="1330" type="line"/>
      <point x="112" y="1330" type="line"/>
      <point x="107" y="1321" type="line"/>
      <point x="139" y="1197" type="line"/>
      <point x="510" y="1202" type="line"/>
      <point x="528" y="1154"/>
      <point x="536" y="1089"/>
      <point x="522" y="1024" type="curve" smooth="yes"/>
      <point x="496" y="898"/>
      <point x="401" y="814"/>
      <point x="164" y="751" type="curve"/>
      <point x="167" y="745" type="line"/>
      <point x="268" y="408"/>
      <point x="442" y="261"/>
      <point x="649" y="261" type="curve" smooth="yes"/>
      <point x="727" y="261"/>
      <point x="803" y="283"/>
      <point x="869" y="326" type="curve"/>
      <point x="875" y="324" type="line"/>
      <point x="809" y="19" type="line"/>
      <point x="954" y="-19" type="line"/>
      <point x="965" y="-12" type="line"/>
      <point x="1218" y="1197" type="line"/>
    </contour>
    <contour>
      <point x="629" y="1197" type="line"/>
      <point x="1058" y="1197" type="line"/>
      <point x="952" y="696" type="line" smooth="yes"/>
      <point x="918" y="534"/>
      <point x="746" y="421"/>
      <point x="590" y="421" type="curve" smooth="yes"/>
      <point x="483" y="421"/>
      <point x="374" y="477"/>
      <point x="325" y="621" type="curve"/>
      <point x="507" y="686"/>
      <point x="610" y="775"/>
      <point x="639" y="915" type="curve" smooth="yes"/>
      <point x="659" y="1009"/>
      <point x="642" y="1104"/>
      <point x="615" y="1182" type="curve"/>
    </contour>
  </outline>
</glyph>
<glyph name="radeva" format="1">
  <advance width="866.130"/>
  <unicode hex="0930"/>
  <outline>
    <contour>
      <point x="1052" y="1197" type="line"/>
      <point x="1060" y="1206" type="line"/>
      <point x="1030" y="1330" type="line"/>
      <point x="114" y="1330" type="line"/>
      <point x="106" y="1321" type="line"/>
      <point x="136" y="1197" type="line"/>
      <point x="598" y="1197" type="line"/>
      <point x="605" y="1156"/>
      <point x="608" y="1089"/>
      <point x="608" y="1050" type="curve" smooth="yes"/>
      <point x="608" y="889"/>
      <point x="570" y="789"/>
      <point x="434" y="723" type="curve"/>
      <point x="373" y="762"/>
      <point x="310" y="779"/>
      <point x="261" y="779" type="curve" smooth="yes"/>
      <point x="159" y="779"/>
      <point x="96" y="708"/>
      <point x="96" y="617" type="curve" smooth="yes"/>
      <point x="96" y="407"/>
      <point x="358" y="-2"/>
      <point x="524" y="-2" type="curve" smooth="yes"/>
      <point x="566" y="-2"/>
      <point x="613" y="24"/>
      <point x="632" y="66" type="curve"/>
      <point x="451" y="170"/>
      <point x="329" y="289"/>
      <point x="244" y="478" type="curve"/>
      <point x="250" y="485" type="line"/>
      <point x="616" y="551"/>
      <point x="724" y="744"/>
      <point x="724" y="959" type="curve" smooth="yes"/>
      <point x="724" y="1031"/>
      <point x="714" y="1123"/>
      <point x="698" y="1188" type="curve"/>
      <point x="707" y="1197" type="line"/>
    </contour>
  </outline>
</glyph>
<glyph name="rradeva" format="1">
  <advance width="865.130"/>
  <unicode hex="0931"/>
  <outline>
    <contour>
      <point x="1052" y="1197" type="line"/>
      <point x="1059" y="1206" type="line"/>
      <point x="1029" y="1330" type="line"/>
      <point x="113" y="1330" type="line"/>
      <point x="106" y="1321" type="line"/>
      <point x="136" y="1197" type="line"/>
      <point x="598" y="1197" type="line"/>
      <point x="604" y="1156"/>
      <point x="607" y="1089"/>
      <point x="607" y="1050" type="curve" smooth="yes"/>
      <point x="607" y="889"/>
      <point x="570" y="789"/>
      <point x="433" y="723" type="curve"/>
      <point x="372" y="762"/>
      <point x="310" y="779"/>
      <point x="261" y="779" type="curve" smooth="yes"/>
      <point x="159" y="779"/>
      <point x="95" y="708"/>
      <point x="95" y="617" type="curve" smooth="yes"/>
      <point x="95" y="407"/>
      <point x="357" y="-2"/>
      <point x="523" y="-2" type="curve" smooth="yes"/>
      <point x="565" y="-2"/>
      <point x="612" y="24"/>
      <point x="631" y="66" type="curve"/>
      <point x="450" y="170"/>
      <point x="328" y="289"/>
      <point x="244" y="478" type="curve"/>
      <point x="249" y="485" type="line"/>
      <point x="615" y="551"/>
      <point x="724" y="744"/>
      <point x="724" y="959" type="curve" smooth="yes"/>
      <point x="724" y="1031"/>
      <point x="713" y="1123"/>
      <point x="698" y="1188" type="curve"/>
      <point x="707" y="1197" type="line"/>
    </contour>
    <contour>
      <point x="33" y="172"/>
      <point x="-26" y="120"/>
      <point x="-26" y="61" type="curve" smooth="yes"/>
      <point x="-26" y="16"/>
      <point x="6" y="-19"/>
      <point x="52" y="-19" type="curve" smooth="yes"/>
      <point x="111" y="-19"/>
      <point x="170" y="33"/>
      <point x="170" y="93" type="curve" smooth="yes"/>
      <point x="170" y="137"/>
      <point x="138" y="172"/>
      <point x="93" y="172" type="curve" smooth="yes"/>
    </contour>
  </outline>
</glyph>
<glyph name="ladeva" format="1">
  <advance width="1411.130"/>
  <unicode hex="0932"/>
  <outline>
    <contour>
      <point x="1597" y="1197" type="line"/>
      <point x="1605" y="1206" type="line"/>
      <point x="1575" y="1330" type="line"/>
      <point x="114" y="1330" type="line"/>
      <point x="106" y="1321" type="line"/>
      <point x="136" y="1197" type="line"/>
      <point x="1180" y="1197" type="line"/>
      <point x="1124" y="928" type="line"/>
      <point x="981" y="916"/>
      <point x="853" y="862"/>
      <point x="747" y="773" type="curve"/>
      <point x="739" y="773" type="line"/>
      <point x="653" y="901"/>
      <point x="564" y="946"/>
      <point x="462" y="946" type="curve" smooth="yes"/>
      <point x="264" y="946"/>
      <point x="123" y="792"/>
      <point x="123" y="571" type="curve" smooth="yes"/>
      <point x="123" y="282"/>
      <point x="349" y="-18"/>
      <point x="454" y="-18" type="curve" smooth="yes"/>
      <point x="480" y="-18"/>
      <point x="507" y="-1"/>
      <point x="521" y="24" type="curve"/>
      <point x="355" y="165"/>
      <point x="269" y="372"/>
      <point x="269" y="527" type="curve" smooth="yes"/>
      <point x="269" y="686"/>
      <point x="371" y="798"/>
      <point x="496" y="798" type="curve" smooth="yes"/>
      <point x="560" y="798"/>
      <point x="618" y="767"/>
      <point x="670" y="698" type="curve"/>
      <point x="627" y="649"/>
      <point x="591" y="594"/>
      <point x="559" y="532" type="curve"/>
      <point x="682" y="437" type="line"/>
      <point x="693" y="441" type="line"/>
      <point x="784" y="632"/>
      <point x="904" y="745"/>
      <point x="1086" y="790" type="curve"/>
      <point x="1093" y="783" type="line"/>
      <point x="933" y="19" type="line"/>
      <point x="1076" y="-19" type="line"/>
      <point x="1086" y="-12" type="line"/>
      <point x="1340" y="1197" type="line"/>
    </contour>
  </outline>
</glyph>
<glyph name="lladeva" format="1">
  <advance width="1431"/>
  <unicode hex="0933"/>
  <outline>
    <contour>
      <point x="1621" y="1197" type="line"/>
      <point x="1625" y="1206" type="line"/>
      <point x="1594" y="1330" type="line"/>
      <point x="112" y="1330" type="line"/>
      <point x="107" y="1321" type="line"/>
      <point x="139" y="1197" type="line"/>
      <point x="1061" y="1197" type="line"/>
      <point x="991" y="895" type="line"/>
      <point x="911" y="877"/>
      <point x="850" y="825"/>
      <point x="765" y="725" type="curve"/>
      <point x="664" y="846"/>
      <point x="560" y="910"/>
      <point x="434" y="910" type="curve" smooth="yes"/>
      <point x="257" y="910"/>
      <point x="104" y="777"/>
      <point x="66" y="598" type="curve" smooth="yes"/>
      <point x="17" y="366"/>
      <point x="179" y="157"/>
      <point x="387" y="157" type="curve" smooth="yes"/>
      <point x="510" y="157"/>
      <point x="593" y="235"/>
      <point x="691" y="360" type="curve"/>
      <point x="785" y="220"/>
      <point x="884" y="147"/>
      <point x="1011" y="147" type="curve" smooth="yes"/>
      <point x="1177" y="147"/>
      <point x="1328" y="280"/>
      <point x="1366" y="459" type="curve" smooth="yes"/>
      <point x="1408" y="657"/>
      <point x="1296" y="836"/>
      <point x="1139" y="885" type="curve"/>
      <point x="1211" y="1197" type="line"/>
    </contour>
    <contour>
      <point x="578" y="769"/>
      <point x="652" y="730"/>
      <point x="714" y="645" type="curve"/>
      <point x="663" y="592" type="line" smooth="yes"/>
      <point x="515" y="386"/>
      <point x="441" y="288"/>
      <point x="322" y="288" type="curve" smooth="yes"/>
      <point x="215" y="288"/>
      <point x="163" y="375"/>
      <point x="190" y="500" type="curve" smooth="yes"/>
      <point x="221" y="648"/>
      <point x="346" y="769"/>
      <point x="496" y="769" type="curve" smooth="yes"/>
    </contour>
    <contour>
      <point x="1220" y="769"/>
      <point x="1269" y="682"/>
      <point x="1243" y="558" type="curve" smooth="yes"/>
      <point x="1211" y="409"/>
      <point x="1088" y="288"/>
      <point x="949" y="288" type="curve" smooth="yes"/>
      <point x="868" y="288"/>
      <point x="801" y="334"/>
      <point x="743" y="445" type="curve"/>
      <point x="770" y="470" type="line" smooth="yes"/>
      <point x="943" y="715"/>
      <point x="1014" y="769"/>
      <point x="1107" y="769" type="curve" smooth="yes"/>
    </contour>
  </outline>
</glyph>
<glyph name="vadeva" format="1">
  <advance width="1160"/>
  <unicode hex="0935"/>
  <outline>
    <contour>
      <point x="1350" y="1197" type="line"/>
      <point x="1354" y="1206" type="line"/>
      <point x="1323" y="1330" type="line"/>
      <point x="112" y="1330" type="line"/>
      <point x="107" y="1321" type="line"/>
      <point x="139" y="1197" type="line"/>
      <point x="930" y="1197" type="line"/>
      <point x="861" y="875" type="line"/>
      <point x="844" y="867" type="line"/>
      <point x="771" y="963"/>
      <point x="649" y="1007"/>
      <point x="532" y="1007" type="curve" smooth="yes"/>
      <point x="326" y="1007"/>
      <point x="146" y="866"/>
      <point x="106" y="677" type="curve" smooth="yes"/>
      <point x="53" y="427"/>
      <point x="267" y="219"/>
      <point x="493" y="219" type="curve" smooth="yes"/>
      <point x="558" y="219"/>
      <point x="650" y="237"/>
      <point x="733" y="288" type="curve"/>
      <point x="738" y="287" type="line"/>
      <point x="681" y="19" type="line"/>
      <point x="826" y="-19" type="line"/>
      <point x="837" y="-12" type="line"/>
      <point x="1090" y="1197" type="line"/>
    </contour>
    <contour>
      <point x="747" y="863"/>
      <point x="841" y="775"/>
      <point x="814" y="648" type="curve" smooth="yes"/>
      <point x="809" y="624" type="line" smooth="yes"/>
      <point x="776" y="470"/>
      <point x="590" y="358"/>
      <point x="428" y="358" type="curve" smooth="yes"/>
      <point x="283" y="358"/>
      <point x="207" y="451"/>
      <point x="236" y="586" type="curve" smooth="yes"/>
      <point x="268" y="741"/>
      <point x="419" y="863"/>
      <point x="598" y="863" type="curve" smooth="yes"/>
    </contour>
  </outline>
</glyph>
<glyph name="shadeva" format="1">
  <advance width="1491"/>
  <unicode hex="0936"/>
  <outline>
    <contour>
      <point x="1681" y="1197" type="line"/>
      <point x="1685" y="1206" type="line"/>
      <point x="1654" y="1330" type="line"/>
      <point x="112" y="1330" type="line"/>
      <point x="107" y="1321" type="line"/>
      <point x="139" y="1197" type="line"/>
      <point x="394" y="1202" type="line"/>
      <point x="373" y="1171"/>
      <point x="362" y="1136"/>
      <point x="354" y="1098" type="curve" smooth="yes"/>
      <point x="318" y="928"/>
      <point x="407" y="789"/>
      <point x="629" y="683" type="curve"/>
      <point x="559" y="616"/>
      <point x="478" y="558"/>
      <point x="382" y="514" type="curve"/>
      <point x="353" y="600"/>
      <point x="288" y="645"/>
      <point x="215" y="645" type="curve" smooth="yes"/>
      <point x="151" y="645"/>
      <point x="98" y="606"/>
      <point x="85" y="542" type="curve" smooth="yes"/>
      <point x="62" y="437"/>
      <point x="159" y="339"/>
      <point x="333" y="341" type="curve"/>
      <point x="404" y="55"/>
      <point x="541" y="-25"/>
      <point x="662" y="-25" type="curve" smooth="yes"/>
      <point x="750" y="-25"/>
      <point x="804" y="20"/>
      <point x="816" y="79" type="curve" smooth="yes"/>
      <point x="822" y="106"/>
      <point x="819" y="135"/>
      <point x="804" y="168" type="curve"/>
      <point x="758" y="151"/>
      <point x="711" y="135"/>
      <point x="648" y="135" type="curve" smooth="yes"/>
      <point x="546" y="135"/>
      <point x="458" y="180"/>
      <point x="421" y="348" type="curve"/>
      <point x="724" y="465"/>
      <point x="878" y="706"/>
      <point x="918" y="897" type="curve" smooth="yes"/>
      <point x="942" y="1011"/>
      <point x="918" y="1111"/>
      <point x="870" y="1183" type="curve"/>
      <point x="883" y="1197" type="line"/>
      <point x="1261" y="1197" type="line"/>
      <point x="1012" y="19" type="line"/>
      <point x="1157" y="-19" type="line"/>
      <point x="1168" y="-12" type="line"/>
      <point x="1421" y="1197" type="line"/>
    </contour>
    <contour>
      <point x="779" y="1205"/>
      <point x="830" y="1142"/>
      <point x="799" y="996" type="curve" smooth="yes"/>
      <point x="781" y="912"/>
      <point x="741" y="831"/>
      <point x="681" y="754" type="curve"/>
      <point x="519" y="843"/>
      <point x="469" y="931"/>
      <point x="490" y="1035" type="curve" smooth="yes"/>
      <point x="511" y="1133"/>
      <point x="580" y="1205"/>
      <point x="687" y="1205" type="curve" smooth="yes"/>
    </contour>
  </outline>
</glyph>
<glyph name="ssadeva" format="1">
  <advance width="1112.130"/>
  <unicode hex="0937"/>
  <outline>
    <contour>
      <point x="1298" y="1197" type="line"/>
      <point x="1306" y="1206" type="line"/>
      <point x="1276" y="1330" type="line"/>
      <point x="114" y="1330" type="line"/>
      <point x="106" y="1321" type="line"/>
      <point x="136" y="1197" type="line"/>
      <point x="265" y="1197" type="line"/>
      <point x="172" y="755" type="line" smooth="yes"/>
      <point x="126" y="536"/>
      <point x="279" y="351"/>
      <point x="481" y="351" type="curve" smooth="yes"/>
      <point x="553" y="351"/>
      <point x="634" y="374"/>
      <point x="706" y="416" type="curve"/>
      <point x="715" y="411" type="line"/>
      <point x="633" y="19" type="line"/>
      <point x="776" y="-19" type="line"/>
      <point x="786" y="-12" type="line"/>
      <point x="1040" y="1197" type="line"/>
    </contour>
    <contour>
      <point x="429" y="1197" type="line"/>
      <point x="880" y="1197" type="line"/>
      <point x="786" y="750" type="line" smooth="yes"/>
      <point x="779" y="714"/>
      <point x="765" y="680"/>
      <point x="745" y="649" type="curve"/>
      <point x="736" y="648" type="line"/>
    </contour>
    <contour>
      <point x="339" y="473"/>
      <point x="287" y="541"/>
      <point x="314" y="670" type="curve" smooth="yes"/>
      <point x="388" y="1022" type="line"/>
      <point x="396" y="1025" type="line"/>
      <point x="662" y="557" type="line"/>
      <point x="598" y="505"/>
      <point x="519" y="473"/>
      <point x="446" y="473" type="curve" smooth="yes"/>
    </contour>
  </outline>
</glyph>
<glyph name="sadeva" format="1">
  <advance width="1360.130"/>
  <unicode hex="0938"/>
  <outline>
    <contour>
      <point x="1546" y="1197" type="line"/>
      <point x="1554" y="1206" type="line"/>
      <point x="1524" y="1330" type="line"/>
      <point x="114" y="1330" type="line"/>
      <point x="106" y="1321" type="line"/>
      <point x="136" y="1197" type="line"/>
      <point x="540" y="1197" type="line"/>
      <point x="551" y="1149"/>
      <point x="556" y="1080"/>
      <point x="556" y="1033" type="curve" smooth="yes"/>
      <point x="556" y="899"/>
      <point x="524" y="802"/>
      <point x="416" y="733" type="curve"/>
      <point x="362" y="765"/>
      <point x="305" y="779"/>
      <point x="261" y="779" type="curve" smooth="yes"/>
      <point x="159" y="779"/>
      <point x="96" y="708"/>
      <point x="96" y="617" type="curve" smooth="yes"/>
      <point x="96" y="407"/>
      <point x="358" y="-2"/>
      <point x="524" y="-2" type="curve" smooth="yes"/>
      <point x="566" y="-2"/>
      <point x="613" y="24"/>
      <point x="632" y="66" type="curve"/>
      <point x="451" y="171"/>
      <point x="329" y="290"/>
      <point x="244" y="479" type="curve"/>
      <point x="248" y="487" type="line"/>
      <point x="352" y="508"/>
      <point x="432" y="544"/>
      <point x="495" y="591" type="curve"/>
      <point x="593" y="540"/>
      <point x="709" y="503"/>
      <point x="814" y="503" type="curve" smooth="yes"/>
      <point x="869" y="503"/>
      <point x="925" y="513"/>
      <point x="981" y="538" type="curve"/>
      <point x="989" y="532" type="line"/>
      <point x="881" y="19" type="line"/>
      <point x="1024" y="-19" type="line"/>
      <point x="1035" y="-12" type="line"/>
      <point x="1288" y="1197" type="line"/>
    </contour>
    <contour>
      <point x="650" y="1197" type="line"/>
      <point x="1128" y="1197" type="line"/>
      <point x="1051" y="830" type="line" smooth="yes"/>
      <point x="1024" y="711"/>
      <point x="903" y="626"/>
      <point x="758" y="626" type="curve" smooth="yes"/>
      <point x="705" y="626"/>
      <point x="638" y="637"/>
      <point x="576" y="660" type="curve"/>
      <point x="574" y="668" type="line"/>
      <point x="648" y="759"/>
      <point x="673" y="850"/>
      <point x="673" y="952" type="curve" smooth="yes"/>
      <point x="673" y="1027"/>
      <point x="661" y="1119"/>
      <point x="642" y="1188" type="curve"/>
    </contour>
  </outline>
</glyph>
<glyph name="hadeva" format="1">
  <advance width="1006.130"/>
  <unicode hex="0939"/>
  <outline>
    <contour>
      <point x="1192" y="1197" type="line"/>
      <point x="1200" y="1206" type="line"/>
      <point x="1170" y="1330" type="line"/>
      <point x="114" y="1330" type="line"/>
      <point x="106" y="1321" type="line"/>
      <point x="136" y="1197" type="line"/>
      <point x="784" y="1197" type="line"/>
      <point x="748" y="1024" type="line" smooth="yes"/>
      <point x="747" y="1019"/>
      <point x="743" y="1016"/>
      <point x="738" y="1016" type="curve" smooth="yes"/>
      <point x="395" y="1016" type="line" smooth="yes"/>
      <point x="234" y="1016"/>
      <point x="150" y="916"/>
      <point x="150" y="798" type="curve" smooth="yes"/>
      <point x="150" y="726"/>
      <point x="179" y="639"/>
      <point x="241" y="579" type="curve"/>
      <point x="161" y="507"/>
      <point x="104" y="409"/>
      <point x="104" y="292" type="curve" smooth="yes"/>
      <point x="104" y="67"/>
      <point x="304" y="-123"/>
      <point x="563" y="-123" type="curve" smooth="yes"/>
      <point x="677" y="-123"/>
      <point x="724" y="-88"/>
      <point x="736" y="-32" type="curve"/>
      <point x="414" y="-32"/>
      <point x="246" y="98"/>
      <point x="246" y="262" type="curve" smooth="yes"/>
      <point x="246" y="420"/>
      <point x="393" y="556"/>
      <point x="601" y="556" type="curve" smooth="yes"/>
      <point x="711" y="556"/>
      <point x="766" y="514"/>
      <point x="766" y="451" type="curve" smooth="yes"/>
      <point x="766" y="379"/>
      <point x="703" y="314"/>
      <point x="567" y="258" type="curve"/>
      <point x="593" y="190"/>
      <point x="628" y="170"/>
      <point x="670" y="170" type="curve" smooth="yes"/>
      <point x="765" y="170"/>
      <point x="866" y="264"/>
      <point x="866" y="419" type="curve" smooth="yes"/>
      <point x="866" y="575"/>
      <point x="749" y="699"/>
      <point x="560" y="699" type="curve" smooth="yes"/>
      <point x="481" y="699"/>
      <point x="396" y="679"/>
      <point x="322" y="637" type="curve"/>
      <point x="296" y="666"/>
      <point x="280" y="703"/>
      <point x="280" y="739" type="curve" smooth="yes"/>
      <point x="280" y="802"/>
      <point x="329" y="875"/>
      <point x="447" y="875" type="curve" smooth="yes"/>
      <point x="862" y="875" type="line"/>
      <point x="872" y="883" type="line"/>
      <point x="938" y="1197" type="line"/>
    </contour>
  </outline>
</glyph>
<glyph name="oesigndeva" format="1">
  <advance width="0"/>
  <unicode hex="093A"/>
  <outline>
    <contour>
      <point x="-64" y="1258" type="line"/>
      <point x="4" y="1587" type="line"/>
      <point x="-126" y="1615" type="line"/>
      <point x="-137" y="1608" type="line"/>
      <point x="-204" y="1279" type="line"/>
      <point x="-74" y="1251" type="line"/>
    </contour>
    <contour>
      <point x="-108" y="666" type="move" name="_class0"/>
    </contour>
  </outline>
</glyph>
<glyph name="ooesigndeva" format="1">
  <advance width="573"/>
  <unicode hex="093B"/>
  <outline>
    <contour>
      <point x="737" y="1330" type="line"/>
      <point x="522" y="1330" type="line"/>
      <point x="575" y="1587" type="line"/>
      <point x="447" y="1615" type="line"/>
      <point x="437" y="1608" type="line"/>
      <point x="379" y="1330" type="line"/>
      <point x="114" y="1330" type="line"/>
      <point x="106" y="1321" type="line"/>
      <point x="136" y="1197" type="line"/>
      <point x="342" y="1197" type="line"/>
      <point x="94" y="19" type="line"/>
      <point x="237" y="-19" type="line"/>
      <point x="248" y="-12" type="line"/>
      <point x="502" y="1197" type="line"/>
      <point x="759" y="1197" type="line"/>
      <point x="767" y="1206" type="line"/>
    </contour>
  </outline>
</glyph>
<glyph name="nuktadeva" format="1">
  <advance width="0"/>
  <unicode hex="093C"/>
  <outline>
    <contour>
      <point x="-827" y="172"/>
      <point x="-885" y="120"/>
      <point x="-885" y="61" type="curve" smooth="yes"/>
      <point x="-885" y="16"/>
      <point x="-853" y="-19"/>
      <point x="-807" y="-19" type="curve" smooth="yes"/>
      <point x="-748" y="-19"/>
      <point x="-690" y="33"/>
      <point x="-690" y="93" type="curve" smooth="yes"/>
      <point x="-690" y="137"/>
      <point x="-722" y="172"/>
      <point x="-767" y="172" type="curve" smooth="yes"/>
    </contour>
  </outline>
</glyph>
<glyph name="avagrahadeva" format="1">
  <advance width="979"/>
  <unicode hex="093D"/>
  <outline>
    <contour>
      <point x="984" y="1206" type="line"/>
      <point x="953" y="1330" type="line"/>
      <point x="593" y="1330" type="line" smooth="yes"/>
      <point x="418" y="1330"/>
      <point x="293" y="1259"/>
      <point x="264" y="1122" type="curve" smooth="yes"/>
      <point x="248" y="1046"/>
      <point x="269" y="989"/>
      <point x="295" y="952" type="curve" smooth="yes"/>
      <point x="426" y="673"/>
      <point x="795" y="697"/>
      <point x="748" y="472" type="curve" smooth="yes"/>
      <point x="722" y="349"/>
      <point x="599" y="255"/>
      <point x="455" y="255" type="curve" smooth="yes"/>
      <point x="310" y="255"/>
      <point x="197" y="354"/>
      <point x="209" y="611" type="curve"/>
      <point x="145" y="606"/>
      <point x="133" y="565"/>
      <point x="126" y="529" type="curve" smooth="yes"/>
      <point x="90" y="358"/>
      <point x="212" y="99"/>
      <point x="494" y="99" type="curve" smooth="yes"/>
      <point x="682" y="99"/>
      <point x="809" y="219"/>
      <point x="844" y="383" type="curve" smooth="yes"/>
      <point x="861" y="462"/>
      <point x="851" y="534"/>
      <point x="817" y="597" type="curve" smooth="yes"/>
      <point x="709" y="852"/>
      <point x="343" y="870"/>
      <point x="378" y="1040" type="curve" smooth="yes"/>
      <point x="396" y="1125"/>
      <point x="485" y="1198"/>
      <point x="662" y="1197" type="curve" smooth="yes"/>
      <point x="980" y="1197" type="line"/>
    </contour>
  </outline>
</glyph>
<glyph name="aasigndeva" format="1">
  <advance width="573.130"/>
  <unicode hex="093E"/>
  <outline>
    <contour>
      <point x="248" y="-12" type="line"/>
      <point x="502" y="1197" type="line"/>
      <point x="759" y="1197" type="line"/>
      <point x="767" y="1206" type="line"/>
      <point x="737" y="1330" type="line"/>
      <point x="114" y="1330" type="line"/>
      <point x="106" y="1321" type="line"/>
      <point x="136" y="1197" type="line"/>
      <point x="342" y="1197" type="line"/>
      <point x="94" y="19" type="line"/>
      <point x="237" y="-19" type="line"/>
    </contour>
  </outline>
</glyph>
<glyph name="isigndeva" format="1">
  <advance width="573"/>
  <unicode hex="093F"/>
  <outline>
    <contour>
      <point x="486" y="1906"/>
      <point x="320" y="1767"/>
      <point x="283" y="1592" type="curve" smooth="yes"/>
      <point x="262" y="1494"/>
      <point x="288" y="1410"/>
      <point x="337" y="1344" type="curve"/>
      <point x="322" y="1330" type="line"/>
      <point x="112" y="1330" type="line"/>
      <point x="107" y="1321" type="line"/>
      <point x="139" y="1197" type="line"/>
      <point x="343" y="1197" type="line"/>
      <point x="94" y="19" type="line"/>
      <point x="239" y="-19" type="line"/>
      <point x="250" y="-12" type="line"/>
      <point x="503" y="1197" type="line"/>
      <point x="763" y="1197" type="line"/>
      <point x="767" y="1206" type="line"/>
      <point x="736" y="1330" type="line"/>
      <point x="451" y="1326" type="line"/>
      <point x="400" y="1379"/>
      <point x="389" y="1439"/>
      <point x="402" y="1501" type="curve" smooth="yes"/>
      <point x="431" y="1641"/>
      <point x="578" y="1746"/>
      <point x="805" y="1746" type="curve" smooth="yes"/>
      <point x="1101" y="1746"/>
      <point x="1389" y="1565"/>
      <point x="1522" y="1257" type="curve"/>
      <point x="1610" y="1300" type="line"/>
      <point x="1429" y="1697"/>
      <point x="1103" y="1906"/>
      <point x="762" y="1906" type="curve" smooth="yes"/>
    </contour>
  </outline>
</glyph>
<glyph name="iisigndeva" format="1">
  <advance width="573"/>
  <unicode hex="0940"/>
  <outline>
    <contour>
      <point x="248" y="-12" type="line"/>
      <point x="502" y="1197" type="line"/>
      <point x="759" y="1197" type="line"/>
      <point x="767" y="1206" type="line"/>
      <point x="737" y="1330" type="line"/>
      <point x="493" y="1330" type="line"/>
      <point x="369" y="1788"/>
      <point x="161" y="1910"/>
      <point x="-43" y="1910" type="curve" smooth="yes"/>
      <point x="-263" y="1910"/>
      <point x="-399" y="1776"/>
      <point x="-399" y="1608" type="curve" smooth="yes"/>
      <point x="-399" y="1518"/>
      <point x="-356" y="1404"/>
      <point x="-222" y="1299" type="curve"/>
      <point x="-66" y="1297" type="line"/>
      <point x="-191" y="1368"/>
      <point x="-249" y="1470"/>
      <point x="-249" y="1561" type="curve" smooth="yes"/>
      <point x="-249" y="1672"/>
      <point x="-161" y="1766"/>
      <point x="-13" y="1766" type="curve" smooth="yes"/>
      <point x="138" y="1766"/>
      <point x="289" y="1663"/>
      <point x="386" y="1340" type="curve"/>
      <point x="378" y="1330" type="line"/>
      <point x="114" y="1330" type="line"/>
      <point x="106" y="1321" type="line"/>
      <point x="136" y="1197" type="line"/>
      <point x="342" y="1197" type="line"/>
      <point x="95" y="19" type="line"/>
      <point x="238" y="-19" type="line"/>
    </contour>
  </outline>
</glyph>
<glyph name="usigndeva" format="1">
  <advance width="0"/>
  <unicode hex="0941"/>
  <outline>
    <contour>
      <point x="-568" y="30"/>
      <point x="-678" y="-44"/>
      <point x="-678" y="-118" type="curve" smooth="yes"/>
      <point x="-678" y="-156"/>
      <point x="-652" y="-194"/>
      <point x="-590" y="-198" type="curve"/>
      <point x="-518" y="-126"/>
      <point x="-462" y="-97"/>
      <point x="-406" y="-97" type="curve" smooth="yes"/>
      <point x="-348" y="-97"/>
      <point x="-312" y="-131"/>
      <point x="-312" y="-186" type="curve" smooth="yes"/>
      <point x="-312" y="-286"/>
      <point x="-415" y="-369"/>
      <point x="-567" y="-369" type="curve" smooth="yes"/>
      <point x="-748" y="-369"/>
      <point x="-863" y="-245"/>
      <point x="-920" y="-14" type="curve"/>
      <point x="-951" y="-22"/>
      <point x="-980" y="-52"/>
      <point x="-980" y="-89" type="curve" smooth="yes"/>
      <point x="-980" y="-193"/>
      <point x="-836" y="-515"/>
      <point x="-540" y="-515" type="curve" smooth="yes"/>
      <point x="-354" y="-515"/>
      <point x="-208" y="-399"/>
      <point x="-208" y="-224" type="curve" smooth="yes"/>
      <point x="-208" y="-86"/>
      <point x="-306" y="30"/>
      <point x="-448" y="30" type="curve" smooth="yes"/>
    </contour>
    <contour>
      <point x="-293" y="61" type="move" name="_class0"/>
    </contour>
  </outline>
</glyph>
<glyph name="uusigndeva" format="1">
  <advance width="0"/>
  <unicode hex="0942"/>
  <outline>
    <contour>
      <point x="-624" y="34"/>
      <point x="-766" y="-77"/>
      <point x="-766" y="-242" type="curve" smooth="yes"/>
      <point x="-766" y="-374"/>
      <point x="-672" y="-493"/>
      <point x="-532" y="-493" type="curve" smooth="yes"/>
      <point x="-419" y="-493"/>
      <point x="-306" y="-422"/>
      <point x="-306" y="-351" type="curve" smooth="yes"/>
      <point x="-306" y="-313"/>
      <point x="-332" y="-275"/>
      <point x="-394" y="-271" type="curve"/>
      <point x="-462" y="-335"/>
      <point x="-521" y="-367"/>
      <point x="-576" y="-367" type="curve" smooth="yes"/>
      <point x="-631" y="-367"/>
      <point x="-662" y="-331"/>
      <point x="-662" y="-281" type="curve" smooth="yes"/>
      <point x="-662" y="-183"/>
      <point x="-568" y="-113"/>
      <point x="-432" y="-113" type="curve" smooth="yes"/>
      <point x="-280" y="-113"/>
      <point x="-153" y="-205"/>
      <point x="-30" y="-386" type="curve"/>
      <point x="-3" y="-376"/>
      <point x="11" y="-351"/>
      <point x="11" y="-337" type="curve" smooth="yes"/>
      <point x="11" y="-263"/>
      <point x="-200" y="34"/>
      <point x="-453" y="34" type="curve" smooth="yes"/>
    </contour>
    <contour>
      <point x="-303" y="69" type="move" name="_class0"/>
    </contour>
  </outline>
</glyph>
<glyph name="rvocalicsigndeva" format="1">
  <advance width="0"/>
  <unicode hex="0943"/>
  <outline>
    <contour>
      <point x="-325" y="-11" type="line"/>
      <point x="-411" y="98" type="line"/>
      <point x="-647" y="38"/>
      <point x="-740" y="-67"/>
      <point x="-740" y="-188" type="curve" smooth="yes"/>
      <point x="-740" y="-311"/>
      <point x="-641" y="-436"/>
      <point x="-469" y="-436" type="curve" smooth="yes"/>
      <point x="-340" y="-436"/>
      <point x="-174" y="-372"/>
      <point x="-174" y="-276" type="curve" smooth="yes"/>
      <point x="-174" y="-237"/>
      <point x="-199" y="-199"/>
      <point x="-228" y="-189" type="curve"/>
      <point x="-302" y="-252"/>
      <point x="-432" y="-318"/>
      <point x="-527" y="-318" type="curve" smooth="yes"/>
      <point x="-604" y="-318"/>
      <point x="-631" y="-272"/>
      <point x="-631" y="-229" type="curve" smooth="yes"/>
      <point x="-631" y="-162"/>
      <point x="-565" y="-83"/>
      <point x="-327" y="-22" type="curve"/>
    </contour>
    <contour>
      <point x="-289" y="50" type="move" name="_class0"/>
    </contour>
  </outline>
</glyph>
<glyph name="rrvocalicsigndeva" format="1">
  <advance width="0"/>
  <unicode hex="0944"/>
  <outline>
    <contour>
      <point x="-319" y="-528"/>
      <point x="-439" y="-579"/>
      <point x="-513" y="-579" type="curve" smooth="yes"/>
      <point x="-560" y="-579"/>
      <point x="-586" y="-556"/>
      <point x="-586" y="-520" type="curve" smooth="yes"/>
      <point x="-586" y="-464"/>
      <point x="-547" y="-406"/>
      <point x="-283" y="-292" type="curve"/>
      <point x="-278" y="-281" type="line"/>
      <point x="-345" y="-182" type="line"/>
      <point x="-477" y="-260"/>
      <point x="-527" y="-286"/>
      <point x="-574" y="-286" type="curve" smooth="yes"/>
      <point x="-617" y="-286"/>
      <point x="-638" y="-263"/>
      <point x="-638" y="-230" type="curve" smooth="yes"/>
      <point x="-638" y="-185"/>
      <point x="-605" y="-94"/>
      <point x="-328" y="-22" type="curve"/>
      <point x="-325" y="-11" type="line"/>
      <point x="-410" y="93" type="line"/>
      <point x="-671" y="27"/>
      <point x="-747" y="-96"/>
      <point x="-747" y="-187" type="curve" smooth="yes"/>
      <point x="-747" y="-251"/>
      <point x="-713" y="-317"/>
      <point x="-653" y="-352" type="curve"/>
      <point x="-653" y="-360" type="line"/>
      <point x="-697" y="-408"/>
      <point x="-705" y="-442"/>
      <point x="-705" y="-478" type="curve" smooth="yes"/>
      <point x="-705" y="-586"/>
      <point x="-605" y="-687"/>
      <point x="-460" y="-687" type="curve" smooth="yes"/>
      <point x="-314" y="-687"/>
      <point x="-183" y="-592"/>
      <point x="-183" y="-514" type="curve" smooth="yes"/>
      <point x="-183" y="-477"/>
      <point x="-210" y="-449"/>
      <point x="-243" y="-435" type="curve"/>
    </contour>
    <contour>
      <point x="-317" y="69" type="move" name="_class0"/>
    </contour>
  </outline>
</glyph>
<glyph name="ecandrasigndeva" format="1">
  <advance width="0"/>
  <unicode hex="0945"/>
  <outline>
    <contour>
      <point x="-367" y="1873"/>
      <point x="-379" y="1858"/>
      <point x="-385" y="1828" type="curve" smooth="yes"/>
      <point x="-416" y="1685"/>
      <point x="-315" y="1486"/>
      <point x="-104" y="1486" type="curve" smooth="yes"/>
      <point x="54" y="1486"/>
      <point x="197" y="1603"/>
      <point x="228" y="1751" type="curve" smooth="yes"/>
      <point x="242" y="1818"/>
      <point x="214" y="1863"/>
      <point x="156" y="1890" type="curve"/>
      <point x="101" y="1705"/>
      <point x="-17" y="1619"/>
      <point x="-140" y="1619" type="curve" smooth="yes"/>
      <point x="-244" y="1619"/>
      <point x="-316" y="1684"/>
      <point x="-342" y="1880" type="curve"/>
    </contour>
    <contour>
      <point x="-102" y="666" type="move" name="_class0"/>
    </contour>
  </outline>
</glyph>
<glyph name="eshortsigndeva" format="1">
  <advance width="0"/>
  <unicode hex="0946"/>
  <outline>
    <contour>
      <point x="-49" y="1311" type="line"/>
      <point x="-45" y="1330" type="line"/>
      <point x="-23" y="1646"/>
      <point x="-190" y="1677"/>
      <point x="-485" y="1732" type="curve" smooth="yes"/>
      <point x="-697" y="1772"/>
      <point x="-810" y="1794"/>
      <point x="-869" y="1956" type="curve"/>
      <point x="-897" y="1917"/>
      <point x="-909" y="1886"/>
      <point x="-909" y="1839" type="curve" smooth="yes"/>
      <point x="-909" y="1639"/>
      <point x="-631" y="1592"/>
      <point x="-416" y="1558" type="curve" smooth="yes"/>
      <point x="-247" y="1532"/>
      <point x="-146" y="1514"/>
      <point x="-146" y="1434" type="curve" smooth="yes"/>
      <point x="-146" y="1406"/>
      <point x="-160" y="1372"/>
      <point x="-185" y="1330" type="curve"/>
      <point x="-189" y="1311" type="line"/>
    </contour>
    <contour>
      <point x="106" y="665" type="move" name="_class0"/>
    </contour>
  </outline>
</glyph>
<glyph name="esigndeva" format="1">
  <advance width="0"/>
  <unicode hex="0947"/>
  <outline>
    <contour>
      <point x="-207" y="1330" type="line"/>
      <point x="-219" y="1272" type="line"/>
      <point x="-93" y="1272" type="line"/>
      <point x="-81" y="1330" type="line"/>
      <point x="-369" y="1842"/>
      <point x="-503" y="1922"/>
      <point x="-638" y="1922" type="curve" smooth="yes"/>
      <point x="-770" y="1922"/>
      <point x="-856" y="1848"/>
      <point x="-856" y="1769" type="curve" smooth="yes"/>
      <point x="-856" y="1723"/>
      <point x="-826" y="1684"/>
      <point x="-780" y="1668" type="curve"/>
      <point x="-733" y="1735"/>
      <point x="-675" y="1771"/>
      <point x="-601" y="1771" type="curve" smooth="yes"/>
      <point x="-496" y="1771"/>
      <point x="-411" y="1698"/>
      <point x="-202" y="1338" type="curve"/>
    </contour>
    <contour>
      <point x="90" y="664" type="move" name="_class0"/>
    </contour>
  </outline>
</glyph>
<glyph name="aisigndeva" format="1">
  <advance width="0"/>
  <unicode hex="0948"/>
  <outline>
    <contour>
      <point x="-470" y="2032"/>
      <point x="-524" y="1979"/>
      <point x="-535" y="1924" type="curve" smooth="yes"/>
      <point x="-548" y="1865"/>
      <point x="-509" y="1824"/>
      <point x="-460" y="1798" type="curve"/>
      <point x="-434" y="1832"/>
      <point x="-385" y="1864"/>
      <point x="-335" y="1864" type="curve" smooth="yes"/>
      <point x="-271" y="1864"/>
      <point x="-227" y="1827"/>
      <point x="-178" y="1460" type="curve"/>
      <point x="-199" y="1445" type="line"/>
      <point x="-363" y="1612"/>
      <point x="-563" y="1742"/>
      <point x="-704" y="1742" type="curve" smooth="yes"/>
      <point x="-781" y="1742"/>
      <point x="-857" y="1699"/>
      <point x="-871" y="1630" type="curve" smooth="yes"/>
      <point x="-884" y="1570"/>
      <point x="-851" y="1513"/>
      <point x="-777" y="1484" type="curve"/>
      <point x="-745" y="1543"/>
      <point x="-683" y="1587"/>
      <point x="-607" y="1587" type="curve" smooth="yes"/>
      <point x="-516" y="1587"/>
      <point x="-349" y="1496"/>
      <point x="-205" y="1334" type="curve"/>
      <point x="-222" y="1282" type="line"/>
      <point x="-79" y="1282" type="line"/>
      <point x="-71" y="1325" type="line"/>
      <point x="-117" y="1933"/>
      <point x="-250" y="2032"/>
      <point x="-379" y="2032" type="curve" smooth="yes"/>
    </contour>
    <contour>
      <point x="-111" y="664" type="move" name="_class0"/>
    </contour>
  </outline>
</glyph>
<glyph name="ocandrasigndeva" format="1">
  <advance width="483"/>
  <unicode hex="0949"/>
  <outline>
    <contour>
      <point x="-84" y="1873"/>
      <point x="-96" y="1858"/>
      <point x="-102" y="1828" type="curve" smooth="yes"/>
      <point x="-133" y="1685"/>
      <point x="-32" y="1486"/>
      <point x="179" y="1486" type="curve" smooth="yes"/>
      <point x="337" y="1486"/>
      <point x="480" y="1603"/>
      <point x="511" y="1751" type="curve" smooth="yes"/>
      <point x="525" y="1818"/>
      <point x="497" y="1863"/>
      <point x="439" y="1890" type="curve"/>
      <point x="384" y="1705"/>
      <point x="266" y="1619"/>
      <point x="143" y="1619" type="curve" smooth="yes"/>
      <point x="39" y="1619"/>
      <point x="-33" y="1684"/>
      <point x="-59" y="1880" type="curve"/>
    </contour>
    <contour>
      <point x="160" y="-12" type="line"/>
      <point x="413" y="1197" type="line"/>
      <point x="673" y="1197" type="line"/>
      <point x="677" y="1206" type="line"/>
      <point x="646" y="1330" type="line"/>
      <point x="22" y="1330" type="line"/>
      <point x="17" y="1321" type="line"/>
      <point x="49" y="1197" type="line"/>
      <point x="253" y="1197" type="line"/>
      <point x="4" y="19" type="line"/>
      <point x="149" y="-19" type="line"/>
    </contour>
  </outline>
</glyph>
<glyph name="oshortsigndeva" format="1">
  <advance width="573"/>
  <unicode hex="094A"/>
  <outline>
    <contour>
      <point x="763" y="1197" type="line"/>
      <point x="767" y="1206" type="line"/>
      <point x="736" y="1330" type="line"/>
      <point x="524" y="1325" type="line"/>
      <point x="531" y="1598"/>
      <point x="386" y="1701"/>
      <point x="72" y="1730" type="curve" smooth="yes"/>
      <point x="-180" y="1759"/>
      <point x="-252" y="1813"/>
      <point x="-304" y="1956" type="curve"/>
      <point x="-316" y="1939"/>
      <point x="-325" y="1918"/>
      <point x="-330" y="1891" type="curve" smooth="yes"/>
      <point x="-363" y="1735"/>
      <point x="-239" y="1602"/>
      <point x="168" y="1558" type="curve" smooth="yes"/>
      <point x="388" y="1536"/>
      <point x="443" y="1517"/>
      <point x="423" y="1424" type="curve" smooth="yes"/>
      <point x="418" y="1398"/>
      <point x="403" y="1367"/>
      <point x="385" y="1335" type="curve"/>
      <point x="112" y="1330" type="line"/>
      <point x="107" y="1321" type="line"/>
      <point x="139" y="1197" type="line"/>
      <point x="343" y="1197" type="line"/>
      <point x="94" y="19" type="line"/>
      <point x="239" y="-19" type="line"/>
      <point x="250" y="-12" type="line"/>
      <point x="503" y="1197" type="line"/>
    </contour>
  </outline>
</glyph>
<glyph name="osigndeva" format="1">
  <advance width="573"/>
  <unicode hex="094B"/>
  <outline>
    <contour>
      <point x="503" y="1197" type="line"/>
      <point x="763" y="1197" type="line"/>
      <point x="767" y="1206" type="line"/>
      <point x="736" y="1330" type="line"/>
      <point x="490" y="1326" type="line"/>
      <point x="192" y="1857"/>
      <point x="47" y="1932"/>
      <point x="-88" y="1932" type="curve" smooth="yes"/>
      <point x="-209" y="1932"/>
      <point x="-271" y="1867"/>
      <point x="-285" y="1804" type="curve" smooth="yes"/>
      <point x="-298" y="1741"/>
      <point x="-262" y="1682"/>
      <point x="-188" y="1654" type="curve"/>
      <point x="-154" y="1707"/>
      <point x="-91" y="1751"/>
      <point x="-10" y="1751" type="curve" smooth="yes"/>
      <point x="88" y="1751"/>
      <point x="165" y="1694"/>
      <point x="377" y="1344" type="curve"/>
      <point x="364" y="1330" type="line"/>
      <point x="112" y="1330" type="line"/>
      <point x="107" y="1321" type="line"/>
      <point x="139" y="1197" type="line"/>
      <point x="343" y="1197" type="line"/>
      <point x="94" y="19" type="line"/>
      <point x="239" y="-19" type="line"/>
      <point x="250" y="-12" type="line"/>
    </contour>
  </outline>
</glyph>
<glyph name="ausigndeva" format="1">
  <advance width="573"/>
  <unicode hex="094C"/>
  <outline>
    <contour>
      <point x="763" y="1197" type="line"/>
      <point x="767" y="1206" type="line"/>
      <point x="736" y="1330" type="line"/>
      <point x="512" y="1325" type="line"/>
      <point x="463" y="1932"/>
      <point x="333" y="2032"/>
      <point x="204" y="2032" type="curve" smooth="yes"/>
      <point x="113" y="2032"/>
      <point x="59" y="1979"/>
      <point x="48" y="1924" type="curve" smooth="yes"/>
      <point x="35" y="1865"/>
      <point x="74" y="1824"/>
      <point x="123" y="1798" type="curve"/>
      <point x="149" y="1832"/>
      <point x="198" y="1864"/>
      <point x="248" y="1864" type="curve" smooth="yes"/>
      <point x="313" y="1864"/>
      <point x="358" y="1826"/>
      <point x="402" y="1439" type="curve"/>
      <point x="230" y="1607"/>
      <point x="23" y="1742"/>
      <point x="-121" y="1742" type="curve" smooth="yes"/>
      <point x="-198" y="1742"/>
      <point x="-274" y="1699"/>
      <point x="-288" y="1630" type="curve" smooth="yes"/>
      <point x="-301" y="1570"/>
      <point x="-268" y="1513"/>
      <point x="-194" y="1484" type="curve"/>
      <point x="-162" y="1543"/>
      <point x="-100" y="1587"/>
      <point x="-24" y="1587" type="curve" smooth="yes"/>
      <point x="67" y="1587"/>
      <point x="234" y="1496"/>
      <point x="378" y="1334" type="curve"/>
      <point x="112" y="1330" type="line"/>
      <point x="107" y="1321" type="line"/>
      <point x="139" y="1197" type="line"/>
      <point x="343" y="1197" type="line"/>
      <point x="94" y="19" type="line"/>
      <point x="239" y="-19" type="line"/>
      <point x="250" y="-12" type="line"/>
      <point x="503" y="1197" type="line"/>
    </contour>
  </outline>
</glyph>
<glyph name="viramadeva" format="1">
  <advance width="0"/>
  <unicode hex="094D"/>
  <outline>
    <contour>
      <point x="-610" y="-92"/>
      <point x="-672" y="-133"/>
      <point x="-672" y="-191" type="curve" smooth="yes"/>
      <point x="-672" y="-220"/>
      <point x="-655" y="-251"/>
      <point x="-624" y="-278" type="curve"/>
      <point x="-586" y="-268"/>
      <point x="-530" y="-257"/>
      <point x="-473" y="-257" type="curve" smooth="yes"/>
      <point x="-355" y="-257"/>
      <point x="-227" y="-304"/>
      <point x="-71" y="-539" type="curve"/>
      <point x="-44" y="-529"/>
      <point x="-30" y="-505"/>
      <point x="-30" y="-489" type="curve" smooth="yes"/>
      <point x="-30" y="-434"/>
      <point x="-124" y="-273"/>
      <point x="-270" y="-171" type="curve" smooth="yes"/>
      <point x="-363" y="-106"/>
      <point x="-440" y="-92"/>
      <point x="-502" y="-92" type="curve" smooth="yes"/>
    </contour>
    <contour>
      <point x="-305" y="42" type="move" name="_class0"/>
    </contour>
  </outline>
</glyph>
<glyph name="eprishthamatrasigndeva" format="1">
  <advance width="573"/>
  <unicode hex="094E"/>
  <outline>
    <contour>
      <point x="248" y="-12" type="line"/>
      <point x="502" y="1197" type="line"/>
      <point x="759" y="1197" type="line"/>
      <point x="767" y="1206" type="line"/>
      <point x="737" y="1330" type="line"/>
      <point x="370" y="1330" type="line"/>
      <point x="94" y="19" type="line"/>
      <point x="237" y="-19" type="line"/>
    </contour>
  </outline>
</glyph>
<glyph name="awsigndeva" format="1">
  <advance width="573"/>
  <unicode hex="094F"/>
  <outline>
    <contour>
      <point x="763" y="1197" type="line"/>
      <point x="767" y="1206" type="line"/>
      <point x="736" y="1330" type="line"/>
      <point x="523" y="1324" type="line"/>
      <point x="567" y="1640"/>
      <point x="485" y="1791"/>
      <point x="167" y="1857" type="curve" smooth="yes"/>
      <point x="-27" y="1906"/>
      <point x="-60" y="1932"/>
      <point x="-79" y="2032" type="curve"/>
      <point x="-96" y="2014"/>
      <point x="-107" y="1984"/>
      <point x="-112" y="1958" type="curve" smooth="yes"/>
      <point x="-132" y="1864"/>
      <point x="-78" y="1761"/>
      <point x="212" y="1713" type="curve" smooth="yes"/>
      <point x="405" y="1677"/>
      <point x="474" y="1603"/>
      <point x="458" y="1474" type="curve"/>
      <point x="413" y="1568"/>
      <point x="283" y="1631"/>
      <point x="21" y="1631" type="curve" smooth="yes"/>
      <point x="-235" y="1631"/>
      <point x="-311" y="1701"/>
      <point x="-362" y="1826" type="curve"/>
      <point x="-373" y="1809"/>
      <point x="-382" y="1788"/>
      <point x="-388" y="1761" type="curve" smooth="yes"/>
      <point x="-414" y="1635"/>
      <point x="-326" y="1487"/>
      <point x="93" y="1487" type="curve" smooth="yes"/>
      <point x="371" y="1487"/>
      <point x="421" y="1462"/>
      <point x="409" y="1404" type="curve" smooth="yes"/>
      <point x="405" y="1383"/>
      <point x="395" y="1359"/>
      <point x="383" y="1335" type="curve"/>
      <point x="112" y="1330" type="line"/>
      <point x="107" y="1321" type="line"/>
      <point x="139" y="1197" type="line"/>
      <point x="343" y="1197" type="line"/>
      <point x="94" y="19" type="line"/>
      <point x="239" y="-19" type="line"/>
      <point x="250" y="-12" type="line"/>
      <point x="503" y="1197" type="line"/>
    </contour>
  </outline>
</glyph>
<glyph name="omdeva" format="1">
  <advance width="1728"/>
  <unicode hex="0950"/>
  <outline>
    <contour>
      <point x="1376" y="1389"/>
      <point x="1421" y="1427"/>
      <point x="1431" y="1476" type="curve" smooth="yes"/>
      <point x="1444" y="1534"/>
      <point x="1403" y="1584"/>
      <point x="1343" y="1584" type="curve" smooth="yes"/>
      <point x="1296" y="1584"/>
      <point x="1251" y="1546"/>
      <point x="1241" y="1498" type="curve" smooth="yes"/>
      <point x="1229" y="1439"/>
      <point x="1269" y="1389"/>
      <point x="1328" y="1389" type="curve" smooth="yes"/>
    </contour>
    <contour>
      <point x="1456" y="1116"/>
      <point x="1599" y="1233"/>
      <point x="1630" y="1381" type="curve" smooth="yes"/>
      <point x="1644" y="1448"/>
      <point x="1616" y="1493"/>
      <point x="1558" y="1520" type="curve"/>
      <point x="1503" y="1335"/>
      <point x="1386" y="1249"/>
      <point x="1263" y="1249" type="curve" smooth="yes"/>
      <point x="1159" y="1249"/>
      <point x="1086" y="1314"/>
      <point x="1061" y="1510" type="curve"/>
      <point x="1035" y="1503"/>
      <point x="1023" y="1488"/>
      <point x="1017" y="1458" type="curve" smooth="yes"/>
      <point x="986" y="1315"/>
      <point x="1087" y="1116"/>
      <point x="1298" y="1116" type="curve" smooth="yes"/>
    </contour>
    <contour>
      <point x="1274" y="963"/>
      <point x="1168" y="671"/>
      <point x="938" y="671" type="curve" smooth="yes"/>
      <point x="887" y="671"/>
      <point x="846" y="677"/>
      <point x="812" y="712" type="curve"/>
      <point x="901" y="772"/>
      <point x="955" y="847"/>
      <point x="976" y="949" type="curve" smooth="yes"/>
      <point x="1022" y="1166"/>
      <point x="880" y="1325"/>
      <point x="634" y="1325" type="curve" smooth="yes"/>
      <point x="441" y="1325"/>
      <point x="319" y="1225"/>
      <point x="299" y="1129" type="curve" smooth="yes"/>
      <point x="283" y="1050"/>
      <point x="335" y="997"/>
      <point x="422" y="991" type="curve"/>
      <point x="442" y="1115"/>
      <point x="553" y="1214"/>
      <point x="701" y="1214" type="curve" smooth="yes"/>
      <point x="811" y="1214"/>
      <point x="874" y="1158"/>
      <point x="849" y="1038" type="curve" smooth="yes"/>
      <point x="816" y="883"/>
      <point x="672" y="784"/>
      <point x="397" y="769" type="curve"/>
      <point x="399" y="759" type="line"/>
      <point x="453" y="601" type="line"/>
      <point x="542" y="611"/>
      <point x="627" y="629"/>
      <point x="710" y="661" type="curve"/>
      <point x="770" y="618"/>
      <point x="794" y="536"/>
      <point x="776" y="449" type="curve" smooth="yes"/>
      <point x="747" y="313"/>
      <point x="622" y="214"/>
      <point x="464" y="214" type="curve" smooth="yes"/>
      <point x="271" y="214"/>
      <point x="148" y="370"/>
      <point x="156" y="740" type="curve"/>
      <point x="117" y="742"/>
      <point x="98" y="730"/>
      <point x="85" y="667" type="curve" smooth="yes"/>
      <point x="47" y="485"/>
      <point x="122" y="52"/>
      <point x="501" y="52" type="curve" smooth="yes"/>
      <point x="702" y="52"/>
      <point x="854" y="178"/>
      <point x="893" y="365" type="curve" smooth="yes"/>
      <point x="909" y="438"/>
      <point x="902" y="499"/>
      <point x="888" y="560" type="curve"/>
      <point x="930" y="543"/>
      <point x="969" y="530"/>
      <point x="1014" y="530" type="curve" smooth="yes"/>
      <point x="1061" y="530"/>
      <point x="1111" y="544"/>
      <point x="1163" y="575" type="curve"/>
      <point x="1200" y="477"/>
      <point x="1288" y="389"/>
      <point x="1416" y="389" type="curve" smooth="yes"/>
      <point x="1542" y="389"/>
      <point x="1663" y="480"/>
      <point x="1695" y="630" type="curve" smooth="yes"/>
      <point x="1735" y="818"/>
      <point x="1605" y="963"/>
      <point x="1464" y="963" type="curve" smooth="yes"/>
    </contour>
    <contour>
      <point x="1313" y="522"/>
      <point x="1263" y="547"/>
      <point x="1236" y="619" type="curve"/>
      <point x="1356" y="708"/>
      <point x="1456" y="823"/>
      <point x="1534" y="823" type="curve" smooth="yes"/>
      <point x="1564" y="823"/>
      <point x="1607" y="802"/>
      <point x="1590" y="721" type="curve" smooth="yes"/>
      <point x="1567" y="612"/>
      <point x="1461" y="522"/>
      <point x="1362" y="522" type="curve" smooth="yes"/>
    </contour>
  </outline>
</glyph>
<glyph name="udattadeva" format="1">
  <advance width="0"/>
  <unicode hex="0951"/>
  <outline>
    <contour>
      <point x="-15" y="1488" type="line"/>
      <point x="73" y="1917" type="line"/>
      <point x="-57" y="1945" type="line"/>
      <point x="-67" y="1938" type="line"/>
      <point x="-156" y="1509" type="line"/>
      <point x="-26" y="1481" type="line"/>
    </contour>
    <contour>
      <point x="-102" y="666" type="move" name="_class0"/>
    </contour>
  </outline>
</glyph>
<glyph name="anudattadeva" format="1">
  <advance width="0"/>
  <unicode hex="0952"/>
  <outline>
    <contour>
      <point x="-342" y="-293" type="line"/>
      <point x="-338" y="-284" type="line"/>
      <point x="-364" y="-180" type="line"/>
      <point x="-925" y="-180" type="line"/>
      <point x="-930" y="-189" type="line"/>
      <point x="-903" y="-293" type="line"/>
    </contour>
  </outline>
</glyph>
<glyph name="gravedeva" format="1">
  <advance width="0"/>
  <unicode hex="0953"/>
  <outline>
    <contour>
      <point x="-32" y="1552" type="line"/>
      <point x="-32" y="1564" type="line"/>
      <point x="-261" y="1930" type="line"/>
      <point x="-359" y="1875" type="line"/>
      <point x="-358" y="1863" type="line"/>
      <point x="-129" y="1497" type="line"/>
    </contour>
    <contour>
      <point x="-45" y="664" type="move" name="_class0"/>
    </contour>
  </outline>
</glyph>
<glyph name="acutedeva" format="1">
  <advance width="0"/>
  <unicode hex="0954"/>
  <outline>
    <contour>
      <point x="323" y="1863" type="line"/>
      <point x="320" y="1875" type="line"/>
      <point x="243" y="1930" type="line"/>
      <point x="-135" y="1564" type="line"/>
      <point x="-133" y="1552" type="line"/>
      <point x="-55" y="1497" type="line"/>
    </contour>
    <contour>
      <point x="-119" y="665" type="move" name="_class0"/>
    </contour>
  </outline>
</glyph>
<glyph name="ecandralongsigndeva" format="1">
  <advance width="0"/>
  <unicode hex="0955"/>
  <outline>
    <contour>
      <point x="-307" y="2013"/>
      <point x="-320" y="1998"/>
      <point x="-326" y="1968" type="curve" smooth="yes"/>
      <point x="-356" y="1825"/>
      <point x="-255" y="1626"/>
      <point x="-44" y="1626" type="curve" smooth="yes"/>
      <point x="114" y="1626"/>
      <point x="257" y="1743"/>
      <point x="288" y="1891" type="curve" smooth="yes"/>
      <point x="302" y="1958"/>
      <point x="273" y="2003"/>
      <point x="215" y="2030" type="curve"/>
      <point x="160" y="1845"/>
      <point x="43" y="1759"/>
      <point x="-80" y="1759" type="curve" smooth="yes"/>
      <point x="-184" y="1759"/>
      <point x="-256" y="1824"/>
      <point x="-282" y="2020" type="curve"/>
    </contour>
    <contour>
      <point x="219" y="1422" type="line"/>
      <point x="224" y="1431" type="line"/>
      <point x="205" y="1528" type="line"/>
      <point x="-405" y="1528" type="line"/>
      <point x="-409" y="1516" type="line"/>
      <point x="-392" y="1422" type="line"/>
    </contour>
    <contour>
      <point x="-95" y="666" type="move" name="_class0"/>
    </contour>
  </outline>
</glyph>
<glyph name="uesigndeva" format="1">
  <advance width="0"/>
  <unicode hex="0956"/>
  <outline>
    <contour>
      <point x="-1158" y="-116"/>
      <point x="-1176" y="-133"/>
      <point x="-1176" y="-165" type="curve" smooth="yes"/>
      <point x="-1176" y="-262"/>
      <point x="-1025" y="-441"/>
      <point x="-768" y="-441" type="curve" smooth="yes"/>
      <point x="-543" y="-441"/>
      <point x="-347" y="-310"/>
      <point x="-347" y="-196" type="curve" smooth="yes"/>
      <point x="-347" y="-158"/>
      <point x="-369" y="-126"/>
      <point x="-411" y="-110" type="curve"/>
      <point x="-505" y="-238"/>
      <point x="-649" y="-311"/>
      <point x="-796" y="-311" type="curve" smooth="yes"/>
      <point x="-940" y="-311"/>
      <point x="-1066" y="-241"/>
      <point x="-1138" y="-104" type="curve"/>
    </contour>
    <contour>
      <point x="-402" y="-1" type="move" name="_class0"/>
    </contour>
  </outline>
</glyph>
<glyph name="uuesigndeva" format="1">
  <advance width="0"/>
  <unicode hex="0957"/>
  <outline>
    <contour>
      <point x="-1164" y="-111"/>
      <point x="-1169" y="-122"/>
      <point x="-1173" y="-141" type="curve" smooth="yes"/>
      <point x="-1200" y="-269"/>
      <point x="-1037" y="-441"/>
      <point x="-772" y="-441" type="curve" smooth="yes"/>
      <point x="-559" y="-441"/>
      <point x="-385" y="-329"/>
      <point x="-363" y="-225" type="curve" smooth="yes"/>
      <point x="-352" y="-173"/>
      <point x="-379" y="-131"/>
      <point x="-430" y="-107" type="curve"/>
      <point x="-518" y="-233"/>
      <point x="-667" y="-311"/>
      <point x="-820" y="-311" type="curve" smooth="yes"/>
      <point x="-958" y="-311"/>
      <point x="-1082" y="-245"/>
      <point x="-1158" y="-104" type="curve"/>
    </contour>
    <contour>
      <point x="-587" y="-704"/>
      <point x="-447" y="-624"/>
      <point x="-429" y="-540" type="curve" smooth="yes"/>
      <point x="-421" y="-498"/>
      <point x="-437" y="-463"/>
      <point x="-473" y="-437" type="curve"/>
      <point x="-543" y="-515"/>
      <point x="-665" y="-573"/>
      <point x="-810" y="-573" type="curve" smooth="yes"/>
      <point x="-995" y="-573"/>
      <point x="-1133" y="-494"/>
      <point x="-1210" y="-354" type="curve"/>
      <point x="-1217" y="-361"/>
      <point x="-1222" y="-372"/>
      <point x="-1226" y="-391" type="curve" smooth="yes"/>
      <point x="-1251" y="-509"/>
      <point x="-1083" y="-704"/>
      <point x="-764" y="-704" type="curve" smooth="yes"/>
    </contour>
    <contour>
      <point x="-381" y="0" type="move" name="_class0"/>
    </contour>
  </outline>
</glyph>
<glyph name="qadeva" format="1">
  <advance width="1542.130"/>
  <unicode hex="0958"/>
  <outline>
    <contour>
      <point x="1728" y="1197" type="line"/>
      <point x="1736" y="1206" type="line"/>
      <point x="1706" y="1330" type="line"/>
      <point x="114" y="1330" type="line"/>
      <point x="106" y="1321" type="line"/>
      <point x="136" y="1197" type="line"/>
      <point x="869" y="1197" type="line"/>
      <point x="797" y="856" type="line"/>
      <point x="787" y="853" type="line"/>
      <point x="719" y="951"/>
      <point x="607" y="987"/>
      <point x="512" y="987" type="curve" smooth="yes"/>
      <point x="301" y="987"/>
      <point x="116" y="817"/>
      <point x="116" y="605" type="curve" smooth="yes"/>
      <point x="116" y="390"/>
      <point x="301" y="219"/>
      <point x="483" y="219" type="curve" smooth="yes"/>
      <point x="542" y="219"/>
      <point x="606" y="236"/>
      <point x="665" y="274" type="curve"/>
      <point x="674" y="269" type="line"/>
      <point x="622" y="19" type="line"/>
      <point x="765" y="-19" type="line"/>
      <point x="775" y="-12" type="line"/>
      <point x="882" y="496" type="line" smooth="yes"/>
      <point x="920" y="678"/>
      <point x="1114" y="805"/>
      <point x="1237" y="805" type="curve" smooth="yes"/>
      <point x="1309" y="805"/>
      <point x="1353" y="756"/>
      <point x="1353" y="672" type="curve" smooth="yes"/>
      <point x="1353" y="538"/>
      <point x="1244" y="371"/>
      <point x="1065" y="287" type="curve"/>
      <point x="1085" y="236"/>
      <point x="1130" y="200"/>
      <point x="1182" y="200" type="curve" smooth="yes"/>
      <point x="1298" y="200"/>
      <point x="1464" y="362"/>
      <point x="1464" y="622" type="curve" smooth="yes"/>
      <point x="1464" y="817"/>
      <point x="1353" y="932"/>
      <point x="1200" y="932" type="curve" smooth="yes"/>
      <point x="1110" y="932"/>
      <point x="1029" y="895"/>
      <point x="964" y="839" type="curve"/>
      <point x="955" y="843" type="line"/>
      <point x="1029" y="1197" type="line"/>
    </contour>
    <contour>
      <point x="697" y="843"/>
      <point x="774" y="745"/>
      <point x="750" y="632" type="curve" smooth="yes"/>
      <point x="737" y="568" type="line" smooth="yes"/>
      <point x="711" y="444"/>
      <point x="574" y="358"/>
      <point x="446" y="358" type="curve" smooth="yes"/>
      <point x="329" y="358"/>
      <point x="252" y="437"/>
      <point x="252" y="551" type="curve" smooth="yes"/>
      <point x="252" y="707"/>
      <point x="384" y="843"/>
      <point x="556" y="843" type="curve" smooth="yes"/>
    </contour>
    <contour>
      <point x="239" y="72"/>
      <point x="181" y="20"/>
      <point x="181" y="-39" type="curve" smooth="yes"/>
      <point x="181" y="-84"/>
      <point x="213" y="-119"/>
      <point x="259" y="-119" type="curve" smooth="yes"/>
      <point x="318" y="-119"/>
      <point x="376" y="-67"/>
      <point x="376" y="-7" type="curve" smooth="yes"/>
      <point x="376" y="37"/>
      <point x="344" y="72"/>
      <point x="299" y="72" type="curve" smooth="yes"/>
    </contour>
  </outline>
</glyph>
<glyph name="khhadeva" format="1">
  <advance width="1566.130"/>
  <unicode hex="0959"/>
  <outline>
    <contour>
      <point x="1752" y="1197" type="line"/>
      <point x="1760" y="1206" type="line"/>
      <point x="1730" y="1330" type="line"/>
      <point x="114" y="1330" type="line"/>
      <point x="106" y="1321" type="line"/>
      <point x="136" y="1197" type="line"/>
      <point x="459" y="1197" type="line"/>
      <point x="469" y="1148"/>
      <point x="474" y="1074"/>
      <point x="474" y="1028" type="curve" smooth="yes"/>
      <point x="474" y="844"/>
      <point x="422" y="791"/>
      <point x="383" y="751" type="curve"/>
      <point x="341" y="769"/>
      <point x="298" y="779"/>
      <point x="258" y="779" type="curve" smooth="yes"/>
      <point x="158" y="779"/>
      <point x="95" y="719"/>
      <point x="95" y="614" type="curve" smooth="yes"/>
      <point x="95" y="368"/>
      <point x="447" y="-4"/>
      <point x="715" y="-4" type="curve" smooth="yes"/>
      <point x="788" y="-4"/>
      <point x="836" y="23"/>
      <point x="866" y="86" type="curve"/>
      <point x="565" y="131"/>
      <point x="361" y="269"/>
      <point x="248" y="483" type="curve"/>
      <point x="253" y="491" type="line"/>
      <point x="520" y="566"/>
      <point x="590" y="761"/>
      <point x="590" y="941" type="curve" smooth="yes"/>
      <point x="590" y="1019"/>
      <point x="578" y="1115"/>
      <point x="560" y="1188" type="curve"/>
      <point x="568" y="1197" type="line"/>
      <point x="1334" y="1197" type="line"/>
      <point x="1263" y="859" type="line"/>
      <point x="1252" y="855" type="line"/>
      <point x="1197" y="941"/>
      <point x="1110" y="986"/>
      <point x="1006" y="986" type="curve" smooth="yes"/>
      <point x="819" y="986"/>
      <point x="666" y="845"/>
      <point x="666" y="662" type="curve" smooth="yes"/>
      <point x="666" y="473"/>
      <point x="827" y="316"/>
      <point x="997" y="316" type="curve" smooth="yes"/>
      <point x="1047" y="316"/>
      <point x="1097" y="329"/>
      <point x="1148" y="357" type="curve"/>
      <point x="1157" y="352" type="line"/>
      <point x="1087" y="19" type="line"/>
      <point x="1230" y="-19" type="line"/>
      <point x="1240" y="-12" type="line"/>
      <point x="1494" y="1197" type="line"/>
    </contour>
    <contour>
      <point x="1173" y="850"/>
      <point x="1240" y="748"/>
      <point x="1220" y="651" type="curve" smooth="yes"/>
      <point x="1212" y="615" type="line" smooth="yes"/>
      <point x="1192" y="520"/>
      <point x="1081" y="438"/>
      <point x="967" y="438" type="curve" smooth="yes"/>
      <point x="871" y="438"/>
      <point x="793" y="500"/>
      <point x="793" y="606" type="curve" smooth="yes"/>
      <point x="793" y="735"/>
      <point x="899" y="850"/>
      <point x="1042" y="850" type="curve" smooth="yes"/>
    </contour>
    <contour>
      <point x="152" y="72"/>
      <point x="94" y="20"/>
      <point x="94" y="-39" type="curve" smooth="yes"/>
      <point x="94" y="-84"/>
      <point x="126" y="-119"/>
      <point x="172" y="-119" type="curve" smooth="yes"/>
      <point x="231" y="-119"/>
      <point x="289" y="-67"/>
      <point x="289" y="-7" type="curve" smooth="yes"/>
      <point x="289" y="37"/>
      <point x="257" y="72"/>
      <point x="212" y="72" type="curve" smooth="yes"/>
    </contour>
  </outline>
</glyph>
<glyph name="ghhadeva" format="1">
  <advance width="1241.130"/>
  <unicode hex="095A"/>
  <outline>
    <contour>
      <point x="1427" y="1197" type="line"/>
      <point x="1435" y="1206" type="line"/>
      <point x="1405" y="1330" type="line"/>
      <point x="114" y="1330" type="line"/>
      <point x="106" y="1321" type="line"/>
      <point x="136" y="1197" type="line"/>
      <point x="420" y="1197" type="line"/>
      <point x="309" y="666" type="line"/>
      <point x="194" y="666" type="line" smooth="yes"/>
      <point x="130" y="666"/>
      <point x="102" y="633"/>
      <point x="102" y="598" type="curve" smooth="yes"/>
      <point x="102" y="520"/>
      <point x="213" y="363"/>
      <point x="311" y="363" type="curve" smooth="yes"/>
      <point x="370" y="363"/>
      <point x="411" y="416"/>
      <point x="434" y="524" type="curve" smooth="yes"/>
      <point x="575" y="1197" type="line"/>
      <point x="1010" y="1197" type="line"/>
      <point x="763" y="19" type="line"/>
      <point x="906" y="-19" type="line"/>
      <point x="917" y="-12" type="line"/>
      <point x="1170" y="1197" type="line"/>
    </contour>
    <contour>
      <point x="374" y="172"/>
      <point x="315" y="120"/>
      <point x="315" y="61" type="curve" smooth="yes"/>
      <point x="315" y="16"/>
      <point x="347" y="-19"/>
      <point x="393" y="-19" type="curve" smooth="yes"/>
      <point x="452" y="-19"/>
      <point x="510" y="33"/>
      <point x="510" y="93" type="curve" smooth="yes"/>
      <point x="510" y="137"/>
      <point x="479" y="172"/>
      <point x="433" y="172" type="curve" smooth="yes"/>
    </contour>
  </outline>
</glyph>
<glyph name="zadeva" format="1">
  <advance width="1421"/>
  <unicode hex="095B"/>
  <outline>
    <contour>
      <point x="1611" y="1197" type="line"/>
      <point x="1615" y="1206" type="line"/>
      <point x="1584" y="1330" type="line"/>
      <point x="112" y="1330" type="line"/>
      <point x="107" y="1321" type="line"/>
      <point x="139" y="1197" type="line"/>
      <point x="1191" y="1197" type="line"/>
      <point x="1133" y="923" type="line"/>
      <point x="520" y="923" type="line"/>
      <point x="515" y="914" type="line"/>
      <point x="554" y="790" type="line"/>
      <point x="689" y="790"/>
      <point x="735" y="694"/>
      <point x="712" y="589" type="curve" smooth="yes"/>
      <point x="686" y="462"/>
      <point x="574" y="389"/>
      <point x="464" y="389" type="curve" smooth="yes"/>
      <point x="309" y="389"/>
      <point x="229" y="546"/>
      <point x="241" y="918" type="curve"/>
      <point x="187" y="917"/>
      <point x="172" y="894"/>
      <point x="161" y="837" type="curve" smooth="yes"/>
      <point x="129" y="671"/>
      <point x="169" y="219"/>
      <point x="500" y="219" type="curve" smooth="yes"/>
      <point x="656" y="219"/>
      <point x="794" y="323"/>
      <point x="830" y="494" type="curve" smooth="yes"/>
      <point x="851" y="594"/>
      <point x="833" y="696"/>
      <point x="780" y="776" type="curve"/>
      <point x="795" y="790" type="line"/>
      <point x="1105" y="790" type="line"/>
      <point x="942" y="19" type="line"/>
      <point x="1087" y="-19" type="line"/>
      <point x="1098" y="-12" type="line"/>
      <point x="1351" y="1197" type="line"/>
    </contour>
    <contour>
      <point x="367" y="52"/>
      <point x="323" y="15"/>
      <point x="314" y="-32" type="curve" smooth="yes"/>
      <point x="301" y="-90"/>
      <point x="341" y="-139"/>
      <point x="400" y="-139" type="curve" smooth="yes"/>
      <point x="446" y="-139"/>
      <point x="490" y="-102"/>
      <point x="500" y="-54" type="curve" smooth="yes"/>
      <point x="512" y="3"/>
      <point x="472" y="52"/>
      <point x="414" y="52" type="curve" smooth="yes"/>
    </contour>
  </outline>
</glyph>
<glyph name="dddhadeva" format="1">
  <advance width="1051.130"/>
  <unicode hex="095C"/>
  <outline>
    <contour>
      <point x="1238" y="1197" type="line"/>
      <point x="1245" y="1206" type="line"/>
      <point x="1215" y="1330" type="line"/>
      <point x="113" y="1330" type="line"/>
      <point x="106" y="1321" type="line"/>
      <point x="136" y="1197" type="line"/>
      <point x="844" y="1197" type="line"/>
      <point x="809" y="1034" type="line" smooth="yes"/>
      <point x="808" y="1029"/>
      <point x="805" y="1026"/>
      <point x="800" y="1026" type="curve" smooth="yes"/>
      <point x="477" y="1026" type="line" smooth="yes"/>
      <point x="318" y="1026"/>
      <point x="244" y="945"/>
      <point x="244" y="820" type="curve" smooth="yes"/>
      <point x="244" y="669"/>
      <point x="370" y="522"/>
      <point x="518" y="522" type="curve" smooth="yes"/>
      <point x="570" y="522"/>
      <point x="693" y="539"/>
      <point x="733" y="539" type="curve" smooth="yes"/>
      <point x="791" y="539"/>
      <point x="822" y="501"/>
      <point x="822" y="451" type="curve" smooth="yes"/>
      <point x="822" y="339"/>
      <point x="679" y="255"/>
      <point x="533" y="255" type="curve" smooth="yes"/>
      <point x="364" y="255"/>
      <point x="217" y="372"/>
      <point x="147" y="616" type="curve"/>
      <point x="109" y="599"/>
      <point x="87" y="565"/>
      <point x="87" y="520" type="curve" smooth="yes"/>
      <point x="87" y="389"/>
      <point x="240" y="99"/>
      <point x="554" y="99" type="curve" smooth="yes"/>
      <point x="774" y="99"/>
      <point x="919" y="228"/>
      <point x="919" y="429" type="curve" smooth="yes"/>
      <point x="919" y="582"/>
      <point x="822" y="701"/>
      <point x="698" y="701" type="curve" smooth="yes"/>
      <point x="644" y="701"/>
      <point x="530" y="680"/>
      <point x="471" y="680" type="curve" smooth="yes"/>
      <point x="399" y="680"/>
      <point x="363" y="715"/>
      <point x="363" y="766" type="curve" smooth="yes"/>
      <point x="363" y="831"/>
      <point x="400" y="885"/>
      <point x="529" y="885" type="curve" smooth="yes"/>
      <point x="924" y="885" type="line"/>
      <point x="934" y="893" type="line"/>
      <point x="998" y="1197" type="line"/>
    </contour>
    <contour>
      <point x="411" y="-28"/>
      <point x="352" y="-80"/>
      <point x="352" y="-139" type="curve" smooth="yes"/>
      <point x="352" y="-184"/>
      <point x="384" y="-219"/>
      <point x="430" y="-219" type="curve" smooth="yes"/>
      <point x="489" y="-219"/>
      <point x="548" y="-167"/>
      <point x="548" y="-107" type="curve" smooth="yes"/>
      <point x="548" y="-63"/>
      <point x="516" y="-28"/>
      <point x="471" y="-28" type="curve" smooth="yes"/>
    </contour>
  </outline>
</glyph>
<glyph name="rhadeva" format="1">
  <advance width="1008"/>
  <unicode hex="095D"/>
  <outline>
    <contour>
      <point x="1198" y="1197" type="line"/>
      <point x="1202" y="1206" type="line"/>
      <point x="1171" y="1330" type="line"/>
      <point x="112" y="1330" type="line"/>
      <point x="107" y="1321" type="line"/>
      <point x="139" y="1197" type="line"/>
      <point x="775" y="1197" type="line"/>
      <point x="731" y="990" type="line" smooth="yes"/>
      <point x="730" y="985"/>
      <point x="718" y="976"/>
      <point x="713" y="976" type="curve" smooth="yes"/>
      <point x="595" y="976" type="line" smooth="yes"/>
      <point x="304" y="976"/>
      <point x="113" y="813"/>
      <point x="69" y="604" type="curve" smooth="yes"/>
      <point x="12" y="336"/>
      <point x="208" y="61"/>
      <point x="501" y="61" type="curve" smooth="yes"/>
      <point x="699" y="61"/>
      <point x="877" y="191"/>
      <point x="911" y="354" type="curve" smooth="yes"/>
      <point x="946" y="521"/>
      <point x="852" y="655"/>
      <point x="699" y="655" type="curve" smooth="yes"/>
      <point x="595" y="655"/>
      <point x="507" y="589"/>
      <point x="483" y="475" type="curve" smooth="yes"/>
      <point x="465" y="388"/>
      <point x="491" y="302"/>
      <point x="559" y="211" type="curve"/>
      <point x="520" y="198"/>
      <point x="484" y="192"/>
      <point x="443" y="192" type="curve" smooth="yes"/>
      <point x="237" y="192"/>
      <point x="156" y="345"/>
      <point x="192" y="514" type="curve" smooth="yes"/>
      <point x="228" y="687"/>
      <point x="400" y="829"/>
      <point x="629" y="829" type="curve" smooth="yes"/>
      <point x="845" y="829" type="line"/>
      <point x="855" y="837" type="line"/>
      <point x="929" y="1197" type="line"/>
    </contour>
    <contour>
      <point x="811" y="531"/>
      <point x="840" y="495"/>
      <point x="827" y="436" type="curve" smooth="yes"/>
      <point x="811" y="358"/>
      <point x="734" y="281"/>
      <point x="633" y="232" type="curve"/>
      <point x="600" y="295"/>
      <point x="594" y="347"/>
      <point x="604" y="392" type="curve" smooth="yes"/>
      <point x="620" y="470"/>
      <point x="693" y="531"/>
      <point x="762" y="531" type="curve" smooth="yes"/>
    </contour>
    <contour>
      <point x="370" y="-28"/>
      <point x="327" y="-65"/>
      <point x="317" y="-112" type="curve" smooth="yes"/>
      <point x="304" y="-170"/>
      <point x="344" y="-219"/>
      <point x="403" y="-219" type="curve" smooth="yes"/>
      <point x="449" y="-219"/>
      <point x="493" y="-182"/>
      <point x="503" y="-134" type="curve" smooth="yes"/>
      <point x="515" y="-77"/>
      <point x="475" y="-28"/>
      <point x="417" y="-28" type="curve" smooth="yes"/>
    </contour>
  </outline>
</glyph>
<glyph name="fadeva" format="1">
  <advance width="1480"/>
  <unicode hex="095E"/>
  <outline>
    <contour>
      <point x="1670" y="1197" type="line"/>
      <point x="1674" y="1206" type="line"/>
      <point x="1643" y="1330" type="line"/>
      <point x="112" y="1330" type="line"/>
      <point x="107" y="1321" type="line"/>
      <point x="139" y="1197" type="line"/>
      <point x="266" y="1197" type="line"/>
      <point x="172" y="751" type="line" smooth="yes"/>
      <point x="128" y="542"/>
      <point x="272" y="361"/>
      <point x="465" y="361" type="curve" smooth="yes"/>
      <point x="519" y="361"/>
      <point x="589" y="376"/>
      <point x="651" y="410" type="curve"/>
      <point x="656" y="407" type="line"/>
      <point x="572" y="19" type="line"/>
      <point x="717" y="-19" type="line"/>
      <point x="728" y="-12" type="line"/>
      <point x="836" y="512" type="line" smooth="yes"/>
      <point x="873" y="688"/>
      <point x="1062" y="815"/>
      <point x="1206" y="815" type="curve" smooth="yes"/>
      <point x="1283" y="815"/>
      <point x="1319" y="778"/>
      <point x="1298" y="677" type="curve" smooth="yes"/>
      <point x="1268" y="536"/>
      <point x="1142" y="370"/>
      <point x="1004" y="300" type="curve"/>
      <point x="1039" y="246"/>
      <point x="1093" y="220"/>
      <point x="1139" y="220" type="curve" smooth="yes"/>
      <point x="1234" y="220"/>
      <point x="1355" y="354"/>
      <point x="1396" y="548" type="curve" smooth="yes"/>
      <point x="1450" y="806"/>
      <point x="1311" y="942"/>
      <point x="1135" y="942" type="curve" smooth="yes"/>
      <point x="1059" y="942"/>
      <point x="979" y="915"/>
      <point x="914" y="859" type="curve"/>
      <point x="909" y="859" type="line"/>
      <point x="981" y="1197" type="line"/>
    </contour>
    <contour>
      <point x="426" y="1197" type="line"/>
      <point x="821" y="1197" type="line"/>
      <point x="721" y="726" type="line" smooth="yes"/>
      <point x="693" y="594"/>
      <point x="537" y="483"/>
      <point x="408" y="483" type="curve" smooth="yes"/>
      <point x="321" y="483"/>
      <point x="286" y="537"/>
      <point x="311" y="654" type="curve" smooth="yes"/>
    </contour>
    <contour>
      <point x="223" y="172"/>
      <point x="179" y="135"/>
      <point x="169" y="88" type="curve" smooth="yes"/>
      <point x="157" y="30"/>
      <point x="196" y="-19"/>
      <point x="255" y="-19" type="curve" smooth="yes"/>
      <point x="301" y="-19"/>
      <point x="345" y="18"/>
      <point x="355" y="66" type="curve" smooth="yes"/>
      <point x="367" y="123"/>
      <point x="328" y="172"/>
      <point x="270" y="172" type="curve" smooth="yes"/>
    </contour>
  </outline>
</glyph>
<glyph name="rrvocalicdeva" format="1">
  <advance width="1771"/>
  <unicode hex="0960"/>
  <outline>
    <contour>
      <point x="1961" y="1197" type="line"/>
      <point x="1965" y="1206" type="line"/>
      <point x="1934" y="1330" type="line"/>
      <point x="112" y="1330" type="line"/>
      <point x="107" y="1321" type="line"/>
      <point x="139" y="1197" type="line"/>
      <point x="931" y="1197" type="line"/>
      <point x="838" y="763" type="line"/>
      <point x="822" y="756" type="line"/>
      <point x="597" y="967"/>
      <point x="521" y="1019"/>
      <point x="407" y="1019" type="curve" smooth="yes"/>
      <point x="268" y="1019"/>
      <point x="176" y="937"/>
      <point x="162" y="870" type="curve" smooth="yes"/>
      <point x="150" y="817"/>
      <point x="182" y="768"/>
      <point x="240" y="723" type="curve"/>
      <point x="303" y="804"/>
      <point x="403" y="869"/>
      <point x="486" y="869" type="curve" smooth="yes"/>
      <point x="539" y="869"/>
      <point x="576" y="865"/>
      <point x="770" y="692" type="curve"/>
      <point x="544" y="565"/>
      <point x="347" y="431"/>
      <point x="162" y="292" type="curve"/>
      <point x="167" y="276" type="line"/>
      <point x="272" y="154" type="line"/>
      <point x="431" y="277"/>
      <point x="599" y="400"/>
      <point x="782" y="514" type="curve"/>
      <point x="787" y="512" type="line"/>
      <point x="682" y="19" type="line"/>
      <point x="827" y="-19" type="line"/>
      <point x="838" y="-12" type="line"/>
      <point x="965" y="567" type="line"/>
      <point x="1103" y="573"/>
      <point x="1237" y="610"/>
      <point x="1347" y="671" type="curve"/>
      <point x="1355" y="622"/>
      <point x="1369" y="577"/>
      <point x="1377" y="536" type="curve"/>
      <point x="1225" y="452"/>
      <point x="1151" y="382"/>
      <point x="1134" y="304" type="curve" smooth="yes"/>
      <point x="1107" y="173"/>
      <point x="1226" y="-10"/>
      <point x="1411" y="-10" type="curve" smooth="yes"/>
      <point x="1527" y="-10"/>
      <point x="1644" y="67"/>
      <point x="1660" y="143" type="curve" smooth="yes"/>
      <point x="1673" y="203"/>
      <point x="1628" y="252"/>
      <point x="1593" y="270" type="curve"/>
      <point x="1523" y="169"/>
      <point x="1386" y="108"/>
      <point x="1306" y="108" type="curve" smooth="yes"/>
      <point x="1245" y="108"/>
      <point x="1220" y="147"/>
      <point x="1232" y="201" type="curve" smooth="yes"/>
      <point x="1247" y="272"/>
      <point x="1317" y="335"/>
      <point x="1507" y="433" type="curve"/>
      <point x="1474" y="518"/>
      <point x="1448" y="610"/>
      <point x="1425" y="716" type="curve"/>
      <point x="1496" y="771"/>
      <point x="1535" y="826"/>
      <point x="1546" y="877" type="curve" smooth="yes"/>
      <point x="1564" y="962"/>
      <point x="1507" y="1045"/>
      <point x="1409" y="1045" type="curve" smooth="yes"/>
      <point x="1333" y="1045"/>
      <point x="1286" y="991"/>
      <point x="1276" y="945" type="curve" smooth="yes"/>
      <point x="1267" y="901"/>
      <point x="1272" y="869"/>
      <point x="1290" y="816" type="curve"/>
      <point x="1195" y="756"/>
      <point x="1094" y="722"/>
      <point x="982" y="713" type="curve"/>
      <point x="1091" y="1197" type="line"/>
    </contour>
  </outline>
</glyph>
<glyph name="llvocalicdeva" format="1">
  <advance width="1446.220"/>
  <unicode hex="0961"/>
  <outline>
    <contour>
      <point x="1206" y="-234"/>
      <point x="1079" y="-291"/>
      <point x="1002" y="-291" type="curve" smooth="yes"/>
      <point x="962" y="-291"/>
      <point x="933" y="-274"/>
      <point x="933" y="-240" type="curve" smooth="yes"/>
      <point x="933" y="-195"/>
      <point x="966" y="-126"/>
      <point x="1238" y="-4" type="curve"/>
      <point x="1243" y="7" type="line"/>
      <point x="1176" y="106" type="line"/>
      <point x="1049" y="38"/>
      <point x="982" y="10"/>
      <point x="935" y="10" type="curve" smooth="yes"/>
      <point x="896" y="10"/>
      <point x="881" y="31"/>
      <point x="881" y="53" type="curve" smooth="yes"/>
      <point x="881" y="112"/>
      <point x="971" y="169"/>
      <point x="1136" y="302" type="curve" smooth="yes"/>
      <point x="1240" y="386"/>
      <point x="1329" y="459"/>
      <point x="1329" y="619" type="curve" smooth="yes"/>
      <point x="1329" y="753"/>
      <point x="1253" y="864"/>
      <point x="1147" y="897" type="curve"/>
      <point x="1210" y="1197" type="line"/>
      <point x="1597" y="1197" type="line"/>
      <point x="1604" y="1206" type="line"/>
      <point x="1574" y="1330" type="line"/>
      <point x="113" y="1330" type="line"/>
      <point x="106" y="1321" type="line"/>
      <point x="136" y="1197" type="line"/>
      <point x="1060" y="1197" type="line"/>
      <point x="997" y="901" type="line"/>
      <point x="921" y="883"/>
      <point x="833" y="838"/>
      <point x="750" y="762" type="curve"/>
      <point x="742" y="762" type="line"/>
      <point x="652" y="881"/>
      <point x="565" y="924"/>
      <point x="461" y="924" type="curve" smooth="yes"/>
      <point x="254" y="924"/>
      <point x="107" y="761"/>
      <point x="107" y="544" type="curve" smooth="yes"/>
      <point x="107" y="265"/>
      <point x="333" y="-8"/>
      <point x="436" y="-8" type="curve" smooth="yes"/>
      <point x="462" y="-8"/>
      <point x="488" y="9"/>
      <point x="503" y="34" type="curve"/>
      <point x="335" y="172"/>
      <point x="255" y="367"/>
      <point x="255" y="512" type="curve" smooth="yes"/>
      <point x="255" y="672"/>
      <point x="365" y="788"/>
      <point x="493" y="788" type="curve" smooth="yes"/>
      <point x="560" y="788"/>
      <point x="620" y="755"/>
      <point x="672" y="682" type="curve"/>
      <point x="634" y="635"/>
      <point x="597" y="583"/>
      <point x="562" y="522" type="curve"/>
      <point x="677" y="438" type="line"/>
      <point x="688" y="441" type="line"/>
      <point x="835" y="675"/>
      <point x="988" y="771"/>
      <point x="1103" y="771" type="curve" smooth="yes"/>
      <point x="1174" y="771"/>
      <point x="1220" y="732"/>
      <point x="1220" y="664" type="curve" smooth="yes"/>
      <point x="1220" y="576"/>
      <point x="1158" y="497"/>
      <point x="989" y="363" type="curve" smooth="yes"/>
      <point x="855" y="257"/>
      <point x="764" y="210"/>
      <point x="764" y="99" type="curve" smooth="yes"/>
      <point x="764" y="31"/>
      <point x="805" y="-32"/>
      <point x="873" y="-67" type="curve"/>
      <point x="824" y="-118"/>
      <point x="816" y="-153"/>
      <point x="816" y="-192" type="curve" smooth="yes"/>
      <point x="816" y="-301"/>
      <point x="913" y="-399"/>
      <point x="1059" y="-399" type="curve" smooth="yes"/>
      <point x="1209" y="-399"/>
      <point x="1338" y="-304"/>
      <point x="1338" y="-226" type="curve" smooth="yes"/>
      <point x="1338" y="-188"/>
      <point x="1309" y="-160"/>
      <point x="1278" y="-147" type="curve"/>
    </contour>
  </outline>
</glyph>
<glyph name="lvocalicsigndeva" format="1">
  <advance width="0"/>
  <unicode hex="0962"/>
  <outline>
    <contour>
      <point x="-957" y="-70"/>
      <point x="-1052" y="-170"/>
      <point x="-1052" y="-304" type="curve" smooth="yes"/>
      <point x="-1052" y="-472"/>
      <point x="-910" y="-637"/>
      <point x="-846" y="-637" type="curve" smooth="yes"/>
      <point x="-826" y="-637"/>
      <point x="-803" y="-622"/>
      <point x="-792" y="-601" type="curve"/>
      <point x="-896" y="-522"/>
      <point x="-950" y="-405"/>
      <point x="-950" y="-321" type="curve" smooth="yes"/>
      <point x="-950" y="-234"/>
      <point x="-886" y="-175"/>
      <point x="-806" y="-175" type="curve" smooth="yes"/>
      <point x="-766" y="-175"/>
      <point x="-727" y="-191"/>
      <point x="-692" y="-224" type="curve"/>
      <point x="-722" y="-264"/>
      <point x="-749" y="-316"/>
      <point x="-771" y="-380" type="curve"/>
      <point x="-684" y="-431" type="line"/>
      <point x="-671" y="-425" type="line"/>
      <point x="-595" y="-219"/>
      <point x="-485" y="-176"/>
      <point x="-421" y="-176" type="curve" smooth="yes"/>
      <point x="-381" y="-176"/>
      <point x="-357" y="-195"/>
      <point x="-357" y="-234" type="curve" smooth="yes"/>
      <point x="-357" y="-297"/>
      <point x="-406" y="-347"/>
      <point x="-496" y="-431" type="curve" smooth="yes"/>
      <point x="-562" y="-493"/>
      <point x="-635" y="-556"/>
      <point x="-635" y="-620" type="curve" smooth="yes"/>
      <point x="-635" y="-690"/>
      <point x="-565" y="-772"/>
      <point x="-465" y="-772" type="curve" smooth="yes"/>
      <point x="-378" y="-772"/>
      <point x="-295" y="-715"/>
      <point x="-295" y="-658" type="curve" smooth="yes"/>
      <point x="-295" y="-627"/>
      <point x="-319" y="-599"/>
      <point x="-343" y="-590" type="curve"/>
      <point x="-391" y="-655"/>
      <point x="-469" y="-688"/>
      <point x="-514" y="-688" type="curve" smooth="yes"/>
      <point x="-537" y="-688"/>
      <point x="-549" y="-678"/>
      <point x="-549" y="-661" type="curve" smooth="yes"/>
      <point x="-549" y="-619"/>
      <point x="-475" y="-566"/>
      <point x="-393" y="-486" type="curve" smooth="yes"/>
      <point x="-315" y="-410"/>
      <point x="-277" y="-371"/>
      <point x="-277" y="-273" type="curve" smooth="yes"/>
      <point x="-277" y="-158"/>
      <point x="-351" y="-80"/>
      <point x="-448" y="-80" type="curve" smooth="yes"/>
      <point x="-496" y="-80"/>
      <point x="-567" y="-98"/>
      <point x="-635" y="-159" type="curve"/>
      <point x="-644" y="-159" type="line"/>
      <point x="-701" y="-93"/>
      <point x="-757" y="-70"/>
      <point x="-820" y="-70" type="curve" smooth="yes"/>
    </contour>
    <contour>
      <point x="-346" y="37" type="move" name="_class0"/>
    </contour>
  </outline>
</glyph>
<glyph name="llvocalicsigndeva" format="1">
  <advance width="0"/>
  <unicode hex="0963"/>
  <outline>
    <contour>
      <point x="-957" y="-70"/>
      <point x="-1052" y="-170"/>
      <point x="-1052" y="-304" type="curve" smooth="yes"/>
      <point x="-1052" y="-472"/>
      <point x="-910" y="-637"/>
      <point x="-846" y="-637" type="curve" smooth="yes"/>
      <point x="-826" y="-637"/>
      <point x="-803" y="-622"/>
      <point x="-792" y="-601" type="curve"/>
      <point x="-896" y="-522"/>
      <point x="-950" y="-405"/>
      <point x="-950" y="-321" type="curve" smooth="yes"/>
      <point x="-950" y="-234"/>
      <point x="-884" y="-175"/>
      <point x="-808" y="-175" type="curve" smooth="yes"/>
      <point x="-765" y="-175"/>
      <point x="-727" y="-191"/>
      <point x="-692" y="-224" type="curve"/>
      <point x="-722" y="-264"/>
      <point x="-749" y="-316"/>
      <point x="-771" y="-380" type="curve"/>
      <point x="-681" y="-421" type="line"/>
      <point x="-669" y="-415" type="line"/>
      <point x="-595" y="-217"/>
      <point x="-485" y="-176"/>
      <point x="-421" y="-176" type="curve" smooth="yes"/>
      <point x="-381" y="-176"/>
      <point x="-356" y="-195"/>
      <point x="-356" y="-233" type="curve" smooth="yes"/>
      <point x="-356" y="-310"/>
      <point x="-420" y="-346"/>
      <point x="-511" y="-411" type="curve" smooth="yes"/>
      <point x="-628" y="-496"/>
      <point x="-648" y="-521"/>
      <point x="-648" y="-585" type="curve" smooth="yes"/>
      <point x="-648" y="-629"/>
      <point x="-619" y="-674"/>
      <point x="-580" y="-696" type="curve"/>
      <point x="-580" y="-704" type="line"/>
      <point x="-603" y="-732"/>
      <point x="-613" y="-756"/>
      <point x="-613" y="-781" type="curve" smooth="yes"/>
      <point x="-613" y="-852"/>
      <point x="-548" y="-936"/>
      <point x="-445" y="-936" type="curve" smooth="yes"/>
      <point x="-358" y="-936"/>
      <point x="-276" y="-883"/>
      <point x="-276" y="-826" type="curve" smooth="yes"/>
      <point x="-276" y="-802"/>
      <point x="-289" y="-776"/>
      <point x="-311" y="-762" type="curve"/>
      <point x="-357" y="-823"/>
      <point x="-435" y="-852"/>
      <point x="-481" y="-852" type="curve" smooth="yes"/>
      <point x="-512" y="-852"/>
      <point x="-532" y="-838"/>
      <point x="-532" y="-814" type="curve" smooth="yes"/>
      <point x="-532" y="-784"/>
      <point x="-510" y="-741"/>
      <point x="-339" y="-672" type="curve"/>
      <point x="-333" y="-661" type="line"/>
      <point x="-369" y="-582" type="line"/>
      <point x="-452" y="-630"/>
      <point x="-498" y="-650"/>
      <point x="-528" y="-650" type="curve" smooth="yes"/>
      <point x="-553" y="-650"/>
      <point x="-561" y="-635"/>
      <point x="-561" y="-620" type="curve" smooth="yes"/>
      <point x="-561" y="-566"/>
      <point x="-474" y="-513"/>
      <point x="-409" y="-466" type="curve" smooth="yes"/>
      <point x="-311" y="-394"/>
      <point x="-274" y="-343"/>
      <point x="-274" y="-261" type="curve" smooth="yes"/>
      <point x="-274" y="-159"/>
      <point x="-349" y="-80"/>
      <point x="-448" y="-80" type="curve" smooth="yes"/>
      <point x="-496" y="-80"/>
      <point x="-567" y="-98"/>
      <point x="-635" y="-159" type="curve"/>
      <point x="-644" y="-159" type="line"/>
      <point x="-701" y="-93"/>
      <point x="-756" y="-70"/>
      <point x="-822" y="-70" type="curve" smooth="yes"/>
    </contour>
    <contour>
      <point x="-369" y="34" type="move" name="_class0"/>
    </contour>
  </outline>
</glyph>
<glyph name="danda" format="1">
  <advance width="860"/>
  <unicode hex="0964"/>
  <outline>
    <contour>
      <point x="818" y="1299" type="line"/>
      <point x="673" y="1337" type="line"/>
      <point x="663" y="1330" type="line"/>
      <point x="380" y="-21" type="line"/>
      <point x="525" y="-59" type="line"/>
      <point x="535" y="-52" type="line"/>
    </contour>
  </outline>
</glyph>
<glyph name="dbldanda" format="1">
  <advance width="1230"/>
  <unicode hex="0965"/>
  <outline>
    <contour>
      <point x="816" y="1299" type="line"/>
      <point x="673" y="1337" type="line"/>
      <point x="663" y="1330" type="line"/>
      <point x="380" y="-21" type="line"/>
      <point x="523" y="-59" type="line"/>
      <point x="533" y="-52" type="line"/>
    </contour>
    <contour>
      <point x="1186" y="1299" type="line"/>
      <point x="1043" y="1337" type="line"/>
      <point x="1033" y="1330" type="line"/>
      <point x="750" y="-21" type="line"/>
      <point x="893" y="-59" type="line"/>
      <point x="903" y="-52" type="line"/>
    </contour>
  </outline>
</glyph>
<glyph name="zerodeva" format="1">
  <advance width="1038"/>
  <unicode hex="0966"/>
  <outline>
    <contour>
      <point x="994" y="816"/>
      <point x="828" y="1046"/>
      <point x="575" y="1046" type="curve" smooth="yes"/>
      <point x="362" y="1046"/>
      <point x="169" y="877"/>
      <point x="126" y="672" type="curve" smooth="yes"/>
      <point x="74" y="424"/>
      <point x="253" y="196"/>
      <point x="504" y="196" type="curve" smooth="yes"/>
      <point x="705" y="196"/>
      <point x="896" y="349"/>
      <point x="941" y="564" type="curve" smooth="yes"/>
    </contour>
    <contour>
      <point x="778" y="899"/>
      <point x="860" y="800"/>
      <point x="828" y="650" type="curve" smooth="yes"/>
      <point x="789" y="465"/>
      <point x="609" y="338"/>
      <point x="446" y="338" type="curve" smooth="yes"/>
      <point x="297" y="338"/>
      <point x="221" y="449"/>
      <point x="251" y="591" type="curve" smooth="yes"/>
      <point x="285" y="755"/>
      <point x="448" y="899"/>
      <point x="630" y="899" type="curve" smooth="yes"/>
    </contour>
  </outline>
</glyph>
<glyph name="onedeva" format="1">
  <advance width="809"/>
  <unicode hex="0967"/>
  <outline>
    <contour>
      <point x="440" y="192"/>
      <point x="336" y="287"/>
      <point x="276" y="333" type="curve"/>
      <point x="600" y="586"/>
      <point x="754" y="740"/>
      <point x="789" y="907" type="curve" smooth="yes"/>
      <point x="831" y="1103"/>
      <point x="703" y="1277"/>
      <point x="516" y="1277" type="curve" smooth="yes"/>
      <point x="384" y="1277"/>
      <point x="254" y="1185"/>
      <point x="223" y="1037" type="curve" smooth="yes"/>
      <point x="187" y="866"/>
      <point x="305" y="750"/>
      <point x="439" y="672" type="curve"/>
      <point x="347" y="592"/>
      <point x="234" y="501"/>
      <point x="86" y="386" type="curve"/>
      <point x="94" y="375" type="line"/>
      <point x="212" y="264"/>
      <point x="272" y="213"/>
      <point x="410" y="87" type="curve" smooth="yes"/>
      <point x="477" y="12"/>
      <point x="478" y="6"/>
      <point x="471" y="-24" type="curve" smooth="yes"/>
      <point x="466" y="-50"/>
      <point x="430" y="-99"/>
      <point x="363" y="-129" type="curve"/>
      <point x="381" y="-195"/>
      <point x="421" y="-237"/>
      <point x="479" y="-237" type="curve" smooth="yes"/>
      <point x="540" y="-237"/>
      <point x="594" y="-188"/>
      <point x="611" y="-107" type="curve" smooth="yes"/>
      <point x="628" y="-26"/>
      <point x="598" y="40"/>
      <point x="481" y="143" type="curve" smooth="yes"/>
    </contour>
    <contour>
      <point x="391" y="1075"/>
      <point x="480" y="1152"/>
      <point x="575" y="1152" type="curve" smooth="yes"/>
      <point x="650" y="1152"/>
      <point x="694" y="1099"/>
      <point x="672" y="993" type="curve" smooth="yes"/>
      <point x="654" y="910"/>
      <point x="603" y="834"/>
      <point x="499" y="734" type="curve"/>
      <point x="375" y="812"/>
      <point x="353" y="894"/>
      <point x="369" y="971" type="curve" smooth="yes"/>
    </contour>
  </outline>
</glyph>
<glyph name="twodeva" format="1">
  <advance width="1063.938"/>
  <unicode hex="0968"/>
  <outline>
    <contour>
      <point x="804" y="36"/>
      <point x="768" y="25"/>
      <point x="722" y="25" type="curve" smooth="yes"/>
      <point x="606" y="25"/>
      <point x="532" y="94"/>
      <point x="477" y="337" type="curve"/>
      <point x="821" y="467"/>
      <point x="1020" y="702"/>
      <point x="1020" y="926" type="curve" smooth="yes"/>
      <point x="1020" y="1121"/>
      <point x="877" y="1277"/>
      <point x="672" y="1277" type="curve" smooth="yes"/>
      <point x="459" y="1277"/>
      <point x="266" y="1126"/>
      <point x="266" y="989" type="curve" smooth="yes"/>
      <point x="266" y="925"/>
      <point x="311" y="889"/>
      <point x="389" y="889" type="curve"/>
      <point x="419" y="1029"/>
      <point x="543" y="1152"/>
      <point x="706" y="1152" type="curve" smooth="yes"/>
      <point x="819" y="1152"/>
      <point x="892" y="1089"/>
      <point x="892" y="975" type="curve" smooth="yes"/>
      <point x="892" y="812"/>
      <point x="754" y="613"/>
      <point x="444" y="496" type="curve"/>
      <point x="416" y="575"/>
      <point x="361" y="615"/>
      <point x="295" y="615" type="curve" smooth="yes"/>
      <point x="210" y="615"/>
      <point x="136" y="554"/>
      <point x="136" y="467" type="curve" smooth="yes"/>
      <point x="136" y="386"/>
      <point x="201" y="304"/>
      <point x="338" y="304" type="curve" smooth="yes"/>
      <point x="354" y="304"/>
      <point x="362" y="305"/>
      <point x="374" y="306" type="curve"/>
      <point x="462" y="-43"/>
      <point x="598" y="-148"/>
      <point x="723" y="-148" type="curve" smooth="yes"/>
      <point x="818" y="-148"/>
      <point x="882" y="-91"/>
      <point x="882" y="-18" type="curve" smooth="yes"/>
      <point x="882" y="10"/>
      <point x="873" y="41"/>
      <point x="855" y="61" type="curve"/>
    </contour>
  </outline>
</glyph>
<glyph name="threedeva" format="1">
  <advance width="945"/>
  <unicode hex="0969"/>
  <outline>
    <contour>
      <point x="631" y="-69"/>
      <point x="593" y="-83"/>
      <point x="541" y="-83" type="curve" smooth="yes"/>
      <point x="461" y="-83"/>
      <point x="423" y="-53"/>
      <point x="399" y="66" type="curve"/>
      <point x="666" y="86"/>
      <point x="814" y="214"/>
      <point x="846" y="363" type="curve" smooth="yes"/>
      <point x="871" y="484"/>
      <point x="819" y="599"/>
      <point x="728" y="672" type="curve"/>
      <point x="847" y="733"/>
      <point x="907" y="811"/>
      <point x="928" y="909" type="curve" smooth="yes"/>
      <point x="969" y="1106"/>
      <point x="825" y="1275"/>
      <point x="581" y="1275" type="curve" smooth="yes"/>
      <point x="390" y="1275"/>
      <point x="261" y="1170"/>
      <point x="240" y="1069" type="curve" smooth="yes"/>
      <point x="223" y="990"/>
      <point x="275" y="937"/>
      <point x="363" y="931" type="curve"/>
      <point x="384" y="1061"/>
      <point x="499" y="1164"/>
      <point x="652" y="1164" type="curve" smooth="yes"/>
      <point x="765" y="1164"/>
      <point x="829" y="1107"/>
      <point x="807" y="1004" type="curve" smooth="yes"/>
      <point x="777" y="864"/>
      <point x="621" y="763"/>
      <point x="306" y="749" type="curve"/>
      <point x="308" y="739" type="line"/>
      <point x="362" y="581" type="line"/>
      <point x="462" y="591"/>
      <point x="549" y="607"/>
      <point x="631" y="634" type="curve"/>
      <point x="713" y="590"/>
      <point x="735" y="523"/>
      <point x="720" y="454" type="curve" smooth="yes"/>
      <point x="696" y="340"/>
      <point x="576" y="239"/>
      <point x="368" y="219" type="curve"/>
      <point x="360" y="316"/>
      <point x="303" y="376"/>
      <point x="223" y="376" type="curve" smooth="yes"/>
      <point x="154" y="376"/>
      <point x="101" y="327"/>
      <point x="88" y="263" type="curve" smooth="yes"/>
      <point x="65" y="157"/>
      <point x="159" y="63"/>
      <point x="315" y="69" type="curve"/>
      <point x="357" y="-164"/>
      <point x="460" y="-256"/>
      <point x="567" y="-256" type="curve" smooth="yes"/>
      <point x="645" y="-256"/>
      <point x="697" y="-215"/>
      <point x="709" y="-158" type="curve" smooth="yes"/>
      <point x="717" y="-118"/>
      <point x="705" y="-77"/>
      <point x="676" y="-48" type="curve"/>
    </contour>
  </outline>
</glyph>
<glyph name="fourdeva" format="1">
  <advance width="1110"/>
  <unicode hex="096A"/>
  <outline>
    <contour>
      <point x="734" y="670" type="line" smooth="yes"/>
      <point x="1080" y="1032"/>
      <point x="1025" y="970"/>
      <point x="1192" y="1155" type="curve"/>
      <point x="1071" y="1254" type="line"/>
      <point x="809" y="967"/>
      <point x="796" y="961"/>
      <point x="645" y="807" type="curve" smooth="yes"/>
      <point x="580" y="732" type="line"/>
      <point x="570" y="730" type="line"/>
      <point x="396" y="915"/>
      <point x="347" y="941"/>
      <point x="364" y="1024" type="curve" smooth="yes"/>
      <point x="375" y="1078"/>
      <point x="450" y="1146"/>
      <point x="545" y="1141" type="curve"/>
      <point x="521" y="1225"/>
      <point x="490" y="1271"/>
      <point x="416" y="1271" type="curve" smooth="yes"/>
      <point x="330" y="1271"/>
      <point x="248" y="1203"/>
      <point x="228" y="1108" type="curve" smooth="yes"/>
      <point x="193" y="942"/>
      <point x="364" y="800"/>
      <point x="501" y="667" type="curve" smooth="yes"/>
      <point x="506" y="658" type="line"/>
      <point x="339" y="482"/>
      <point x="309" y="422"/>
      <point x="298" y="367" type="curve" smooth="yes"/>
      <point x="261" y="194"/>
      <point x="394" y="39"/>
      <point x="560" y="39" type="curve" smooth="yes"/>
      <point x="653" y="39"/>
      <point x="787" y="90"/>
      <point x="822" y="254" type="curve" smooth="yes"/>
      <point x="848" y="376"/>
      <point x="801" y="473"/>
      <point x="674" y="619" type="curve"/>
    </contour>
    <contour>
      <point x="441" y="179"/>
      <point x="397" y="217"/>
      <point x="411" y="282" type="curve" smooth="yes"/>
      <point x="423" y="338"/>
      <point x="471" y="396"/>
      <point x="615" y="546" type="curve"/>
      <point x="684" y="466"/>
      <point x="710" y="398"/>
      <point x="695" y="327" type="curve" smooth="yes"/>
      <point x="675" y="233"/>
      <point x="594" y="179"/>
      <point x="510" y="179" type="curve" smooth="yes"/>
    </contour>
  </outline>
</glyph>
<glyph name="fivedeva" format="1">
  <advance width="1047"/>
  <unicode hex="096B"/>
  <outline>
    <contour>
      <point x="914" y="511"/>
      <point x="942" y="569"/>
      <point x="953" y="622" type="curve" smooth="yes"/>
      <point x="977" y="735"/>
      <point x="925" y="838"/>
      <point x="820" y="838" type="curve" smooth="yes"/>
      <point x="749" y="838"/>
      <point x="691" y="785"/>
      <point x="675" y="712" type="curve" smooth="yes"/>
      <point x="662" y="648"/>
      <point x="684" y="587"/>
      <point x="719" y="526" type="curve"/>
      <point x="588" y="401"/>
      <point x="481" y="356"/>
      <point x="378" y="356" type="curve" smooth="yes"/>
      <point x="254" y="356"/>
      <point x="206" y="424"/>
      <point x="230" y="541" type="curve" smooth="yes"/>
      <point x="260" y="682"/>
      <point x="397" y="905"/>
      <point x="635" y="1169" type="curve"/>
      <point x="504" y="1269" type="line"/>
      <point x="310" y="1052"/>
      <point x="150" y="816"/>
      <point x="113" y="641" type="curve" smooth="yes"/>
      <point x="62" y="396"/>
      <point x="233" y="214"/>
      <point x="435" y="214" type="curve" smooth="yes"/>
      <point x="553" y="214"/>
      <point x="692" y="282"/>
      <point x="803" y="384" type="curve"/>
      <point x="837" y="309"/>
      <point x="858" y="260"/>
      <point x="843" y="187" type="curve" smooth="yes"/>
      <point x="823" y="93"/>
      <point x="761" y="44"/>
      <point x="639" y="28" type="curve"/>
      <point x="664" y="-60"/>
      <point x="715" y="-99"/>
      <point x="782" y="-99" type="curve" smooth="yes"/>
      <point x="866" y="-99"/>
      <point x="935" y="-30"/>
      <point x="955" y="66" type="curve" smooth="yes"/>
      <point x="983" y="198"/>
      <point x="911" y="337"/>
      <point x="865" y="451" type="curve"/>
    </contour>
  </outline>
</glyph>
